%TF.GenerationSoftware,KiCad,Pcbnew,9.0.6*%
%TF.CreationDate,2026-03-26T21:28:36+02:00*%
%TF.ProjectId,First_try,46697273-745f-4747-9279-2e6b69636164,rev?*%
%TF.SameCoordinates,Original*%
%TF.FileFunction,Copper,L1,Top*%
%TF.FilePolarity,Positive*%
%FSLAX46Y46*%
G04 Gerber Fmt 4.6, Leading zero omitted, Abs format (unit mm)*
G04 Created by KiCad (PCBNEW 9.0.6) date 2026-03-26 21:28:36*
%MOMM*%
%LPD*%
G01*
G04 APERTURE LIST*
G04 Aperture macros list*
%AMRoundRect*
0 Rectangle with rounded corners*
0 $1 Rounding radius*
0 $2 $3 $4 $5 $6 $7 $8 $9 X,Y pos of 4 corners*
0 Add a 4 corners polygon primitive as box body*
4,1,4,$2,$3,$4,$5,$6,$7,$8,$9,$2,$3,0*
0 Add four circle primitives for the rounded corners*
1,1,$1+$1,$2,$3*
1,1,$1+$1,$4,$5*
1,1,$1+$1,$6,$7*
1,1,$1+$1,$8,$9*
0 Add four rect primitives between the rounded corners*
20,1,$1+$1,$2,$3,$4,$5,0*
20,1,$1+$1,$4,$5,$6,$7,0*
20,1,$1+$1,$6,$7,$8,$9,0*
20,1,$1+$1,$8,$9,$2,$3,0*%
G04 Aperture macros list end*
%TA.AperFunction,EtchedComponent*%
%ADD10C,0.000000*%
%TD*%
%TA.AperFunction,SMDPad,CuDef*%
%ADD11RoundRect,0.200000X0.275000X-0.200000X0.275000X0.200000X-0.275000X0.200000X-0.275000X-0.200000X0*%
%TD*%
%TA.AperFunction,SMDPad,CuDef*%
%ADD12R,1.000000X1.000000*%
%TD*%
%TA.AperFunction,ComponentPad*%
%ADD13C,1.800000*%
%TD*%
%TA.AperFunction,ComponentPad*%
%ADD14R,1.700000X1.700000*%
%TD*%
%TA.AperFunction,ComponentPad*%
%ADD15C,1.700000*%
%TD*%
%TA.AperFunction,SMDPad,CuDef*%
%ADD16RoundRect,0.225000X0.250000X-0.225000X0.250000X0.225000X-0.250000X0.225000X-0.250000X-0.225000X0*%
%TD*%
%TA.AperFunction,SMDPad,CuDef*%
%ADD17R,0.600000X0.360000*%
%TD*%
%TA.AperFunction,SMDPad,CuDef*%
%ADD18R,1.346200X0.279400*%
%TD*%
%TA.AperFunction,SMDPad,CuDef*%
%ADD19R,0.279400X1.346200*%
%TD*%
%TA.AperFunction,SMDPad,CuDef*%
%ADD20RoundRect,0.250000X-0.325000X-0.650000X0.325000X-0.650000X0.325000X0.650000X-0.325000X0.650000X0*%
%TD*%
%TA.AperFunction,SMDPad,CuDef*%
%ADD21RoundRect,0.140000X0.140000X0.170000X-0.140000X0.170000X-0.140000X-0.170000X0.140000X-0.170000X0*%
%TD*%
%TA.AperFunction,SMDPad,CuDef*%
%ADD22RoundRect,0.250000X-0.650000X0.325000X-0.650000X-0.325000X0.650000X-0.325000X0.650000X0.325000X0*%
%TD*%
%TA.AperFunction,SMDPad,CuDef*%
%ADD23R,1.574800X0.279400*%
%TD*%
%TA.AperFunction,SMDPad,CuDef*%
%ADD24R,0.600000X0.700000*%
%TD*%
%TA.AperFunction,SMDPad,CuDef*%
%ADD25RoundRect,0.225000X-0.250000X0.225000X-0.250000X-0.225000X0.250000X-0.225000X0.250000X0.225000X0*%
%TD*%
%TA.AperFunction,SMDPad,CuDef*%
%ADD26R,0.850000X0.280000*%
%TD*%
%TA.AperFunction,SMDPad,CuDef*%
%ADD27RoundRect,0.250000X-0.600000X-2.600000X0.600000X-2.600000X0.600000X2.600000X-0.600000X2.600000X0*%
%TD*%
%TA.AperFunction,SMDPad,CuDef*%
%ADD28RoundRect,0.225000X-0.225000X-0.250000X0.225000X-0.250000X0.225000X0.250000X-0.225000X0.250000X0*%
%TD*%
%TA.AperFunction,SMDPad,CuDef*%
%ADD29RoundRect,0.225000X0.225000X0.250000X-0.225000X0.250000X-0.225000X-0.250000X0.225000X-0.250000X0*%
%TD*%
%TA.AperFunction,SMDPad,CuDef*%
%ADD30RoundRect,0.200000X-0.275000X0.200000X-0.275000X-0.200000X0.275000X-0.200000X0.275000X0.200000X0*%
%TD*%
%TA.AperFunction,SMDPad,CuDef*%
%ADD31RoundRect,0.200000X0.200000X0.275000X-0.200000X0.275000X-0.200000X-0.275000X0.200000X-0.275000X0*%
%TD*%
%TA.AperFunction,SMDPad,CuDef*%
%ADD32RoundRect,0.200000X-0.200000X-0.275000X0.200000X-0.275000X0.200000X0.275000X-0.200000X0.275000X0*%
%TD*%
%TA.AperFunction,SMDPad,CuDef*%
%ADD33RoundRect,0.250000X0.650000X-0.325000X0.650000X0.325000X-0.650000X0.325000X-0.650000X-0.325000X0*%
%TD*%
%TA.AperFunction,ComponentPad*%
%ADD34C,1.397000*%
%TD*%
%TA.AperFunction,SMDPad,CuDef*%
%ADD35R,1.168400X0.254000*%
%TD*%
%TA.AperFunction,SMDPad,CuDef*%
%ADD36R,0.838200X0.965200*%
%TD*%
%TA.AperFunction,SMDPad,CuDef*%
%ADD37RoundRect,0.220000X-0.220000X-0.255000X0.220000X-0.255000X0.220000X0.255000X-0.220000X0.255000X0*%
%TD*%
%TA.AperFunction,SMDPad,CuDef*%
%ADD38R,0.700000X0.300000*%
%TD*%
%TA.AperFunction,SMDPad,CuDef*%
%ADD39R,1.016000X1.600200*%
%TD*%
%TA.AperFunction,ComponentPad*%
%ADD40C,0.508000*%
%TD*%
%TA.AperFunction,SMDPad,CuDef*%
%ADD41R,5.000000X1.700000*%
%TD*%
%TA.AperFunction,SMDPad,CuDef*%
%ADD42R,1.500000X3.240000*%
%TD*%
%TA.AperFunction,SMDPad,CuDef*%
%ADD43R,0.900000X1.000000*%
%TD*%
%TA.AperFunction,SMDPad,CuDef*%
%ADD44R,1.320800X0.558800*%
%TD*%
%TA.AperFunction,SMDPad,CuDef*%
%ADD45R,0.700000X0.600000*%
%TD*%
%TA.AperFunction,SMDPad,CuDef*%
%ADD46O,2.250000X0.630000*%
%TD*%
%TA.AperFunction,SMDPad,CuDef*%
%ADD47RoundRect,0.250000X0.325000X0.650000X-0.325000X0.650000X-0.325000X-0.650000X0.325000X-0.650000X0*%
%TD*%
%TA.AperFunction,ComponentPad*%
%ADD48R,1.000000X1.000000*%
%TD*%
%TA.AperFunction,ComponentPad*%
%ADD49C,1.000000*%
%TD*%
%TA.AperFunction,SMDPad,CuDef*%
%ADD50RoundRect,0.242500X-0.457500X0.242500X-0.457500X-0.242500X0.457500X-0.242500X0.457500X0.242500X0*%
%TD*%
%TA.AperFunction,SMDPad,CuDef*%
%ADD51R,2.200000X1.550000*%
%TD*%
%TA.AperFunction,SMDPad,CuDef*%
%ADD52RoundRect,0.140000X-0.170000X0.140000X-0.170000X-0.140000X0.170000X-0.140000X0.170000X0.140000X0*%
%TD*%
%TA.AperFunction,SMDPad,CuDef*%
%ADD53R,0.800000X0.400000*%
%TD*%
%TA.AperFunction,SMDPad,CuDef*%
%ADD54R,0.254000X0.762000*%
%TD*%
%TA.AperFunction,SMDPad,CuDef*%
%ADD55R,0.762000X0.254000*%
%TD*%
%TA.AperFunction,SMDPad,CuDef*%
%ADD56R,5.080000X3.810000*%
%TD*%
%TA.AperFunction,WasherPad*%
%ADD57O,1.117600X1.905000*%
%TD*%
%TA.AperFunction,WasherPad*%
%ADD58O,1.117600X2.209800*%
%TD*%
%TA.AperFunction,SMDPad,CuDef*%
%ADD59R,0.127000X0.127000*%
%TD*%
%TA.AperFunction,SMDPad,CuDef*%
%ADD60R,0.304800X1.143000*%
%TD*%
G04 APERTURE END LIST*
D10*
%TA.AperFunction,EtchedComponent*%
%TO.C,J1*%
G36*
X35792107Y-27101800D02*
G01*
X35487307Y-27101800D01*
X35487307Y-25958800D01*
X35792107Y-25958800D01*
X35792107Y-27101800D01*
G37*
%TD.AperFunction*%
%TA.AperFunction,EtchedComponent*%
G36*
X36096907Y-27101800D02*
G01*
X35487307Y-27101800D01*
X35487307Y-25958800D01*
X36096907Y-25958800D01*
X36096907Y-27101800D01*
G37*
%TD.AperFunction*%
%TA.AperFunction,EtchedComponent*%
G36*
X36597033Y-27101800D02*
G01*
X36292233Y-27101800D01*
X36292233Y-25958800D01*
X36597033Y-25958800D01*
X36597033Y-27101800D01*
G37*
%TD.AperFunction*%
%TA.AperFunction,EtchedComponent*%
G36*
X36901833Y-27101800D02*
G01*
X36292233Y-27101800D01*
X36292233Y-25958800D01*
X36901833Y-25958800D01*
X36901833Y-27101800D01*
G37*
%TD.AperFunction*%
%TA.AperFunction,EtchedComponent*%
G36*
X41707767Y-27101800D02*
G01*
X41098167Y-27101800D01*
X41098167Y-25958800D01*
X41707767Y-25958800D01*
X41707767Y-27101800D01*
G37*
%TD.AperFunction*%
%TA.AperFunction,EtchedComponent*%
G36*
X41707767Y-27101800D02*
G01*
X41402967Y-27101800D01*
X41402967Y-25958800D01*
X41707767Y-25958800D01*
X41707767Y-27101800D01*
G37*
%TD.AperFunction*%
%TA.AperFunction,EtchedComponent*%
G36*
X42512693Y-27101800D02*
G01*
X41903093Y-27101800D01*
X41903093Y-25958800D01*
X42512693Y-25958800D01*
X42512693Y-27101800D01*
G37*
%TD.AperFunction*%
%TA.AperFunction,EtchedComponent*%
G36*
X42512693Y-27101800D02*
G01*
X42207893Y-27101800D01*
X42207893Y-25958800D01*
X42512693Y-25958800D01*
X42512693Y-27101800D01*
G37*
%TD.AperFunction*%
%TD*%
D11*
%TO.P,R8,1*%
%TO.N,+3V3*%
X71755000Y-89560400D03*
%TO.P,R8,2*%
%TO.N,/creset*%
X71755000Y-87920400D03*
%TD*%
D12*
%TO.P,TP14,1,1*%
%TO.N,Net-(U1-ACBUS2)*%
X83713000Y-50571400D03*
%TD*%
D13*
%TO.P,SW2,1,1*%
%TO.N,/button2*%
X67946200Y-98156200D03*
%TO.P,SW2,2,2*%
%TO.N,GND*%
X74446200Y-98156200D03*
%TO.P,SW2,3*%
%TO.N,N/C*%
X67946200Y-102656200D03*
%TO.P,SW2,4*%
X74446200Y-102656200D03*
%TD*%
D11*
%TO.P,R22,1*%
%TO.N,+3V3*%
X49072800Y-66809200D03*
%TO.P,R22,2*%
%TO.N,/SCL*%
X49072800Y-65169200D03*
%TD*%
D12*
%TO.P,TP15,1,1*%
%TO.N,Net-(U1-ACBUS1)*%
X81173000Y-51841400D03*
%TD*%
D14*
%TO.P,J7,1,Pin_1*%
%TO.N,GND*%
X83972400Y-59867800D03*
D15*
%TO.P,J7,2,Pin_2*%
X83972400Y-62407800D03*
%TD*%
D16*
%TO.P,C48,1*%
%TO.N,+1V2*%
X69164200Y-77592201D03*
%TO.P,C48,2*%
%TO.N,GND*%
X69164200Y-76032201D03*
%TD*%
D17*
%TO.P,D7,1,K*%
%TO.N,+2V5*%
X44318400Y-54914800D03*
%TO.P,D7,2,A*%
%TO.N,3.3*%
X45618400Y-54914800D03*
%TD*%
D18*
%TO.P,U1,1,OSCI*%
%TO.N,/FT_CLK*%
X69354700Y-44011400D03*
%TO.P,U1,2,OSCO*%
%TO.N,unconnected-(U1-OSCO-Pad2)*%
X69354700Y-44511399D03*
%TO.P,U1,3,VPHY*%
%TO.N,/VPHY*%
X69354700Y-45011401D03*
%TO.P,U1,4,AGND*%
%TO.N,GND*%
X69354700Y-45511400D03*
%TO.P,U1,5,REF*%
%TO.N,Net-(U1-REF)*%
X69354700Y-46011399D03*
%TO.P,U1,6,DM*%
%TO.N,/D_M*%
X69354700Y-46511400D03*
%TO.P,U1,7,DP*%
%TO.N,/D_P*%
X69354700Y-47011400D03*
%TO.P,U1,8,VPLL*%
%TO.N,/VPLL*%
X69354700Y-47511401D03*
%TO.P,U1,9,AGND*%
%TO.N,GND*%
X69354700Y-48011400D03*
%TO.P,U1,10,GND*%
X69354700Y-48511399D03*
%TO.P,U1,11,GND*%
X69354700Y-49011401D03*
%TO.P,U1,12,VCCIO*%
%TO.N,3.3*%
X69354700Y-49511400D03*
D19*
%TO.P,U1,13,ADBUS0*%
%TO.N,/SCK*%
X70783000Y-50939700D03*
%TO.P,U1,14,ADBUS1*%
%TO.N,/SDO*%
X71282999Y-50939700D03*
%TO.P,U1,15,ADBUS2*%
%TO.N,/SDI*%
X71783001Y-50939700D03*
%TO.P,U1,16,ADBUS3*%
%TO.N,Net-(U1-ADBUS3)*%
X72283000Y-50939700D03*
%TO.P,U1,17,ADBUS4*%
%TO.N,/SS*%
X72782999Y-50939700D03*
%TO.P,U1,18,ADBUS5*%
%TO.N,Net-(U1-ADBUS5)*%
X73283000Y-50939700D03*
%TO.P,U1,19,ADBUS6*%
%TO.N,/cdone*%
X73783000Y-50939700D03*
%TO.P,U1,20,ADBUS7*%
%TO.N,/creset*%
X74283001Y-50939700D03*
%TO.P,U1,21,ACBUS0*%
%TO.N,Net-(U1-ACBUS0)*%
X74783000Y-50939700D03*
%TO.P,U1,22,GND*%
%TO.N,GND*%
X75282999Y-50939700D03*
%TO.P,U1,23,GND*%
X75783001Y-50939700D03*
%TO.P,U1,24,VCCIO*%
%TO.N,3.3*%
X76283000Y-50939700D03*
D18*
%TO.P,U1,25,ACBUS1*%
%TO.N,Net-(U1-ACBUS1)*%
X77711300Y-49511400D03*
%TO.P,U1,26,ACBUS2*%
%TO.N,Net-(U1-ACBUS2)*%
X77711300Y-49011401D03*
%TO.P,U1,27,ACBUS3*%
%TO.N,Net-(U1-ACBUS3)*%
X77711300Y-48511399D03*
%TO.P,U1,28,ACBUS4*%
%TO.N,Net-(U1-ACBUS4)*%
X77711300Y-48011400D03*
%TO.P,U1,29,ACBUS5*%
%TO.N,Net-(U1-ACBUS5)*%
X77711300Y-47511401D03*
%TO.P,U1,30,ACBUS6*%
%TO.N,Net-(U1-ACBUS6)*%
X77711300Y-47011400D03*
%TO.P,U1,31,ACBUS7*%
%TO.N,Net-(U1-ACBUS7)*%
X77711300Y-46511400D03*
%TO.P,U1,32,ACBUS8*%
%TO.N,Net-(U1-ACBUS8)*%
X77711300Y-46011399D03*
%TO.P,U1,33,ACBUS9*%
%TO.N,Net-(U1-ACBUS9)*%
X77711300Y-45511400D03*
%TO.P,U1,34,RESET#*%
%TO.N,3.3*%
X77711300Y-45011401D03*
%TO.P,U1,35,GND*%
%TO.N,GND*%
X77711300Y-44511399D03*
%TO.P,U1,36,GND*%
X77711300Y-44011400D03*
D19*
%TO.P,U1,37,VCCA*%
%TO.N,Net-(U1-VCCA)*%
X76283000Y-42583100D03*
%TO.P,U1,38,VCORE*%
%TO.N,/FT_VCORE*%
X75783001Y-42583100D03*
%TO.P,U1,39,VCCD*%
%TO.N,3.3*%
X75282999Y-42583100D03*
%TO.P,U1,40,VREG*%
%TO.N,+5V*%
X74783000Y-42583100D03*
%TO.P,U1,41,AGND*%
%TO.N,GND*%
X74283001Y-42583100D03*
%TO.P,U1,42,TEST*%
X73783000Y-42583100D03*
%TO.P,U1,43,EEDATA*%
%TO.N,/EE_DAT*%
X73283000Y-42583100D03*
%TO.P,U1,44,EECLK*%
%TO.N,/EE_CLK*%
X72782999Y-42583100D03*
%TO.P,U1,45,EECS*%
%TO.N,/EE_CS*%
X72283000Y-42583100D03*
%TO.P,U1,46,VCCIO*%
%TO.N,3.3*%
X71783001Y-42583100D03*
%TO.P,U1,47,GND*%
%TO.N,GND*%
X71282999Y-42583100D03*
%TO.P,U1,48,GND*%
X70783000Y-42583100D03*
%TD*%
D14*
%TO.P,J9,1,Pin_1*%
%TO.N,+1V2*%
X30480000Y-53340000D03*
D15*
%TO.P,J9,2,Pin_2*%
%TO.N,/creset*%
X30480000Y-55880000D03*
%TO.P,J9,3,Pin_3*%
%TO.N,/cdone*%
X30480000Y-58420000D03*
%TO.P,J9,4,Pin_4*%
%TO.N,/R_LED*%
X30480000Y-60960000D03*
%TO.P,J9,5,Pin_5*%
%TO.N,/B_LED*%
X30480000Y-63500000D03*
%TO.P,J9,6,Pin_6*%
%TO.N,/G_LED*%
X30480000Y-66040000D03*
%TO.P,J9,7,Pin_7*%
%TO.N,+5V*%
X30480000Y-68580000D03*
%TO.P,J9,8,Pin_8*%
%TO.N,+3V3*%
X30480000Y-71120000D03*
%TO.P,J9,9,Pin_9*%
%TO.N,GND*%
X30480000Y-73660000D03*
%TO.P,J9,10,Pin_10*%
%TO.N,/button1*%
X30480000Y-76200000D03*
%TO.P,J9,11,Pin_11*%
%TO.N,/button2*%
X30480000Y-78740000D03*
%TO.P,J9,12,Pin_12*%
%TO.N,/button3*%
X30480000Y-81280000D03*
%TO.P,J9,13,Pin_13*%
%TO.N,/SDO*%
X30480000Y-83820000D03*
%TO.P,J9,14,Pin_14*%
%TO.N,/SDI*%
X30480000Y-86360000D03*
%TO.P,J9,15,Pin_15*%
%TO.N,/SCK*%
X30480000Y-88900000D03*
%TO.P,J9,16,Pin_16*%
%TO.N,/SS*%
X30480000Y-91440000D03*
%TO.P,J9,17,Pin_17*%
%TO.N,/OLED*%
X30480000Y-93980000D03*
%TO.P,J9,18,Pin_18*%
%TO.N,/BLED*%
X30480000Y-96520000D03*
%TO.P,J9,19,Pin_19*%
%TO.N,/RLED*%
X30480000Y-99060000D03*
%TO.P,J9,20,Pin_20*%
%TO.N,/GLED*%
X30480000Y-101600000D03*
%TD*%
D20*
%TO.P,C5,1*%
%TO.N,+5V*%
X41166600Y-38049200D03*
%TO.P,C5,2*%
%TO.N,GND*%
X44126600Y-38049200D03*
%TD*%
D12*
%TO.P,TP20,1,1*%
%TO.N,/creset*%
X57581800Y-93624400D03*
%TD*%
D11*
%TO.P,R7,1*%
%TO.N,+3V3*%
X47523400Y-66225000D03*
%TO.P,R7,2*%
%TO.N,/SDA*%
X47523400Y-64585000D03*
%TD*%
D21*
%TO.P,R24,1*%
%TO.N,/R_LED*%
X63568200Y-83035201D03*
%TO.P,R24,2*%
%TO.N,Net-(C5393554-RK)*%
X62568200Y-83035201D03*
%TD*%
D16*
%TO.P,C4,1*%
%TO.N,1.2*%
X62966600Y-53713600D03*
%TO.P,C4,2*%
%TO.N,Net-(U12-FB)*%
X62966600Y-52153600D03*
%TD*%
D12*
%TO.P,TP8,1,1*%
%TO.N,Net-(U1-ACBUS7)*%
X81173000Y-44221400D03*
%TD*%
D22*
%TO.P,C36,1,1*%
%TO.N,GND*%
X46583600Y-47161000D03*
%TO.P,C36,2,2*%
%TO.N,Net-(U2-FB)*%
X46583600Y-50121000D03*
%TD*%
D23*
%TO.P,U4,1,A1*%
%TO.N,GND*%
X51231800Y-63769999D03*
%TO.P,U4,2,A0*%
X51231800Y-64270001D03*
%TO.P,U4,3,ALERT*%
%TO.N,unconnected-(U4-ALERT-Pad3)*%
X51231800Y-64770000D03*
%TO.P,U4,4,SDA*%
%TO.N,/SDA*%
X51231800Y-65269999D03*
%TO.P,U4,5,SCL*%
%TO.N,/SCL*%
X51231800Y-65770001D03*
%TO.P,U4,6,VS*%
%TO.N,+3V3*%
X55422800Y-65770001D03*
%TO.P,U4,7,GND*%
%TO.N,GND*%
X55422800Y-65269999D03*
%TO.P,U4,8,VBUS*%
%TO.N,+1V2*%
X55422800Y-64770000D03*
%TO.P,U4,9,VIN-*%
X55422800Y-64270001D03*
%TO.P,U4,10,VIN+*%
%TO.N,1.2*%
X55422800Y-63769999D03*
%TD*%
D24*
%TO.P,D3,1,K*%
%TO.N,Net-(D3-K)*%
X70802400Y-90881200D03*
%TO.P,D3,2,A*%
%TO.N,+3V3*%
X71742400Y-90881200D03*
%TD*%
D25*
%TO.P,C23,1*%
%TO.N,+3V3*%
X65252600Y-88198801D03*
%TO.P,C23,2*%
%TO.N,GND*%
X65252600Y-89758801D03*
%TD*%
D26*
%TO.P,U2,1,EN*%
%TO.N,+5V*%
X49197999Y-47894999D03*
%TO.P,U2,2,VIN*%
X49197999Y-48395001D03*
%TO.P,U2,3,VIN*%
X49197999Y-48895000D03*
%TO.P,U2,4,GND*%
%TO.N,GND*%
X49197999Y-49394999D03*
%TO.P,U2,5,FB*%
%TO.N,Net-(U2-FB)*%
X49197999Y-49895001D03*
%TO.P,U2,6,MODE*%
%TO.N,GND*%
X52148001Y-49895001D03*
%TO.P,U2,7,SW*%
%TO.N,Net-(L1-Pad2)*%
X52148001Y-49394999D03*
%TO.P,U2,8,SW*%
X52148001Y-48895000D03*
%TO.P,U2,9,PGND*%
%TO.N,GND*%
X52148001Y-48395001D03*
%TO.P,U2,10,PGND*%
X52148001Y-47894999D03*
%TD*%
D27*
%TO.P,L1,1,1*%
%TO.N,Net-(U2-FB)*%
X48575400Y-54787800D03*
%TO.P,L1,2,2*%
%TO.N,Net-(L1-Pad2)*%
X53075400Y-54787800D03*
%TD*%
D28*
%TO.P,C39,1*%
%TO.N,+3V3*%
X54299900Y-67538600D03*
%TO.P,C39,2*%
%TO.N,GND*%
X55859900Y-67538600D03*
%TD*%
%TO.P,C34,1*%
%TO.N,/VCC_PLL*%
X70543200Y-75974001D03*
%TO.P,C34,2*%
%TO.N,GND*%
X72103200Y-75974001D03*
%TD*%
D14*
%TO.P,PMOD_OLED1,1,Pin_1*%
%TO.N,+3V3*%
X68580000Y-30480000D03*
D15*
%TO.P,PMOD_OLED1,2,Pin_2*%
X68580000Y-27940000D03*
%TO.P,PMOD_OLED1,3,Pin_3*%
%TO.N,GND*%
X66040000Y-30480000D03*
%TO.P,PMOD_OLED1,4,Pin_4*%
X66040000Y-27940000D03*
%TO.P,PMOD_OLED1,5,Pin_5*%
%TO.N,/PMOD_CLK*%
X63500000Y-30480000D03*
%TO.P,PMOD_OLED1,6,Pin_6*%
%TO.N,/VDDC*%
X63500000Y-27940000D03*
%TO.P,PMOD_OLED1,7,Pin_7*%
%TO.N,unconnected-(PMOD_OLED1-Pin_7-Pad7)*%
X60960000Y-30480000D03*
%TO.P,PMOD_OLED1,8,Pin_8*%
%TO.N,/VBAT*%
X60960000Y-27940000D03*
%TO.P,PMOD_OLED1,9,Pin_9*%
%TO.N,/PMOD_SDO*%
X58420000Y-30480000D03*
%TO.P,PMOD_OLED1,10,Pin_10*%
%TO.N,/RES_PMOD*%
X58420000Y-27940000D03*
%TO.P,PMOD_OLED1,11,Pin_11*%
%TO.N,/PMOD_SS*%
X55880000Y-30480000D03*
%TO.P,PMOD_OLED1,12,Pin_12*%
%TO.N,/DC_PMOD*%
X55880000Y-27940000D03*
%TD*%
D13*
%TO.P,SW1,1,1*%
%TO.N,/button1*%
X58751400Y-98232400D03*
%TO.P,SW1,2,2*%
%TO.N,GND*%
X65251400Y-98232400D03*
%TO.P,SW1,3*%
%TO.N,N/C*%
X58751400Y-102732400D03*
%TO.P,SW1,4*%
X65251400Y-102732400D03*
%TD*%
D12*
%TO.P,TP7,1,1*%
%TO.N,Net-(U1-ACBUS8)*%
X83713000Y-42951400D03*
%TD*%
D29*
%TO.P,C1,1*%
%TO.N,3.3*%
X45603400Y-53263800D03*
%TO.P,C1,2*%
%TO.N,GND*%
X44043400Y-53263800D03*
%TD*%
D30*
%TO.P,R2,1*%
%TO.N,Net-(J1-CC2)*%
X37250000Y-28390000D03*
%TO.P,R2,2*%
%TO.N,GND*%
X37250000Y-30030000D03*
%TD*%
%TO.P,R1,1*%
%TO.N,Net-(J1-CC1)*%
X41910000Y-28390000D03*
%TO.P,R1,2*%
%TO.N,GND*%
X41910000Y-30030000D03*
%TD*%
D31*
%TO.P,R13,1*%
%TO.N,+3V3*%
X61221200Y-96189800D03*
%TO.P,R13,2*%
%TO.N,/button1*%
X59581200Y-96189800D03*
%TD*%
D12*
%TO.P,TP18,1,1*%
%TO.N,+2V5*%
X42225200Y-55016400D03*
%TD*%
D16*
%TO.P,C24,1*%
%TO.N,Net-(U1-VCCA)*%
X77871000Y-41851800D03*
%TO.P,C24,2*%
%TO.N,GND*%
X77871000Y-40291800D03*
%TD*%
D32*
%TO.P,R36,1*%
%TO.N,+3V3*%
X67549600Y-69697600D03*
%TO.P,R36,2*%
%TO.N,/SD_IO2*%
X69189600Y-69697600D03*
%TD*%
D14*
%TO.P,J5,1,Pin_1*%
%TO.N,+5V*%
X35433000Y-41071800D03*
D15*
%TO.P,J5,2,Pin_2*%
X35433000Y-43611800D03*
%TD*%
D33*
%TO.P,C40,1*%
%TO.N,+1V2*%
X64312800Y-64929200D03*
%TO.P,C40,2*%
%TO.N,GND*%
X64312800Y-61969200D03*
%TD*%
D14*
%TO.P,J2,1,Pin_1*%
%TO.N,/SCL*%
X49733200Y-60579000D03*
D15*
%TO.P,J2,2,Pin_2*%
%TO.N,/SDA*%
X52273200Y-60579000D03*
%TD*%
D34*
%TO.P,SW7,1,1*%
%TO.N,Net-(C10-Pad1)*%
X41380400Y-34290000D03*
%TO.P,SW7,2,2*%
%TO.N,+5V*%
X43880400Y-34290000D03*
%TO.P,SW7,3,3*%
%TO.N,unconnected-(SW7-Pad3)*%
X46380400Y-34290000D03*
%TD*%
D29*
%TO.P,C33,1*%
%TO.N,/VPLL*%
X64088400Y-49428400D03*
%TO.P,C33,2*%
%TO.N,GND*%
X62528400Y-49428400D03*
%TD*%
D13*
%TO.P,SW4,1,1*%
%TO.N,/button3*%
X77217200Y-98029200D03*
%TO.P,SW4,2,2*%
%TO.N,GND*%
X83717200Y-98029200D03*
%TO.P,SW4,3*%
%TO.N,N/C*%
X77217200Y-102529200D03*
%TO.P,SW4,4*%
X83717200Y-102529200D03*
%TD*%
D35*
%TO.P,U3,1,\u002A1OE*%
%TO.N,GND*%
X80238600Y-60008201D03*
%TO.P,U3,2,1A*%
%TO.N,Net-(U3-1A)*%
X80238600Y-59508200D03*
%TO.P,U3,3,2Y*%
%TO.N,/FT_CLK*%
X80238600Y-59008200D03*
%TO.P,U3,4,GND*%
%TO.N,GND*%
X80238600Y-58508199D03*
%TO.P,U3,5,2A*%
%TO.N,Net-(U3-1A)*%
X77495400Y-58508199D03*
%TO.P,U3,6,1Y*%
%TO.N,/FPGA_CLK*%
X77495400Y-59008200D03*
%TO.P,U3,7,\u002A2OE*%
%TO.N,GND*%
X77495400Y-59508200D03*
%TO.P,U3,8,VCC*%
%TO.N,+3V3*%
X77495400Y-60008201D03*
%TD*%
D20*
%TO.P,C43,1*%
%TO.N,+3V3*%
X41242800Y-61391800D03*
%TO.P,C43,2*%
%TO.N,GND*%
X44202800Y-61391800D03*
%TD*%
D29*
%TO.P,C52,1*%
%TO.N,+3V3*%
X66362800Y-76151801D03*
%TO.P,C52,2*%
%TO.N,GND*%
X64802800Y-76151801D03*
%TD*%
D36*
%TO.P,XTAL1,1,TRI-STATE(STBY)*%
%TO.N,+3V3*%
X73033200Y-60807600D03*
%TO.P,XTAL1,2,GND/CASE*%
%TO.N,GND*%
X75133200Y-60807600D03*
%TO.P,XTAL1,3,OUTPUT*%
%TO.N,Net-(U3-1A)*%
X75133200Y-58470800D03*
%TO.P,XTAL1,4,VDD*%
%TO.N,+3V3*%
X73033200Y-58470800D03*
%TD*%
D37*
%TO.P,L4,1,1*%
%TO.N,3.3*%
X62309200Y-43053000D03*
%TO.P,L4,2,2*%
%TO.N,/VPHY*%
X63889200Y-43053000D03*
%TD*%
D25*
%TO.P,C32,1*%
%TO.N,+3V3*%
X63728600Y-88249601D03*
%TO.P,C32,2*%
%TO.N,GND*%
X63728600Y-89809601D03*
%TD*%
D38*
%TO.P,U12,1,SW*%
%TO.N,Net-(U12-SW)*%
X60028800Y-53570899D03*
%TO.P,U12,2,MODE*%
%TO.N,GND*%
X60028800Y-52920900D03*
%TO.P,U12,3,FB*%
%TO.N,Net-(U12-FB)*%
X60028800Y-52270901D03*
%TO.P,U12,4,EN*%
%TO.N,3.3*%
X57928800Y-52270901D03*
%TO.P,U12,5,VIN*%
X57928800Y-52920900D03*
%TO.P,U12,6,GND*%
%TO.N,GND*%
X57928800Y-53570899D03*
D39*
%TO.P,U12,7,EPAD*%
X58978800Y-52920900D03*
D40*
%TO.P,U12,V*%
%TO.N,N/C*%
X58978800Y-53314600D03*
X58978800Y-52527200D03*
%TD*%
D16*
%TO.P,C56,1*%
%TO.N,Net-(JP1-C)*%
X75057000Y-79010000D03*
%TO.P,C56,2*%
%TO.N,GND*%
X75057000Y-77450000D03*
%TD*%
D32*
%TO.P,R6,1,1*%
%TO.N,GND*%
X34486000Y-37744400D03*
%TO.P,R6,2,2*%
%TO.N,Net-(D2-K)*%
X36126000Y-37744400D03*
%TD*%
%TO.P,R27,1*%
%TO.N,Net-(C5393554-BK)*%
X61841800Y-81943001D03*
%TO.P,R27,2*%
%TO.N,/B_LED*%
X63481800Y-81943001D03*
%TD*%
D41*
%TO.P,U11,1,1*%
%TO.N,+3V3*%
X36855400Y-64973200D03*
%TO.P,U11,2,2*%
%TO.N,3.3*%
X36855400Y-70773200D03*
%TD*%
D14*
%TO.P,J6,1,Pin_1*%
%TO.N,+1V2*%
X58572400Y-72110600D03*
D15*
%TO.P,J6,2,Pin_2*%
X61112400Y-72110600D03*
%TD*%
D28*
%TO.P,C30,1*%
%TO.N,/VPLL*%
X65689000Y-48564800D03*
%TO.P,C30,2*%
%TO.N,GND*%
X67249000Y-48564800D03*
%TD*%
D42*
%TO.P,L6,1,1*%
%TO.N,1.2*%
X57865000Y-56540400D03*
%TO.P,L6,2,2*%
%TO.N,Net-(U12-SW)*%
X60245000Y-56540400D03*
%TD*%
D37*
%TO.P,L2,1,1*%
%TO.N,3.3*%
X62453200Y-47752000D03*
%TO.P,L2,2,2*%
%TO.N,/VPLL*%
X64033200Y-47752000D03*
%TD*%
D12*
%TO.P,TP4,1,1*%
%TO.N,Net-(U1-ADBUS3)*%
X71165400Y-54152800D03*
%TD*%
%TO.P,TP2,1,1*%
%TO.N,Net-(J1-SBU1)*%
X48260000Y-27940000D03*
%TD*%
D29*
%TO.P,C10,1*%
%TO.N,Net-(C10-Pad1)*%
X36416200Y-34696400D03*
%TO.P,C10,2*%
%TO.N,GND*%
X34856200Y-34696400D03*
%TD*%
D30*
%TO.P,R12,1*%
%TO.N,Net-(U12-FB)*%
X64389000Y-52139000D03*
%TO.P,R12,2*%
%TO.N,GND*%
X64389000Y-53779000D03*
%TD*%
D12*
%TO.P,TP5,1,1*%
%TO.N,Net-(U1-ADBUS5)*%
X73705400Y-54152800D03*
%TD*%
D28*
%TO.P,C35,1*%
%TO.N,/VCC_PLL*%
X70543200Y-77599601D03*
%TO.P,C35,2*%
%TO.N,GND*%
X72103200Y-77599601D03*
%TD*%
D32*
%TO.P,R5,1*%
%TO.N,GND*%
X65824200Y-45999400D03*
%TO.P,R5,2*%
%TO.N,Net-(U1-REF)*%
X67464200Y-45999400D03*
%TD*%
D12*
%TO.P,TP19,1,1*%
%TO.N,/cdone*%
X74041000Y-87477600D03*
%TD*%
D11*
%TO.P,R23,1*%
%TO.N,/I2C_SCL*%
X46863000Y-83235800D03*
%TO.P,R23,2*%
%TO.N,+3V3*%
X46863000Y-81595800D03*
%TD*%
%TO.P,R10,1*%
%TO.N,Net-(D3-K)*%
X70459600Y-89549400D03*
%TO.P,R10,2*%
%TO.N,/cdone*%
X70459600Y-87909400D03*
%TD*%
D43*
%TO.P,D6,1,K*%
%TO.N,Net-(D6-K)*%
X70291600Y-93017401D03*
%TO.P,D6,2,A*%
%TO.N,+3V3*%
X72491600Y-93017401D03*
%TD*%
D44*
%TO.P,U6,1,DO*%
%TO.N,Net-(U6-DO)*%
X72791000Y-39344600D03*
%TO.P,U6,2,VSS*%
%TO.N,GND*%
X72791000Y-38394599D03*
%TO.P,U6,3,DI*%
%TO.N,/EE_DAT*%
X72791000Y-37444598D03*
%TO.P,U6,4,CLK*%
%TO.N,/EE_CLK*%
X70200200Y-37444598D03*
%TO.P,U6,5,CS*%
%TO.N,/EE_CS*%
X70200200Y-38394599D03*
%TO.P,U6,6,VCC*%
%TO.N,3.3*%
X70200200Y-39344600D03*
%TD*%
D28*
%TO.P,C29,1*%
%TO.N,/VPHY*%
X65559400Y-43916600D03*
%TO.P,C29,2*%
%TO.N,GND*%
X67119400Y-43916600D03*
%TD*%
D45*
%TO.P,D5,1,K*%
%TO.N,Net-(D5-K)*%
X69265800Y-94401601D03*
%TO.P,D5,2,A*%
%TO.N,+3V3*%
X69265800Y-95341601D03*
%TD*%
D12*
%TO.P,TP9,1,1*%
%TO.N,Net-(U1-ACBUS6)*%
X83713000Y-45491400D03*
%TD*%
%TO.P,TP6,1,1*%
%TO.N,Net-(U1-ACBUS0)*%
X76245400Y-54152800D03*
%TD*%
D24*
%TO.P,D1,1,K*%
%TO.N,Net-(D1-K)*%
X64808200Y-94160401D03*
%TO.P,D1,2,A*%
%TO.N,+3V3*%
X63868200Y-94160401D03*
%TD*%
D12*
%TO.P,TP13,1,1*%
%TO.N,Net-(U1-ACBUS3)*%
X81173000Y-49301400D03*
%TD*%
D25*
%TO.P,C22,1*%
%TO.N,+5V*%
X38912800Y-40266400D03*
%TO.P,C22,2*%
%TO.N,GND*%
X38912800Y-41826400D03*
%TD*%
D16*
%TO.P,C37,1*%
%TO.N,/FT_VCORE*%
X76093000Y-39159400D03*
%TO.P,C37,2*%
%TO.N,GND*%
X76093000Y-37599400D03*
%TD*%
D12*
%TO.P,TP1,1,1*%
%TO.N,Net-(J1-SBU2)*%
X39370000Y-29210000D03*
%TD*%
D28*
%TO.P,C46,1*%
%TO.N,3.3*%
X74652600Y-32029400D03*
%TO.P,C46,2*%
%TO.N,GND*%
X76212600Y-32029400D03*
%TD*%
D32*
%TO.P,R18,1*%
%TO.N,3.3*%
X66789400Y-38912800D03*
%TO.P,R18,2*%
%TO.N,/EE_CS*%
X68429400Y-38912800D03*
%TD*%
D14*
%TO.P,J11,1,Pin_1*%
%TO.N,/IOB_25b_G3*%
X91440000Y-50800000D03*
D15*
%TO.P,J11,2,Pin_2*%
%TO.N,/IOB_23b*%
X91440000Y-53340000D03*
%TO.P,J11,3,Pin_3*%
%TO.N,/IOT_37a*%
X91440000Y-55880000D03*
%TO.P,J11,4,Pin_4*%
%TO.N,/IOT_45a_G1*%
X91440000Y-58420000D03*
%TO.P,J11,5,Pin_5*%
%TO.N,/IOT_44b*%
X91440000Y-60960000D03*
%TO.P,J11,6,Pin_6*%
%TO.N,/IOT_43a*%
X91440000Y-63500000D03*
%TO.P,J11,7,Pin_7*%
%TO.N,/IOT_42b*%
X91440000Y-66040000D03*
%TO.P,J11,8,Pin_8*%
%TO.N,/IOT_36b*%
X91440000Y-68580000D03*
%TO.P,J11,9,Pin_9*%
%TO.N,/IOT_39a*%
X91440000Y-71120000D03*
%TO.P,J11,10,Pin_10*%
%TO.N,/IOT_38b*%
X91440000Y-73660000D03*
%TO.P,J11,11,Pin_11*%
%TO.N,/IOT_41a*%
X91440000Y-76200000D03*
%TO.P,J11,12,Pin_12*%
%TO.N,/DC_PMOD*%
X91440000Y-78740000D03*
%TO.P,J11,13,Pin_13*%
%TO.N,/PMOD_SS*%
X91440000Y-81280000D03*
%TO.P,J11,14,Pin_14*%
%TO.N,/RES_PMOD*%
X91440000Y-83820000D03*
%TO.P,J11,15,Pin_15*%
%TO.N,/PMOD_SDO*%
X91440000Y-86360000D03*
%TO.P,J11,16,Pin_16*%
%TO.N,/VBAT*%
X91440000Y-88900000D03*
%TO.P,J11,17,Pin_17*%
%TO.N,/FPGA_CLK*%
X91440000Y-91440000D03*
%TO.P,J11,18,Pin_18*%
%TO.N,GND*%
X91440000Y-93980000D03*
%TO.P,J11,19,Pin_19*%
%TO.N,+3V3*%
X91440000Y-96520000D03*
%TO.P,J11,20,Pin_20*%
%TO.N,+5V*%
X91440000Y-99060000D03*
%TD*%
D12*
%TO.P,TP10,1,1*%
%TO.N,Net-(U1-ACBUS5)*%
X81173000Y-46761400D03*
%TD*%
D25*
%TO.P,C20,1,1*%
%TO.N,3.3*%
X56286400Y-52128200D03*
%TO.P,C20,2,2*%
%TO.N,GND*%
X56286400Y-53688200D03*
%TD*%
%TO.P,C55,1*%
%TO.N,+3V3*%
X73754000Y-80479201D03*
%TO.P,C55,2*%
%TO.N,GND*%
X73754000Y-82039201D03*
%TD*%
D46*
%TO.P,U8,1,~{CS}*%
%TO.N,/SS*%
X71298400Y-67279600D03*
%TO.P,U8,2,DO\uFF08IO1\uFF09*%
%TO.N,/SDI*%
X71298400Y-68559600D03*
%TO.P,U8,3,IO2*%
%TO.N,/SD_IO2*%
X71298400Y-69819600D03*
%TO.P,U8,4,GND*%
%TO.N,GND*%
X71298400Y-71089600D03*
%TO.P,U8,5,DI\uFF08IO0\uFF09*%
%TO.N,/SDO*%
X78358400Y-71089600D03*
%TO.P,U8,6,CLK*%
%TO.N,/SCK*%
X78358400Y-69819600D03*
%TO.P,U8,7,IO3*%
%TO.N,/SD_IO3*%
X78358400Y-68559600D03*
%TO.P,U8,8,VCC*%
%TO.N,+3V3*%
X78358400Y-67279600D03*
%TD*%
D47*
%TO.P,C19,1,1*%
%TO.N,GND*%
X52153000Y-45567600D03*
%TO.P,C19,2,2*%
%TO.N,+5V*%
X49193000Y-45567600D03*
%TD*%
D33*
%TO.P,C41,1*%
%TO.N,+1V2*%
X66852800Y-64929200D03*
%TO.P,C41,2*%
%TO.N,GND*%
X66852800Y-61969200D03*
%TD*%
D29*
%TO.P,C3,1,1*%
%TO.N,+3V3*%
X58895200Y-78158401D03*
%TO.P,C3,2,2*%
%TO.N,GND*%
X57335200Y-78158401D03*
%TD*%
D32*
%TO.P,R37,1*%
%TO.N,+3V3*%
X67549600Y-67106800D03*
%TO.P,R37,2*%
%TO.N,/SS*%
X69189600Y-67106800D03*
%TD*%
D30*
%TO.P,R11,1*%
%TO.N,/EE_DAT*%
X74645200Y-37610200D03*
%TO.P,R11,2*%
%TO.N,Net-(U6-DO)*%
X74645200Y-39250200D03*
%TD*%
D25*
%TO.P,C50,1*%
%TO.N,+1V2*%
X68072000Y-88122601D03*
%TO.P,C50,2*%
%TO.N,GND*%
X68072000Y-89682601D03*
%TD*%
D48*
%TO.P,JP1,1,A*%
%TO.N,+2V5*%
X77419200Y-77749400D03*
D49*
%TO.P,JP1,2,C*%
%TO.N,Net-(JP1-C)*%
X77419200Y-79019400D03*
%TO.P,JP1,3,B*%
%TO.N,+3V3*%
X77419200Y-80289400D03*
%TD*%
D14*
%TO.P,J4,1,Pin_1*%
%TO.N,GND*%
X43586400Y-87401400D03*
D15*
%TO.P,J4,2,Pin_2*%
%TO.N,/SCL_HOST*%
X43586400Y-89941400D03*
%TO.P,J4,3,Pin_3*%
%TO.N,/SDA_HOST*%
X43586400Y-92481400D03*
%TO.P,J4,4,Pin_4*%
%TO.N,/INT*%
X43586400Y-95021400D03*
%TO.P,J4,5,Pin_5*%
%TO.N,/CE*%
X43586400Y-97561400D03*
%TO.P,J4,6,Pin_6*%
%TO.N,MPPTV*%
X43586400Y-100101400D03*
%TD*%
D31*
%TO.P,R14,1*%
%TO.N,+3V3*%
X73337000Y-95732600D03*
%TO.P,R14,2*%
%TO.N,/button2*%
X71697000Y-95732600D03*
%TD*%
D32*
%TO.P,R20,1*%
%TO.N,3.3*%
X66764000Y-37465000D03*
%TO.P,R20,2*%
%TO.N,/EE_CLK*%
X68404000Y-37465000D03*
%TD*%
D50*
%TO.P,D4,1,K*%
%TO.N,Net-(D4-K)*%
X67259200Y-94261801D03*
%TO.P,D4,2,A*%
%TO.N,+3V3*%
X67259200Y-96141801D03*
%TD*%
D13*
%TO.P,SW3,1,1*%
%TO.N,/creset*%
X59461400Y-91286201D03*
%TO.P,SW3,2,2*%
%TO.N,GND*%
X52961400Y-91286201D03*
%TO.P,SW3,3*%
%TO.N,N/C*%
X59461400Y-86786201D03*
%TO.P,SW3,4*%
X52961400Y-86786201D03*
%TD*%
D25*
%TO.P,C49,1*%
%TO.N,+1V2*%
X66598800Y-88206201D03*
%TO.P,C49,2*%
%TO.N,GND*%
X66598800Y-89766201D03*
%TD*%
D11*
%TO.P,R29,1*%
%TO.N,Net-(D1-K)*%
X65201800Y-92796001D03*
%TO.P,R29,2*%
%TO.N,/GLED*%
X65201800Y-91156001D03*
%TD*%
D29*
%TO.P,C51,1*%
%TO.N,+3V3*%
X66362800Y-77523401D03*
%TO.P,C51,2*%
%TO.N,GND*%
X64802800Y-77523401D03*
%TD*%
D28*
%TO.P,C28,1*%
%TO.N,3.3*%
X74627200Y-33375600D03*
%TO.P,C28,2*%
%TO.N,GND*%
X76187200Y-33375600D03*
%TD*%
D32*
%TO.P,R25,1*%
%TO.N,Net-(C5393554-GK)*%
X61867200Y-80596801D03*
%TO.P,R25,2*%
%TO.N,/G_LED*%
X63507200Y-80596801D03*
%TD*%
D31*
%TO.P,R26,1*%
%TO.N,+3V3*%
X82201600Y-69977000D03*
%TO.P,R26,2*%
%TO.N,/SCK*%
X80561600Y-69977000D03*
%TD*%
D12*
%TO.P,TP16,1,1*%
%TO.N,Net-(U2-FB)*%
X51689000Y-37668200D03*
%TD*%
D14*
%TO.P,PMOD_TMP2,1,Pin_1*%
%TO.N,+3V3*%
X91440000Y-30480000D03*
D15*
%TO.P,PMOD_TMP2,2,Pin_2*%
X91440000Y-27940000D03*
%TO.P,PMOD_TMP2,3,Pin_3*%
%TO.N,GND*%
X88900000Y-30480000D03*
%TO.P,PMOD_TMP2,4,Pin_4*%
X88900000Y-27940000D03*
%TO.P,PMOD_TMP2,5,Pin_5*%
%TO.N,/I2C_SDA*%
X86360000Y-30480000D03*
%TO.P,PMOD_TMP2,6,Pin_6*%
X86360000Y-27940000D03*
%TO.P,PMOD_TMP2,7,Pin_7*%
%TO.N,/I2C_SCL*%
X83820000Y-30480000D03*
%TO.P,PMOD_TMP2,8,Pin_8*%
X83820000Y-27940000D03*
%TD*%
D32*
%TO.P,R21,1*%
%TO.N,/VCC_PLL*%
X70503200Y-74526201D03*
%TO.P,R21,2*%
%TO.N,+1V2*%
X72143200Y-74526201D03*
%TD*%
D30*
%TO.P,R19,1*%
%TO.N,/I2C_SDA*%
X46851400Y-78595000D03*
%TO.P,R19,2*%
%TO.N,+3V3*%
X46851400Y-80235000D03*
%TD*%
D51*
%TO.P,D13,1,K*%
%TO.N,+5V*%
X41790400Y-41097200D03*
%TO.P,D13,2,A*%
%TO.N,GND*%
X45890400Y-41097200D03*
%TD*%
D12*
%TO.P,TP17,1,1*%
%TO.N,1.2*%
X55499000Y-56870600D03*
%TD*%
D14*
%TO.P,J3,1,Pin_1*%
%TO.N,+3V3*%
X35509200Y-51612800D03*
D15*
%TO.P,J3,2,Pin_2*%
X35509200Y-54152800D03*
%TD*%
D31*
%TO.P,R32,1*%
%TO.N,+3V3*%
X82176200Y-68580000D03*
%TO.P,R32,2*%
%TO.N,/SD_IO3*%
X80536200Y-68580000D03*
%TD*%
D41*
%TO.P,U10,1,1*%
%TO.N,+1V2*%
X59778900Y-68051000D03*
%TO.P,U10,2,2*%
%TO.N,1.2*%
X59778900Y-62251000D03*
%TD*%
D28*
%TO.P,C25,1*%
%TO.N,3.3*%
X74652600Y-34747200D03*
%TO.P,C25,2*%
%TO.N,GND*%
X76212600Y-34747200D03*
%TD*%
D23*
%TO.P,U5,1,A1*%
%TO.N,GND*%
X45491400Y-65922401D03*
%TO.P,U5,2,A0*%
%TO.N,+3V3*%
X45491400Y-65422399D03*
%TO.P,U5,3,ALERT*%
%TO.N,unconnected-(U5-ALERT-Pad3)*%
X45491400Y-64922400D03*
%TO.P,U5,4,SDA*%
%TO.N,/SDA*%
X45491400Y-64422401D03*
%TO.P,U5,5,SCL*%
%TO.N,/SCL*%
X45491400Y-63922399D03*
%TO.P,U5,6,VS*%
%TO.N,+3V3*%
X41300400Y-63922399D03*
%TO.P,U5,7,GND*%
%TO.N,GND*%
X41300400Y-64422401D03*
%TO.P,U5,8,VBUS*%
%TO.N,+3V3*%
X41300400Y-64922400D03*
%TO.P,U5,9,VIN-*%
X41300400Y-65422399D03*
%TO.P,U5,10,VIN+*%
%TO.N,3.3*%
X41300400Y-65922401D03*
%TD*%
D16*
%TO.P,C57,1*%
%TO.N,Net-(JP1-C)*%
X73736200Y-79012000D03*
%TO.P,C57,2*%
%TO.N,GND*%
X73736200Y-77452000D03*
%TD*%
D28*
%TO.P,C21,1,1*%
%TO.N,1.2*%
X62821600Y-55143400D03*
%TO.P,C21,2,2*%
%TO.N,GND*%
X64381600Y-55143400D03*
%TD*%
D52*
%TO.P,R9,1*%
%TO.N,/OLED*%
X69164200Y-90891801D03*
%TO.P,R9,2*%
%TO.N,Net-(D6-K)*%
X69164200Y-91891801D03*
%TD*%
D29*
%TO.P,C31,1*%
%TO.N,/VPHY*%
X63930000Y-44729400D03*
%TO.P,C31,2*%
%TO.N,GND*%
X62370000Y-44729400D03*
%TD*%
D52*
%TO.P,R28,1*%
%TO.N,/RLED*%
X66548000Y-91044201D03*
%TO.P,R28,2*%
%TO.N,Net-(D4-K)*%
X66548000Y-92044201D03*
%TD*%
D28*
%TO.P,C2,1*%
%TO.N,+2V5*%
X44086800Y-56438800D03*
%TO.P,C2,2*%
%TO.N,GND*%
X45646800Y-56438800D03*
%TD*%
D20*
%TO.P,C45,1*%
%TO.N,+3V3*%
X42995400Y-58851800D03*
%TO.P,C45,2*%
%TO.N,GND*%
X45955400Y-58851800D03*
%TD*%
D31*
%TO.P,R15,1*%
%TO.N,3.3*%
X76328800Y-40538400D03*
%TO.P,R15,2*%
%TO.N,Net-(U6-DO)*%
X74688800Y-40538400D03*
%TD*%
%TO.P,R3,1*%
%TO.N,+3V3*%
X78721800Y-95758000D03*
%TO.P,R3,2*%
%TO.N,/button3*%
X77081800Y-95758000D03*
%TD*%
D12*
%TO.P,TP12,1,1*%
%TO.N,Net-(U1-ACBUS9)*%
X81173000Y-41681400D03*
%TD*%
D29*
%TO.P,C38,1*%
%TO.N,+3V3*%
X39337200Y-62712600D03*
%TO.P,C38,2*%
%TO.N,GND*%
X37777200Y-62712600D03*
%TD*%
D16*
%TO.P,C47,1*%
%TO.N,+1V2*%
X67767200Y-77592201D03*
%TO.P,C47,2*%
%TO.N,GND*%
X67767200Y-76032201D03*
%TD*%
D11*
%TO.P,R16,1*%
%TO.N,Net-(D5-K)*%
X67995800Y-92592801D03*
%TO.P,R16,2*%
%TO.N,/BLED*%
X67995800Y-90952801D03*
%TD*%
D24*
%TO.P,D2,1,K*%
%TO.N,Net-(D2-K)*%
X38112600Y-37744400D03*
%TO.P,D2,2,A*%
%TO.N,+5V*%
X39052600Y-37744400D03*
%TD*%
D28*
%TO.P,C27,1*%
%TO.N,3.3*%
X74652600Y-36144200D03*
%TO.P,C27,2*%
%TO.N,GND*%
X76212600Y-36144200D03*
%TD*%
D43*
%TO.P,C5393554,1,A*%
%TO.N,+3V3*%
X59057800Y-79928601D03*
%TO.P,C5393554,2,RK*%
%TO.N,Net-(C5393554-RK)*%
X59057800Y-82928601D03*
D53*
%TO.P,C5393554,3,BK*%
%TO.N,Net-(C5393554-BK)*%
X58597800Y-81828601D03*
%TO.P,C5393554,4,GK*%
%TO.N,Net-(C5393554-GK)*%
X58597800Y-81028601D03*
%TD*%
D11*
%TO.P,R17,1*%
%TO.N,1.2*%
X61569600Y-53728200D03*
%TO.P,R17,2*%
%TO.N,Net-(U12-FB)*%
X61569600Y-52088200D03*
%TD*%
D37*
%TO.P,L3,1,1*%
%TO.N,Net-(J1-VBUS-PadA4)*%
X34920000Y-33020000D03*
%TO.P,L3,2,2*%
%TO.N,Net-(C10-Pad1)*%
X36500000Y-33020000D03*
%TD*%
D47*
%TO.P,C44,1*%
%TO.N,+3V3*%
X41104000Y-58826400D03*
%TO.P,C44,2*%
%TO.N,GND*%
X38144000Y-58826400D03*
%TD*%
D25*
%TO.P,C53,1*%
%TO.N,+3V3*%
X75074800Y-80461201D03*
%TO.P,C53,2*%
%TO.N,GND*%
X75074800Y-82021201D03*
%TD*%
D34*
%TO.P,SW6,1,1*%
%TO.N,MPPTV*%
X56790600Y-41910000D03*
%TO.P,SW6,2,2*%
%TO.N,3.3*%
X54290600Y-41910000D03*
%TO.P,SW6,3,3*%
%TO.N,Net-(U2-FB)*%
X51790600Y-41910000D03*
%TD*%
D12*
%TO.P,TP11,1,1*%
%TO.N,Net-(U1-ACBUS4)*%
X83713000Y-48031400D03*
%TD*%
D28*
%TO.P,C6,1*%
%TO.N,+3V3*%
X73245000Y-62611000D03*
%TO.P,C6,2*%
%TO.N,GND*%
X74805000Y-62611000D03*
%TD*%
D54*
%TO.P,U7,1,VCCIO_2*%
%TO.N,+3V3*%
X66058600Y-86464201D03*
%TO.P,U7,2,IOB_6a*%
%TO.N,/GLED*%
X66558599Y-86464201D03*
%TO.P,U7,3,IOB_9b*%
%TO.N,/RLED*%
X67058601Y-86464201D03*
%TO.P,U7,4,IOB_8a*%
%TO.N,/BLED*%
X67558600Y-86464201D03*
%TO.P,U7,5,VCC*%
%TO.N,+1V2*%
X68058599Y-86464201D03*
%TO.P,U7,6,IOB_13b*%
%TO.N,/OLED*%
X68558600Y-86464201D03*
%TO.P,U7,7,CDONE*%
%TO.N,/cdone*%
X69058600Y-86464201D03*
%TO.P,U7,8,creset_b*%
%TO.N,/creset*%
X69558601Y-86464201D03*
%TO.P,U7,9,IOB_16a*%
%TO.N,/I2C_SCL*%
X70058600Y-86464201D03*
%TO.P,U7,10,IOB_18a*%
%TO.N,/I2C_SDA*%
X70558599Y-86464201D03*
%TO.P,U7,11,IOB_20a*%
%TO.N,/button1*%
X71058601Y-86464201D03*
%TO.P,U7,12,IOB_22a*%
%TO.N,/button2*%
X71558600Y-86464201D03*
D55*
%TO.P,U7,13,IOB_24a*%
%TO.N,/button3*%
X72237600Y-85785201D03*
%TO.P,U7,14,IOB_32a_SPI_SO*%
%TO.N,/SDO*%
X72237600Y-85285202D03*
%TO.P,U7,15,IOB_34a_SPI_SCK*%
%TO.N,/SCK*%
X72237600Y-84785200D03*
%TO.P,U7,16,IOB_35b_SPI_SS*%
%TO.N,/SS*%
X72237600Y-84285201D03*
%TO.P,U7,17,IOB_33b_SPI_SI*%
%TO.N,/SDI*%
X72237600Y-83785202D03*
%TO.P,U7,18,IOB_31b*%
%TO.N,/SD_IO2*%
X72237600Y-83285201D03*
%TO.P,U7,19,IOB_29b*%
%TO.N,/SD_IO3*%
X72237600Y-82785201D03*
%TO.P,U7,20,IOB_25b_G3*%
%TO.N,/IOB_25b_G3*%
X72237600Y-82285200D03*
%TO.P,U7,21,IOB_23b*%
%TO.N,/IOB_23b*%
X72237600Y-81785201D03*
%TO.P,U7,22,SPI_Vccio1*%
%TO.N,+3V3*%
X72237600Y-81285202D03*
%TO.P,U7,23,IOT_37a*%
%TO.N,/IOT_37a*%
X72237600Y-80785200D03*
%TO.P,U7,24,VPP_2V5*%
%TO.N,Net-(JP1-C)*%
X72237600Y-80285201D03*
D54*
%TO.P,U7,25,IOT_36b*%
%TO.N,/IOT_36b*%
X71558600Y-79606201D03*
%TO.P,U7,26,IOT_39a*%
%TO.N,/IOT_39a*%
X71058601Y-79606201D03*
%TO.P,U7,27,IOT_38b*%
%TO.N,/IOT_38b*%
X70558599Y-79606201D03*
%TO.P,U7,28,IOT_41a*%
%TO.N,/IOT_41a*%
X70058600Y-79606201D03*
%TO.P,U7,29,VCCPLL*%
%TO.N,/VCC_PLL*%
X69558601Y-79606201D03*
%TO.P,U7,30,VCC*%
%TO.N,+1V2*%
X69058600Y-79606201D03*
%TO.P,U7,31,IOT_42b*%
%TO.N,/IOT_42b*%
X68558600Y-79606201D03*
%TO.P,U7,32,IOT_43a*%
%TO.N,/IOT_43a*%
X68058599Y-79606201D03*
%TO.P,U7,33,VCCIO_0*%
%TO.N,+3V3*%
X67558600Y-79606201D03*
%TO.P,U7,34,IOT_44b*%
%TO.N,/IOT_44b*%
X67058601Y-79606201D03*
%TO.P,U7,35,IOT_46b_G0*%
%TO.N,/FPGA_CLK*%
X66558599Y-79606201D03*
%TO.P,U7,36,IOT_48b*%
%TO.N,/VDDC*%
X66058600Y-79606201D03*
D55*
%TO.P,U7,37,IOT_45a_G1*%
%TO.N,/IOT_45a_G1*%
X65379600Y-80285201D03*
%TO.P,U7,38,IOT_50b*%
%TO.N,/VBAT*%
X65379600Y-80785200D03*
%TO.P,U7,39,RGB0*%
%TO.N,/G_LED*%
X65379600Y-81285202D03*
%TO.P,U7,40,RGB1*%
%TO.N,/B_LED*%
X65379600Y-81785201D03*
%TO.P,U7,41,RGB2*%
%TO.N,/R_LED*%
X65379600Y-82285200D03*
%TO.P,U7,42,IOT_51a*%
%TO.N,/RES_PMOD*%
X65379600Y-82785201D03*
%TO.P,U7,43,IOT_49a*%
%TO.N,/DC_PMOD*%
X65379600Y-83285201D03*
%TO.P,U7,44,IOB_3b_G6*%
%TO.N,/PMOD_CLK*%
X65379600Y-83785202D03*
%TO.P,U7,45,IOB_5b*%
%TO.N,/PMOD_SDO*%
X65379600Y-84285201D03*
%TO.P,U7,46,IOB_0a*%
%TO.N,/PMOD_SS*%
X65379600Y-84785200D03*
%TO.P,U7,47,IOB_2a*%
%TO.N,/SCL*%
X65379600Y-85285202D03*
%TO.P,U7,48,IOB_4a*%
%TO.N,/SDA*%
X65379600Y-85785201D03*
D56*
%TO.P,U7,49,49*%
%TO.N,GND*%
X68808600Y-83035201D03*
%TD*%
D33*
%TO.P,C42,1*%
%TO.N,+1V2*%
X69367400Y-64980000D03*
%TO.P,C42,2*%
%TO.N,GND*%
X69367400Y-62020000D03*
%TD*%
D57*
%TO.P,J1,*%
%TO.N,*%
X43320032Y-21789300D03*
D58*
X43320002Y-25939300D03*
X34679998Y-25939300D03*
D57*
X34679968Y-21789300D03*
D59*
%TO.P,J1,A1,GND*%
%TO.N,GND*%
X42360293Y-26530300D03*
%TO.P,J1,A4,VBUS*%
%TO.N,Net-(J1-VBUS-PadA4)*%
X41555367Y-26530300D03*
D60*
%TO.P,J1,A5,CC1*%
%TO.N,Net-(J1-CC1)*%
X40250315Y-26530300D03*
%TO.P,J1,A6,DP1*%
%TO.N,/D_P*%
X39250063Y-26530300D03*
%TO.P,J1,A7,DN1*%
%TO.N,/D_M*%
X38749937Y-26530300D03*
%TO.P,J1,A8,SBU1*%
%TO.N,Net-(J1-SBU1)*%
X40750441Y-26530300D03*
D59*
%TO.P,J1,A9,VBUS*%
%TO.N,Net-(J1-VBUS-PadA4)*%
X36444633Y-26530300D03*
%TO.P,J1,A12,GND*%
%TO.N,GND*%
X35639707Y-26530300D03*
%TO.P,J1,B1,GND*%
X35944507Y-26530300D03*
%TO.P,J1,B4,VBUS*%
%TO.N,Net-(J1-VBUS-PadA4)*%
X36749433Y-26530300D03*
D60*
%TO.P,J1,B5,CC2*%
%TO.N,Net-(J1-CC2)*%
X37249559Y-26530300D03*
%TO.P,J1,B6,DP2*%
%TO.N,/D_P*%
X38249811Y-26530300D03*
%TO.P,J1,B7,DN2*%
%TO.N,/D_M*%
X39750189Y-26530300D03*
%TO.P,J1,B8,SBU2*%
%TO.N,Net-(J1-SBU2)*%
X37749685Y-26530300D03*
D59*
%TO.P,J1,B9,VBUS*%
%TO.N,Net-(J1-VBUS-PadA4)*%
X41250567Y-26530300D03*
%TO.P,J1,B12,GND*%
%TO.N,GND*%
X42055493Y-26530300D03*
%TD*%
D12*
%TO.P,TP3,1,1*%
%TO.N,Net-(J1-VBUS-PadA4)*%
X30480000Y-27940000D03*
%TD*%
M02*
