%TF.GenerationSoftware,KiCad,Pcbnew,9.0.6*%
%TF.CreationDate,2026-03-26T21:28:36+02:00*%
%TF.ProjectId,First_try,46697273-745f-4747-9279-2e6b69636164,rev?*%
%TF.SameCoordinates,Original*%
%TF.FileFunction,Copper,L4,Bot*%
%TF.FilePolarity,Positive*%
%FSLAX46Y46*%
G04 Gerber Fmt 4.6, Leading zero omitted, Abs format (unit mm)*
G04 Created by KiCad (PCBNEW 9.0.6) date 2026-03-26 21:28:36*
%MOMM*%
%LPD*%
G01*
G04 APERTURE LIST*
%TA.AperFunction,ComponentPad*%
%ADD10C,1.800000*%
%TD*%
%TA.AperFunction,ComponentPad*%
%ADD11R,1.700000X1.700000*%
%TD*%
%TA.AperFunction,ComponentPad*%
%ADD12C,1.700000*%
%TD*%
%TA.AperFunction,ComponentPad*%
%ADD13C,1.397000*%
%TD*%
%TA.AperFunction,ComponentPad*%
%ADD14C,0.508000*%
%TD*%
%TA.AperFunction,ComponentPad*%
%ADD15R,1.000000X1.000000*%
%TD*%
%TA.AperFunction,ComponentPad*%
%ADD16C,1.000000*%
%TD*%
%TA.AperFunction,WasherPad*%
%ADD17O,1.117600X1.905000*%
%TD*%
%TA.AperFunction,WasherPad*%
%ADD18O,1.117600X2.209800*%
%TD*%
G04 APERTURE END LIST*
D10*
%TO.P,SW2,1,1*%
%TO.N,/button2*%
X67946200Y-98156200D03*
%TO.P,SW2,2,2*%
%TO.N,GND*%
X74446200Y-98156200D03*
%TO.P,SW2,3*%
%TO.N,N/C*%
X67946200Y-102656200D03*
%TO.P,SW2,4*%
X74446200Y-102656200D03*
%TD*%
D11*
%TO.P,J7,1,Pin_1*%
%TO.N,GND*%
X83972400Y-59867800D03*
D12*
%TO.P,J7,2,Pin_2*%
X83972400Y-62407800D03*
%TD*%
D11*
%TO.P,J9,1,Pin_1*%
%TO.N,+1V2*%
X30480000Y-53340000D03*
D12*
%TO.P,J9,2,Pin_2*%
%TO.N,/creset*%
X30480000Y-55880000D03*
%TO.P,J9,3,Pin_3*%
%TO.N,/cdone*%
X30480000Y-58420000D03*
%TO.P,J9,4,Pin_4*%
%TO.N,/R_LED*%
X30480000Y-60960000D03*
%TO.P,J9,5,Pin_5*%
%TO.N,/B_LED*%
X30480000Y-63500000D03*
%TO.P,J9,6,Pin_6*%
%TO.N,/G_LED*%
X30480000Y-66040000D03*
%TO.P,J9,7,Pin_7*%
%TO.N,+5V*%
X30480000Y-68580000D03*
%TO.P,J9,8,Pin_8*%
%TO.N,+3V3*%
X30480000Y-71120000D03*
%TO.P,J9,9,Pin_9*%
%TO.N,GND*%
X30480000Y-73660000D03*
%TO.P,J9,10,Pin_10*%
%TO.N,/button1*%
X30480000Y-76200000D03*
%TO.P,J9,11,Pin_11*%
%TO.N,/button2*%
X30480000Y-78740000D03*
%TO.P,J9,12,Pin_12*%
%TO.N,/button3*%
X30480000Y-81280000D03*
%TO.P,J9,13,Pin_13*%
%TO.N,/SDO*%
X30480000Y-83820000D03*
%TO.P,J9,14,Pin_14*%
%TO.N,/SDI*%
X30480000Y-86360000D03*
%TO.P,J9,15,Pin_15*%
%TO.N,/SCK*%
X30480000Y-88900000D03*
%TO.P,J9,16,Pin_16*%
%TO.N,/SS*%
X30480000Y-91440000D03*
%TO.P,J9,17,Pin_17*%
%TO.N,/OLED*%
X30480000Y-93980000D03*
%TO.P,J9,18,Pin_18*%
%TO.N,/BLED*%
X30480000Y-96520000D03*
%TO.P,J9,19,Pin_19*%
%TO.N,/RLED*%
X30480000Y-99060000D03*
%TO.P,J9,20,Pin_20*%
%TO.N,/GLED*%
X30480000Y-101600000D03*
%TD*%
D11*
%TO.P,PMOD_OLED1,1,Pin_1*%
%TO.N,+3V3*%
X68580000Y-30480000D03*
D12*
%TO.P,PMOD_OLED1,2,Pin_2*%
X68580000Y-27940000D03*
%TO.P,PMOD_OLED1,3,Pin_3*%
%TO.N,GND*%
X66040000Y-30480000D03*
%TO.P,PMOD_OLED1,4,Pin_4*%
X66040000Y-27940000D03*
%TO.P,PMOD_OLED1,5,Pin_5*%
%TO.N,/PMOD_CLK*%
X63500000Y-30480000D03*
%TO.P,PMOD_OLED1,6,Pin_6*%
%TO.N,/VDDC*%
X63500000Y-27940000D03*
%TO.P,PMOD_OLED1,7,Pin_7*%
%TO.N,unconnected-(PMOD_OLED1-Pin_7-Pad7)*%
X60960000Y-30480000D03*
%TO.P,PMOD_OLED1,8,Pin_8*%
%TO.N,/VBAT*%
X60960000Y-27940000D03*
%TO.P,PMOD_OLED1,9,Pin_9*%
%TO.N,/PMOD_SDO*%
X58420000Y-30480000D03*
%TO.P,PMOD_OLED1,10,Pin_10*%
%TO.N,/RES_PMOD*%
X58420000Y-27940000D03*
%TO.P,PMOD_OLED1,11,Pin_11*%
%TO.N,/PMOD_SS*%
X55880000Y-30480000D03*
%TO.P,PMOD_OLED1,12,Pin_12*%
%TO.N,/DC_PMOD*%
X55880000Y-27940000D03*
%TD*%
D10*
%TO.P,SW1,1,1*%
%TO.N,/button1*%
X58751400Y-98232400D03*
%TO.P,SW1,2,2*%
%TO.N,GND*%
X65251400Y-98232400D03*
%TO.P,SW1,3*%
%TO.N,N/C*%
X58751400Y-102732400D03*
%TO.P,SW1,4*%
X65251400Y-102732400D03*
%TD*%
D11*
%TO.P,J5,1,Pin_1*%
%TO.N,+5V*%
X35433000Y-41071800D03*
D12*
%TO.P,J5,2,Pin_2*%
X35433000Y-43611800D03*
%TD*%
D11*
%TO.P,J2,1,Pin_1*%
%TO.N,/SCL*%
X49733200Y-60579000D03*
D12*
%TO.P,J2,2,Pin_2*%
%TO.N,/SDA*%
X52273200Y-60579000D03*
%TD*%
D13*
%TO.P,SW7,1,1*%
%TO.N,Net-(C10-Pad1)*%
X41380400Y-34290000D03*
%TO.P,SW7,2,2*%
%TO.N,+5V*%
X43880400Y-34290000D03*
%TO.P,SW7,3,3*%
%TO.N,unconnected-(SW7-Pad3)*%
X46380400Y-34290000D03*
%TD*%
D10*
%TO.P,SW4,1,1*%
%TO.N,/button3*%
X77217200Y-98029200D03*
%TO.P,SW4,2,2*%
%TO.N,GND*%
X83717200Y-98029200D03*
%TO.P,SW4,3*%
%TO.N,N/C*%
X77217200Y-102529200D03*
%TO.P,SW4,4*%
X83717200Y-102529200D03*
%TD*%
D14*
%TO.P,U12,V*%
%TO.N,N/C*%
X58978800Y-53314600D03*
X58978800Y-52527200D03*
%TD*%
D11*
%TO.P,J6,1,Pin_1*%
%TO.N,+1V2*%
X58572400Y-72110600D03*
D12*
%TO.P,J6,2,Pin_2*%
X61112400Y-72110600D03*
%TD*%
D11*
%TO.P,J11,1,Pin_1*%
%TO.N,/IOB_25b_G3*%
X91440000Y-50800000D03*
D12*
%TO.P,J11,2,Pin_2*%
%TO.N,/IOB_23b*%
X91440000Y-53340000D03*
%TO.P,J11,3,Pin_3*%
%TO.N,/IOT_37a*%
X91440000Y-55880000D03*
%TO.P,J11,4,Pin_4*%
%TO.N,/IOT_45a_G1*%
X91440000Y-58420000D03*
%TO.P,J11,5,Pin_5*%
%TO.N,/IOT_44b*%
X91440000Y-60960000D03*
%TO.P,J11,6,Pin_6*%
%TO.N,/IOT_43a*%
X91440000Y-63500000D03*
%TO.P,J11,7,Pin_7*%
%TO.N,/IOT_42b*%
X91440000Y-66040000D03*
%TO.P,J11,8,Pin_8*%
%TO.N,/IOT_36b*%
X91440000Y-68580000D03*
%TO.P,J11,9,Pin_9*%
%TO.N,/IOT_39a*%
X91440000Y-71120000D03*
%TO.P,J11,10,Pin_10*%
%TO.N,/IOT_38b*%
X91440000Y-73660000D03*
%TO.P,J11,11,Pin_11*%
%TO.N,/IOT_41a*%
X91440000Y-76200000D03*
%TO.P,J11,12,Pin_12*%
%TO.N,/DC_PMOD*%
X91440000Y-78740000D03*
%TO.P,J11,13,Pin_13*%
%TO.N,/PMOD_SS*%
X91440000Y-81280000D03*
%TO.P,J11,14,Pin_14*%
%TO.N,/RES_PMOD*%
X91440000Y-83820000D03*
%TO.P,J11,15,Pin_15*%
%TO.N,/PMOD_SDO*%
X91440000Y-86360000D03*
%TO.P,J11,16,Pin_16*%
%TO.N,/VBAT*%
X91440000Y-88900000D03*
%TO.P,J11,17,Pin_17*%
%TO.N,/FPGA_CLK*%
X91440000Y-91440000D03*
%TO.P,J11,18,Pin_18*%
%TO.N,GND*%
X91440000Y-93980000D03*
%TO.P,J11,19,Pin_19*%
%TO.N,+3V3*%
X91440000Y-96520000D03*
%TO.P,J11,20,Pin_20*%
%TO.N,+5V*%
X91440000Y-99060000D03*
%TD*%
D15*
%TO.P,JP1,1,A*%
%TO.N,+2V5*%
X77419200Y-77749400D03*
D16*
%TO.P,JP1,2,C*%
%TO.N,Net-(JP1-C)*%
X77419200Y-79019400D03*
%TO.P,JP1,3,B*%
%TO.N,+3V3*%
X77419200Y-80289400D03*
%TD*%
D11*
%TO.P,J4,1,Pin_1*%
%TO.N,GND*%
X43586400Y-87401400D03*
D12*
%TO.P,J4,2,Pin_2*%
%TO.N,/SCL_HOST*%
X43586400Y-89941400D03*
%TO.P,J4,3,Pin_3*%
%TO.N,/SDA_HOST*%
X43586400Y-92481400D03*
%TO.P,J4,4,Pin_4*%
%TO.N,/INT*%
X43586400Y-95021400D03*
%TO.P,J4,5,Pin_5*%
%TO.N,/CE*%
X43586400Y-97561400D03*
%TO.P,J4,6,Pin_6*%
%TO.N,MPPTV*%
X43586400Y-100101400D03*
%TD*%
D10*
%TO.P,SW3,1,1*%
%TO.N,/creset*%
X59461400Y-91286201D03*
%TO.P,SW3,2,2*%
%TO.N,GND*%
X52961400Y-91286201D03*
%TO.P,SW3,3*%
%TO.N,N/C*%
X59461400Y-86786201D03*
%TO.P,SW3,4*%
X52961400Y-86786201D03*
%TD*%
D11*
%TO.P,PMOD_TMP2,1,Pin_1*%
%TO.N,+3V3*%
X91440000Y-30480000D03*
D12*
%TO.P,PMOD_TMP2,2,Pin_2*%
X91440000Y-27940000D03*
%TO.P,PMOD_TMP2,3,Pin_3*%
%TO.N,GND*%
X88900000Y-30480000D03*
%TO.P,PMOD_TMP2,4,Pin_4*%
X88900000Y-27940000D03*
%TO.P,PMOD_TMP2,5,Pin_5*%
%TO.N,/I2C_SDA*%
X86360000Y-30480000D03*
%TO.P,PMOD_TMP2,6,Pin_6*%
X86360000Y-27940000D03*
%TO.P,PMOD_TMP2,7,Pin_7*%
%TO.N,/I2C_SCL*%
X83820000Y-30480000D03*
%TO.P,PMOD_TMP2,8,Pin_8*%
X83820000Y-27940000D03*
%TD*%
D11*
%TO.P,J3,1,Pin_1*%
%TO.N,+3V3*%
X35509200Y-51612800D03*
D12*
%TO.P,J3,2,Pin_2*%
X35509200Y-54152800D03*
%TD*%
D13*
%TO.P,SW6,1,1*%
%TO.N,MPPTV*%
X56790600Y-41910000D03*
%TO.P,SW6,2,2*%
%TO.N,3.3*%
X54290600Y-41910000D03*
%TO.P,SW6,3,3*%
%TO.N,Net-(U2-FB)*%
X51790600Y-41910000D03*
%TD*%
D17*
%TO.P,J1,*%
%TO.N,*%
X43320032Y-21789300D03*
D18*
X43320002Y-25939300D03*
X34679998Y-25939300D03*
D17*
X34679968Y-21789300D03*
%TD*%
M02*
