%TF.GenerationSoftware,KiCad,Pcbnew,9.0.6*%
%TF.CreationDate,2026-03-26T21:28:36+02:00*%
%TF.ProjectId,First_try,46697273-745f-4747-9279-2e6b69636164,rev?*%
%TF.SameCoordinates,Original*%
%TF.FileFunction,Legend,Top*%
%TF.FilePolarity,Positive*%
%FSLAX46Y46*%
G04 Gerber Fmt 4.6, Leading zero omitted, Abs format (unit mm)*
G04 Created by KiCad (PCBNEW 9.0.6) date 2026-03-26 21:28:36*
%MOMM*%
%LPD*%
G01*
G04 APERTURE LIST*
%ADD10C,0.150000*%
%ADD11C,0.120000*%
%ADD12C,0.250000*%
%ADD13C,0.060000*%
%ADD14C,0.152400*%
%ADD15C,0.000000*%
%ADD16C,0.300000*%
%ADD17C,0.025400*%
%ADD18C,0.508000*%
G04 APERTURE END LIST*
D10*
X81974905Y-48578219D02*
X82546333Y-48578219D01*
X82260619Y-49578219D02*
X82260619Y-48578219D01*
X82879667Y-49578219D02*
X82879667Y-48578219D01*
X82879667Y-48578219D02*
X83260619Y-48578219D01*
X83260619Y-48578219D02*
X83355857Y-48625838D01*
X83355857Y-48625838D02*
X83403476Y-48673457D01*
X83403476Y-48673457D02*
X83451095Y-48768695D01*
X83451095Y-48768695D02*
X83451095Y-48911552D01*
X83451095Y-48911552D02*
X83403476Y-49006790D01*
X83403476Y-49006790D02*
X83355857Y-49054409D01*
X83355857Y-49054409D02*
X83260619Y-49102028D01*
X83260619Y-49102028D02*
X82879667Y-49102028D01*
X84403476Y-49578219D02*
X83832048Y-49578219D01*
X84117762Y-49578219D02*
X84117762Y-48578219D01*
X84117762Y-48578219D02*
X84022524Y-48721076D01*
X84022524Y-48721076D02*
X83927286Y-48816314D01*
X83927286Y-48816314D02*
X83832048Y-48863933D01*
X85260619Y-48911552D02*
X85260619Y-49578219D01*
X85022524Y-48530600D02*
X84784429Y-49244885D01*
X84784429Y-49244885D02*
X85403476Y-49244885D01*
X69862867Y-95313400D02*
X70005724Y-95361019D01*
X70005724Y-95361019D02*
X70243819Y-95361019D01*
X70243819Y-95361019D02*
X70339057Y-95313400D01*
X70339057Y-95313400D02*
X70386676Y-95265780D01*
X70386676Y-95265780D02*
X70434295Y-95170542D01*
X70434295Y-95170542D02*
X70434295Y-95075304D01*
X70434295Y-95075304D02*
X70386676Y-94980066D01*
X70386676Y-94980066D02*
X70339057Y-94932447D01*
X70339057Y-94932447D02*
X70243819Y-94884828D01*
X70243819Y-94884828D02*
X70053343Y-94837209D01*
X70053343Y-94837209D02*
X69958105Y-94789590D01*
X69958105Y-94789590D02*
X69910486Y-94741971D01*
X69910486Y-94741971D02*
X69862867Y-94646733D01*
X69862867Y-94646733D02*
X69862867Y-94551495D01*
X69862867Y-94551495D02*
X69910486Y-94456257D01*
X69910486Y-94456257D02*
X69958105Y-94408638D01*
X69958105Y-94408638D02*
X70053343Y-94361019D01*
X70053343Y-94361019D02*
X70291438Y-94361019D01*
X70291438Y-94361019D02*
X70434295Y-94408638D01*
X70767629Y-94361019D02*
X71005724Y-95361019D01*
X71005724Y-95361019D02*
X71196200Y-94646733D01*
X71196200Y-94646733D02*
X71386676Y-95361019D01*
X71386676Y-95361019D02*
X71624772Y-94361019D01*
X71958105Y-94456257D02*
X72005724Y-94408638D01*
X72005724Y-94408638D02*
X72100962Y-94361019D01*
X72100962Y-94361019D02*
X72339057Y-94361019D01*
X72339057Y-94361019D02*
X72434295Y-94408638D01*
X72434295Y-94408638D02*
X72481914Y-94456257D01*
X72481914Y-94456257D02*
X72529533Y-94551495D01*
X72529533Y-94551495D02*
X72529533Y-94646733D01*
X72529533Y-94646733D02*
X72481914Y-94789590D01*
X72481914Y-94789590D02*
X71910486Y-95361019D01*
X71910486Y-95361019D02*
X72529533Y-95361019D01*
X79434905Y-49848219D02*
X80006333Y-49848219D01*
X79720619Y-50848219D02*
X79720619Y-49848219D01*
X80339667Y-50848219D02*
X80339667Y-49848219D01*
X80339667Y-49848219D02*
X80720619Y-49848219D01*
X80720619Y-49848219D02*
X80815857Y-49895838D01*
X80815857Y-49895838D02*
X80863476Y-49943457D01*
X80863476Y-49943457D02*
X80911095Y-50038695D01*
X80911095Y-50038695D02*
X80911095Y-50181552D01*
X80911095Y-50181552D02*
X80863476Y-50276790D01*
X80863476Y-50276790D02*
X80815857Y-50324409D01*
X80815857Y-50324409D02*
X80720619Y-50372028D01*
X80720619Y-50372028D02*
X80339667Y-50372028D01*
X81863476Y-50848219D02*
X81292048Y-50848219D01*
X81577762Y-50848219D02*
X81577762Y-49848219D01*
X81577762Y-49848219D02*
X81482524Y-49991076D01*
X81482524Y-49991076D02*
X81387286Y-50086314D01*
X81387286Y-50086314D02*
X81292048Y-50133933D01*
X82768238Y-49848219D02*
X82292048Y-49848219D01*
X82292048Y-49848219D02*
X82244429Y-50324409D01*
X82244429Y-50324409D02*
X82292048Y-50276790D01*
X82292048Y-50276790D02*
X82387286Y-50229171D01*
X82387286Y-50229171D02*
X82625381Y-50229171D01*
X82625381Y-50229171D02*
X82720619Y-50276790D01*
X82720619Y-50276790D02*
X82768238Y-50324409D01*
X82768238Y-50324409D02*
X82815857Y-50419647D01*
X82815857Y-50419647D02*
X82815857Y-50657742D01*
X82815857Y-50657742D02*
X82768238Y-50752980D01*
X82768238Y-50752980D02*
X82720619Y-50800600D01*
X82720619Y-50800600D02*
X82625381Y-50848219D01*
X82625381Y-50848219D02*
X82387286Y-50848219D01*
X82387286Y-50848219D02*
X82292048Y-50800600D01*
X82292048Y-50800600D02*
X82244429Y-50752980D01*
X83639066Y-56942619D02*
X83639066Y-57656904D01*
X83639066Y-57656904D02*
X83591447Y-57799761D01*
X83591447Y-57799761D02*
X83496209Y-57895000D01*
X83496209Y-57895000D02*
X83353352Y-57942619D01*
X83353352Y-57942619D02*
X83258114Y-57942619D01*
X84020019Y-56942619D02*
X84686685Y-56942619D01*
X84686685Y-56942619D02*
X84258114Y-57942619D01*
X44179505Y-54023419D02*
X44179505Y-53023419D01*
X44179505Y-53023419D02*
X44417600Y-53023419D01*
X44417600Y-53023419D02*
X44560457Y-53071038D01*
X44560457Y-53071038D02*
X44655695Y-53166276D01*
X44655695Y-53166276D02*
X44703314Y-53261514D01*
X44703314Y-53261514D02*
X44750933Y-53451990D01*
X44750933Y-53451990D02*
X44750933Y-53594847D01*
X44750933Y-53594847D02*
X44703314Y-53785323D01*
X44703314Y-53785323D02*
X44655695Y-53880561D01*
X44655695Y-53880561D02*
X44560457Y-53975800D01*
X44560457Y-53975800D02*
X44417600Y-54023419D01*
X44417600Y-54023419D02*
X44179505Y-54023419D01*
X45084267Y-53023419D02*
X45750933Y-53023419D01*
X45750933Y-53023419D02*
X45322362Y-54023419D01*
X72771095Y-46216219D02*
X72771095Y-47025742D01*
X72771095Y-47025742D02*
X72818714Y-47120980D01*
X72818714Y-47120980D02*
X72866333Y-47168600D01*
X72866333Y-47168600D02*
X72961571Y-47216219D01*
X72961571Y-47216219D02*
X73152047Y-47216219D01*
X73152047Y-47216219D02*
X73247285Y-47168600D01*
X73247285Y-47168600D02*
X73294904Y-47120980D01*
X73294904Y-47120980D02*
X73342523Y-47025742D01*
X73342523Y-47025742D02*
X73342523Y-46216219D01*
X74342523Y-47216219D02*
X73771095Y-47216219D01*
X74056809Y-47216219D02*
X74056809Y-46216219D01*
X74056809Y-46216219D02*
X73961571Y-46359076D01*
X73961571Y-46359076D02*
X73866333Y-46454314D01*
X73866333Y-46454314D02*
X73771095Y-46501933D01*
X68046600Y-42835219D02*
X68046600Y-43073314D01*
X67808505Y-42978076D02*
X68046600Y-43073314D01*
X68046600Y-43073314D02*
X68284695Y-42978076D01*
X67903743Y-43263790D02*
X68046600Y-43073314D01*
X68046600Y-43073314D02*
X68189457Y-43263790D01*
X68046600Y-42835219D02*
X68046600Y-43073314D01*
X67808505Y-42978076D02*
X68046600Y-43073314D01*
X68046600Y-43073314D02*
X68284695Y-42978076D01*
X67903743Y-43263790D02*
X68046600Y-43073314D01*
X68046600Y-43073314D02*
X68189457Y-43263790D01*
X30146666Y-50414819D02*
X30146666Y-51129104D01*
X30146666Y-51129104D02*
X30099047Y-51271961D01*
X30099047Y-51271961D02*
X30003809Y-51367200D01*
X30003809Y-51367200D02*
X29860952Y-51414819D01*
X29860952Y-51414819D02*
X29765714Y-51414819D01*
X30670476Y-51414819D02*
X30860952Y-51414819D01*
X30860952Y-51414819D02*
X30956190Y-51367200D01*
X30956190Y-51367200D02*
X31003809Y-51319580D01*
X31003809Y-51319580D02*
X31099047Y-51176723D01*
X31099047Y-51176723D02*
X31146666Y-50986247D01*
X31146666Y-50986247D02*
X31146666Y-50605295D01*
X31146666Y-50605295D02*
X31099047Y-50510057D01*
X31099047Y-50510057D02*
X31051428Y-50462438D01*
X31051428Y-50462438D02*
X30956190Y-50414819D01*
X30956190Y-50414819D02*
X30765714Y-50414819D01*
X30765714Y-50414819D02*
X30670476Y-50462438D01*
X30670476Y-50462438D02*
X30622857Y-50510057D01*
X30622857Y-50510057D02*
X30575238Y-50605295D01*
X30575238Y-50605295D02*
X30575238Y-50843390D01*
X30575238Y-50843390D02*
X30622857Y-50938628D01*
X30622857Y-50938628D02*
X30670476Y-50986247D01*
X30670476Y-50986247D02*
X30765714Y-51033866D01*
X30765714Y-51033866D02*
X30956190Y-51033866D01*
X30956190Y-51033866D02*
X31051428Y-50986247D01*
X31051428Y-50986247D02*
X31099047Y-50938628D01*
X31099047Y-50938628D02*
X31146666Y-50843390D01*
X55843705Y-94527219D02*
X56415133Y-94527219D01*
X56129419Y-95527219D02*
X56129419Y-94527219D01*
X56748467Y-95527219D02*
X56748467Y-94527219D01*
X56748467Y-94527219D02*
X57129419Y-94527219D01*
X57129419Y-94527219D02*
X57224657Y-94574838D01*
X57224657Y-94574838D02*
X57272276Y-94622457D01*
X57272276Y-94622457D02*
X57319895Y-94717695D01*
X57319895Y-94717695D02*
X57319895Y-94860552D01*
X57319895Y-94860552D02*
X57272276Y-94955790D01*
X57272276Y-94955790D02*
X57224657Y-95003409D01*
X57224657Y-95003409D02*
X57129419Y-95051028D01*
X57129419Y-95051028D02*
X56748467Y-95051028D01*
X57700848Y-94622457D02*
X57748467Y-94574838D01*
X57748467Y-94574838D02*
X57843705Y-94527219D01*
X57843705Y-94527219D02*
X58081800Y-94527219D01*
X58081800Y-94527219D02*
X58177038Y-94574838D01*
X58177038Y-94574838D02*
X58224657Y-94622457D01*
X58224657Y-94622457D02*
X58272276Y-94717695D01*
X58272276Y-94717695D02*
X58272276Y-94812933D01*
X58272276Y-94812933D02*
X58224657Y-94955790D01*
X58224657Y-94955790D02*
X57653229Y-95527219D01*
X57653229Y-95527219D02*
X58272276Y-95527219D01*
X58891324Y-94527219D02*
X58986562Y-94527219D01*
X58986562Y-94527219D02*
X59081800Y-94574838D01*
X59081800Y-94574838D02*
X59129419Y-94622457D01*
X59129419Y-94622457D02*
X59177038Y-94717695D01*
X59177038Y-94717695D02*
X59224657Y-94908171D01*
X59224657Y-94908171D02*
X59224657Y-95146266D01*
X59224657Y-95146266D02*
X59177038Y-95336742D01*
X59177038Y-95336742D02*
X59129419Y-95431980D01*
X59129419Y-95431980D02*
X59081800Y-95479600D01*
X59081800Y-95479600D02*
X58986562Y-95527219D01*
X58986562Y-95527219D02*
X58891324Y-95527219D01*
X58891324Y-95527219D02*
X58796086Y-95479600D01*
X58796086Y-95479600D02*
X58748467Y-95431980D01*
X58748467Y-95431980D02*
X58700848Y-95336742D01*
X58700848Y-95336742D02*
X58653229Y-95146266D01*
X58653229Y-95146266D02*
X58653229Y-94908171D01*
X58653229Y-94908171D02*
X58700848Y-94717695D01*
X58700848Y-94717695D02*
X58748467Y-94622457D01*
X58748467Y-94622457D02*
X58796086Y-94574838D01*
X58796086Y-94574838D02*
X58891324Y-94527219D01*
X79911095Y-42228219D02*
X80482523Y-42228219D01*
X80196809Y-43228219D02*
X80196809Y-42228219D01*
X80815857Y-43228219D02*
X80815857Y-42228219D01*
X80815857Y-42228219D02*
X81196809Y-42228219D01*
X81196809Y-42228219D02*
X81292047Y-42275838D01*
X81292047Y-42275838D02*
X81339666Y-42323457D01*
X81339666Y-42323457D02*
X81387285Y-42418695D01*
X81387285Y-42418695D02*
X81387285Y-42561552D01*
X81387285Y-42561552D02*
X81339666Y-42656790D01*
X81339666Y-42656790D02*
X81292047Y-42704409D01*
X81292047Y-42704409D02*
X81196809Y-42752028D01*
X81196809Y-42752028D02*
X80815857Y-42752028D01*
X81958714Y-42656790D02*
X81863476Y-42609171D01*
X81863476Y-42609171D02*
X81815857Y-42561552D01*
X81815857Y-42561552D02*
X81768238Y-42466314D01*
X81768238Y-42466314D02*
X81768238Y-42418695D01*
X81768238Y-42418695D02*
X81815857Y-42323457D01*
X81815857Y-42323457D02*
X81863476Y-42275838D01*
X81863476Y-42275838D02*
X81958714Y-42228219D01*
X81958714Y-42228219D02*
X82149190Y-42228219D01*
X82149190Y-42228219D02*
X82244428Y-42275838D01*
X82244428Y-42275838D02*
X82292047Y-42323457D01*
X82292047Y-42323457D02*
X82339666Y-42418695D01*
X82339666Y-42418695D02*
X82339666Y-42466314D01*
X82339666Y-42466314D02*
X82292047Y-42561552D01*
X82292047Y-42561552D02*
X82244428Y-42609171D01*
X82244428Y-42609171D02*
X82149190Y-42656790D01*
X82149190Y-42656790D02*
X81958714Y-42656790D01*
X81958714Y-42656790D02*
X81863476Y-42704409D01*
X81863476Y-42704409D02*
X81815857Y-42752028D01*
X81815857Y-42752028D02*
X81768238Y-42847266D01*
X81768238Y-42847266D02*
X81768238Y-43037742D01*
X81768238Y-43037742D02*
X81815857Y-43132980D01*
X81815857Y-43132980D02*
X81863476Y-43180600D01*
X81863476Y-43180600D02*
X81958714Y-43228219D01*
X81958714Y-43228219D02*
X82149190Y-43228219D01*
X82149190Y-43228219D02*
X82244428Y-43180600D01*
X82244428Y-43180600D02*
X82292047Y-43132980D01*
X82292047Y-43132980D02*
X82339666Y-43037742D01*
X82339666Y-43037742D02*
X82339666Y-42847266D01*
X82339666Y-42847266D02*
X82292047Y-42752028D01*
X82292047Y-42752028D02*
X82244428Y-42704409D01*
X82244428Y-42704409D02*
X82149190Y-42656790D01*
X52565395Y-64224819D02*
X52565395Y-65034342D01*
X52565395Y-65034342D02*
X52613014Y-65129580D01*
X52613014Y-65129580D02*
X52660633Y-65177200D01*
X52660633Y-65177200D02*
X52755871Y-65224819D01*
X52755871Y-65224819D02*
X52946347Y-65224819D01*
X52946347Y-65224819D02*
X53041585Y-65177200D01*
X53041585Y-65177200D02*
X53089204Y-65129580D01*
X53089204Y-65129580D02*
X53136823Y-65034342D01*
X53136823Y-65034342D02*
X53136823Y-64224819D01*
X54041585Y-64558152D02*
X54041585Y-65224819D01*
X53803490Y-64177200D02*
X53565395Y-64891485D01*
X53565395Y-64891485D02*
X54184442Y-64891485D01*
X50977800Y-61802419D02*
X50977800Y-62040514D01*
X50739705Y-61945276D02*
X50977800Y-62040514D01*
X50977800Y-62040514D02*
X51215895Y-61945276D01*
X50834943Y-62230990D02*
X50977800Y-62040514D01*
X50977800Y-62040514D02*
X51120657Y-62230990D01*
X50977800Y-61802419D02*
X50977800Y-62040514D01*
X50739705Y-61945276D02*
X50977800Y-62040514D01*
X50977800Y-62040514D02*
X51215895Y-61945276D01*
X50834943Y-62230990D02*
X50977800Y-62040514D01*
X50977800Y-62040514D02*
X51120657Y-62230990D01*
X70534305Y-87336019D02*
X70534305Y-86336019D01*
X70534305Y-86336019D02*
X70772400Y-86336019D01*
X70772400Y-86336019D02*
X70915257Y-86383638D01*
X70915257Y-86383638D02*
X71010495Y-86478876D01*
X71010495Y-86478876D02*
X71058114Y-86574114D01*
X71058114Y-86574114D02*
X71105733Y-86764590D01*
X71105733Y-86764590D02*
X71105733Y-86907447D01*
X71105733Y-86907447D02*
X71058114Y-87097923D01*
X71058114Y-87097923D02*
X71010495Y-87193161D01*
X71010495Y-87193161D02*
X70915257Y-87288400D01*
X70915257Y-87288400D02*
X70772400Y-87336019D01*
X70772400Y-87336019D02*
X70534305Y-87336019D01*
X71439067Y-86336019D02*
X72058114Y-86336019D01*
X72058114Y-86336019D02*
X71724781Y-86716971D01*
X71724781Y-86716971D02*
X71867638Y-86716971D01*
X71867638Y-86716971D02*
X71962876Y-86764590D01*
X71962876Y-86764590D02*
X72010495Y-86812209D01*
X72010495Y-86812209D02*
X72058114Y-86907447D01*
X72058114Y-86907447D02*
X72058114Y-87145542D01*
X72058114Y-87145542D02*
X72010495Y-87240780D01*
X72010495Y-87240780D02*
X71962876Y-87288400D01*
X71962876Y-87288400D02*
X71867638Y-87336019D01*
X71867638Y-87336019D02*
X71581924Y-87336019D01*
X71581924Y-87336019D02*
X71486686Y-87288400D01*
X71486686Y-87288400D02*
X71439067Y-87240780D01*
X49911095Y-48349819D02*
X49911095Y-49159342D01*
X49911095Y-49159342D02*
X49958714Y-49254580D01*
X49958714Y-49254580D02*
X50006333Y-49302200D01*
X50006333Y-49302200D02*
X50101571Y-49349819D01*
X50101571Y-49349819D02*
X50292047Y-49349819D01*
X50292047Y-49349819D02*
X50387285Y-49302200D01*
X50387285Y-49302200D02*
X50434904Y-49254580D01*
X50434904Y-49254580D02*
X50482523Y-49159342D01*
X50482523Y-49159342D02*
X50482523Y-48349819D01*
X50911095Y-48445057D02*
X50958714Y-48397438D01*
X50958714Y-48397438D02*
X51053952Y-48349819D01*
X51053952Y-48349819D02*
X51292047Y-48349819D01*
X51292047Y-48349819D02*
X51387285Y-48397438D01*
X51387285Y-48397438D02*
X51434904Y-48445057D01*
X51434904Y-48445057D02*
X51482523Y-48540295D01*
X51482523Y-48540295D02*
X51482523Y-48635533D01*
X51482523Y-48635533D02*
X51434904Y-48778390D01*
X51434904Y-48778390D02*
X50863476Y-49349819D01*
X50863476Y-49349819D02*
X51482523Y-49349819D01*
X50658733Y-51292619D02*
X50182543Y-51292619D01*
X50182543Y-51292619D02*
X50182543Y-50292619D01*
X51515876Y-51292619D02*
X50944448Y-51292619D01*
X51230162Y-51292619D02*
X51230162Y-50292619D01*
X51230162Y-50292619D02*
X51134924Y-50435476D01*
X51134924Y-50435476D02*
X51039686Y-50530714D01*
X51039686Y-50530714D02*
X50944448Y-50578333D01*
X71804819Y-29425237D02*
X70804819Y-29425237D01*
X70804819Y-29425237D02*
X70804819Y-29044285D01*
X70804819Y-29044285D02*
X70852438Y-28949047D01*
X70852438Y-28949047D02*
X70900057Y-28901428D01*
X70900057Y-28901428D02*
X70995295Y-28853809D01*
X70995295Y-28853809D02*
X71138152Y-28853809D01*
X71138152Y-28853809D02*
X71233390Y-28901428D01*
X71233390Y-28901428D02*
X71281009Y-28949047D01*
X71281009Y-28949047D02*
X71328628Y-29044285D01*
X71328628Y-29044285D02*
X71328628Y-29425237D01*
X71804819Y-28425237D02*
X70804819Y-28425237D01*
X70804819Y-28425237D02*
X71519104Y-28091904D01*
X71519104Y-28091904D02*
X70804819Y-27758571D01*
X70804819Y-27758571D02*
X71804819Y-27758571D01*
X70804819Y-27091904D02*
X70804819Y-26901428D01*
X70804819Y-26901428D02*
X70852438Y-26806190D01*
X70852438Y-26806190D02*
X70947676Y-26710952D01*
X70947676Y-26710952D02*
X71138152Y-26663333D01*
X71138152Y-26663333D02*
X71471485Y-26663333D01*
X71471485Y-26663333D02*
X71661961Y-26710952D01*
X71661961Y-26710952D02*
X71757200Y-26806190D01*
X71757200Y-26806190D02*
X71804819Y-26901428D01*
X71804819Y-26901428D02*
X71804819Y-27091904D01*
X71804819Y-27091904D02*
X71757200Y-27187142D01*
X71757200Y-27187142D02*
X71661961Y-27282380D01*
X71661961Y-27282380D02*
X71471485Y-27329999D01*
X71471485Y-27329999D02*
X71138152Y-27329999D01*
X71138152Y-27329999D02*
X70947676Y-27282380D01*
X70947676Y-27282380D02*
X70852438Y-27187142D01*
X70852438Y-27187142D02*
X70804819Y-27091904D01*
X71804819Y-26234761D02*
X70804819Y-26234761D01*
X70804819Y-26234761D02*
X70804819Y-25996666D01*
X70804819Y-25996666D02*
X70852438Y-25853809D01*
X70852438Y-25853809D02*
X70947676Y-25758571D01*
X70947676Y-25758571D02*
X71042914Y-25710952D01*
X71042914Y-25710952D02*
X71233390Y-25663333D01*
X71233390Y-25663333D02*
X71376247Y-25663333D01*
X71376247Y-25663333D02*
X71566723Y-25710952D01*
X71566723Y-25710952D02*
X71661961Y-25758571D01*
X71661961Y-25758571D02*
X71757200Y-25853809D01*
X71757200Y-25853809D02*
X71804819Y-25996666D01*
X71804819Y-25996666D02*
X71804819Y-26234761D01*
X71900057Y-25472857D02*
X71900057Y-24710952D01*
X70804819Y-24282380D02*
X70804819Y-24091904D01*
X70804819Y-24091904D02*
X70852438Y-23996666D01*
X70852438Y-23996666D02*
X70947676Y-23901428D01*
X70947676Y-23901428D02*
X71138152Y-23853809D01*
X71138152Y-23853809D02*
X71471485Y-23853809D01*
X71471485Y-23853809D02*
X71661961Y-23901428D01*
X71661961Y-23901428D02*
X71757200Y-23996666D01*
X71757200Y-23996666D02*
X71804819Y-24091904D01*
X71804819Y-24091904D02*
X71804819Y-24282380D01*
X71804819Y-24282380D02*
X71757200Y-24377618D01*
X71757200Y-24377618D02*
X71661961Y-24472856D01*
X71661961Y-24472856D02*
X71471485Y-24520475D01*
X71471485Y-24520475D02*
X71138152Y-24520475D01*
X71138152Y-24520475D02*
X70947676Y-24472856D01*
X70947676Y-24472856D02*
X70852438Y-24377618D01*
X70852438Y-24377618D02*
X70804819Y-24282380D01*
X71804819Y-22949047D02*
X71804819Y-23425237D01*
X71804819Y-23425237D02*
X70804819Y-23425237D01*
X71281009Y-22615713D02*
X71281009Y-22282380D01*
X71804819Y-22139523D02*
X71804819Y-22615713D01*
X71804819Y-22615713D02*
X70804819Y-22615713D01*
X70804819Y-22615713D02*
X70804819Y-22139523D01*
X71804819Y-21710951D02*
X70804819Y-21710951D01*
X70804819Y-21710951D02*
X70804819Y-21472856D01*
X70804819Y-21472856D02*
X70852438Y-21329999D01*
X70852438Y-21329999D02*
X70947676Y-21234761D01*
X70947676Y-21234761D02*
X71042914Y-21187142D01*
X71042914Y-21187142D02*
X71233390Y-21139523D01*
X71233390Y-21139523D02*
X71376247Y-21139523D01*
X71376247Y-21139523D02*
X71566723Y-21187142D01*
X71566723Y-21187142D02*
X71661961Y-21234761D01*
X71661961Y-21234761D02*
X71757200Y-21329999D01*
X71757200Y-21329999D02*
X71804819Y-21472856D01*
X71804819Y-21472856D02*
X71804819Y-21710951D01*
X71804819Y-20187142D02*
X71804819Y-20758570D01*
X71804819Y-20472856D02*
X70804819Y-20472856D01*
X70804819Y-20472856D02*
X70947676Y-20568094D01*
X70947676Y-20568094D02*
X71042914Y-20663332D01*
X71042914Y-20663332D02*
X71090533Y-20758570D01*
X60668067Y-95389600D02*
X60810924Y-95437219D01*
X60810924Y-95437219D02*
X61049019Y-95437219D01*
X61049019Y-95437219D02*
X61144257Y-95389600D01*
X61144257Y-95389600D02*
X61191876Y-95341980D01*
X61191876Y-95341980D02*
X61239495Y-95246742D01*
X61239495Y-95246742D02*
X61239495Y-95151504D01*
X61239495Y-95151504D02*
X61191876Y-95056266D01*
X61191876Y-95056266D02*
X61144257Y-95008647D01*
X61144257Y-95008647D02*
X61049019Y-94961028D01*
X61049019Y-94961028D02*
X60858543Y-94913409D01*
X60858543Y-94913409D02*
X60763305Y-94865790D01*
X60763305Y-94865790D02*
X60715686Y-94818171D01*
X60715686Y-94818171D02*
X60668067Y-94722933D01*
X60668067Y-94722933D02*
X60668067Y-94627695D01*
X60668067Y-94627695D02*
X60715686Y-94532457D01*
X60715686Y-94532457D02*
X60763305Y-94484838D01*
X60763305Y-94484838D02*
X60858543Y-94437219D01*
X60858543Y-94437219D02*
X61096638Y-94437219D01*
X61096638Y-94437219D02*
X61239495Y-94484838D01*
X61572829Y-94437219D02*
X61810924Y-95437219D01*
X61810924Y-95437219D02*
X62001400Y-94722933D01*
X62001400Y-94722933D02*
X62191876Y-95437219D01*
X62191876Y-95437219D02*
X62429972Y-94437219D01*
X63334733Y-95437219D02*
X62763305Y-95437219D01*
X63049019Y-95437219D02*
X63049019Y-94437219D01*
X63049019Y-94437219D02*
X62953781Y-94580076D01*
X62953781Y-94580076D02*
X62858543Y-94675314D01*
X62858543Y-94675314D02*
X62763305Y-94722933D01*
X82451095Y-40958219D02*
X83022523Y-40958219D01*
X82736809Y-41958219D02*
X82736809Y-40958219D01*
X83355857Y-41958219D02*
X83355857Y-40958219D01*
X83355857Y-40958219D02*
X83736809Y-40958219D01*
X83736809Y-40958219D02*
X83832047Y-41005838D01*
X83832047Y-41005838D02*
X83879666Y-41053457D01*
X83879666Y-41053457D02*
X83927285Y-41148695D01*
X83927285Y-41148695D02*
X83927285Y-41291552D01*
X83927285Y-41291552D02*
X83879666Y-41386790D01*
X83879666Y-41386790D02*
X83832047Y-41434409D01*
X83832047Y-41434409D02*
X83736809Y-41482028D01*
X83736809Y-41482028D02*
X83355857Y-41482028D01*
X84260619Y-40958219D02*
X84927285Y-40958219D01*
X84927285Y-40958219D02*
X84498714Y-41958219D01*
X40487105Y-53023219D02*
X41058533Y-53023219D01*
X40772819Y-54023219D02*
X40772819Y-53023219D01*
X41391867Y-54023219D02*
X41391867Y-53023219D01*
X41391867Y-53023219D02*
X41772819Y-53023219D01*
X41772819Y-53023219D02*
X41868057Y-53070838D01*
X41868057Y-53070838D02*
X41915676Y-53118457D01*
X41915676Y-53118457D02*
X41963295Y-53213695D01*
X41963295Y-53213695D02*
X41963295Y-53356552D01*
X41963295Y-53356552D02*
X41915676Y-53451790D01*
X41915676Y-53451790D02*
X41868057Y-53499409D01*
X41868057Y-53499409D02*
X41772819Y-53547028D01*
X41772819Y-53547028D02*
X41391867Y-53547028D01*
X42915676Y-54023219D02*
X42344248Y-54023219D01*
X42629962Y-54023219D02*
X42629962Y-53023219D01*
X42629962Y-53023219D02*
X42534724Y-53166076D01*
X42534724Y-53166076D02*
X42439486Y-53261314D01*
X42439486Y-53261314D02*
X42344248Y-53308933D01*
X43487105Y-53451790D02*
X43391867Y-53404171D01*
X43391867Y-53404171D02*
X43344248Y-53356552D01*
X43344248Y-53356552D02*
X43296629Y-53261314D01*
X43296629Y-53261314D02*
X43296629Y-53213695D01*
X43296629Y-53213695D02*
X43344248Y-53118457D01*
X43344248Y-53118457D02*
X43391867Y-53070838D01*
X43391867Y-53070838D02*
X43487105Y-53023219D01*
X43487105Y-53023219D02*
X43677581Y-53023219D01*
X43677581Y-53023219D02*
X43772819Y-53070838D01*
X43772819Y-53070838D02*
X43820438Y-53118457D01*
X43820438Y-53118457D02*
X43868057Y-53213695D01*
X43868057Y-53213695D02*
X43868057Y-53261314D01*
X43868057Y-53261314D02*
X43820438Y-53356552D01*
X43820438Y-53356552D02*
X43772819Y-53404171D01*
X43772819Y-53404171D02*
X43677581Y-53451790D01*
X43677581Y-53451790D02*
X43487105Y-53451790D01*
X43487105Y-53451790D02*
X43391867Y-53499409D01*
X43391867Y-53499409D02*
X43344248Y-53547028D01*
X43344248Y-53547028D02*
X43296629Y-53642266D01*
X43296629Y-53642266D02*
X43296629Y-53832742D01*
X43296629Y-53832742D02*
X43344248Y-53927980D01*
X43344248Y-53927980D02*
X43391867Y-53975600D01*
X43391867Y-53975600D02*
X43487105Y-54023219D01*
X43487105Y-54023219D02*
X43677581Y-54023219D01*
X43677581Y-54023219D02*
X43772819Y-53975600D01*
X43772819Y-53975600D02*
X43820438Y-53927980D01*
X43820438Y-53927980D02*
X43868057Y-53832742D01*
X43868057Y-53832742D02*
X43868057Y-53642266D01*
X43868057Y-53642266D02*
X43820438Y-53547028D01*
X43820438Y-53547028D02*
X43772819Y-53499409D01*
X43772819Y-53499409D02*
X43677581Y-53451790D01*
X35099666Y-38146619D02*
X35099666Y-38860904D01*
X35099666Y-38860904D02*
X35052047Y-39003761D01*
X35052047Y-39003761D02*
X34956809Y-39099000D01*
X34956809Y-39099000D02*
X34813952Y-39146619D01*
X34813952Y-39146619D02*
X34718714Y-39146619D01*
X36052047Y-38146619D02*
X35575857Y-38146619D01*
X35575857Y-38146619D02*
X35528238Y-38622809D01*
X35528238Y-38622809D02*
X35575857Y-38575190D01*
X35575857Y-38575190D02*
X35671095Y-38527571D01*
X35671095Y-38527571D02*
X35909190Y-38527571D01*
X35909190Y-38527571D02*
X36004428Y-38575190D01*
X36004428Y-38575190D02*
X36052047Y-38622809D01*
X36052047Y-38622809D02*
X36099666Y-38718047D01*
X36099666Y-38718047D02*
X36099666Y-38956142D01*
X36099666Y-38956142D02*
X36052047Y-39051380D01*
X36052047Y-39051380D02*
X36004428Y-39099000D01*
X36004428Y-39099000D02*
X35909190Y-39146619D01*
X35909190Y-39146619D02*
X35671095Y-39146619D01*
X35671095Y-39146619D02*
X35575857Y-39099000D01*
X35575857Y-39099000D02*
X35528238Y-39051380D01*
X46808019Y-60912333D02*
X47522304Y-60912333D01*
X47522304Y-60912333D02*
X47665161Y-60959952D01*
X47665161Y-60959952D02*
X47760400Y-61055190D01*
X47760400Y-61055190D02*
X47808019Y-61198047D01*
X47808019Y-61198047D02*
X47808019Y-61293285D01*
X46903257Y-60483761D02*
X46855638Y-60436142D01*
X46855638Y-60436142D02*
X46808019Y-60340904D01*
X46808019Y-60340904D02*
X46808019Y-60102809D01*
X46808019Y-60102809D02*
X46855638Y-60007571D01*
X46855638Y-60007571D02*
X46903257Y-59959952D01*
X46903257Y-59959952D02*
X46998495Y-59912333D01*
X46998495Y-59912333D02*
X47093733Y-59912333D01*
X47093733Y-59912333D02*
X47236590Y-59959952D01*
X47236590Y-59959952D02*
X47808019Y-60531380D01*
X47808019Y-60531380D02*
X47808019Y-59912333D01*
X44287600Y-35623332D02*
X44335219Y-35480475D01*
X44335219Y-35480475D02*
X44335219Y-35242380D01*
X44335219Y-35242380D02*
X44287600Y-35147142D01*
X44287600Y-35147142D02*
X44239980Y-35099523D01*
X44239980Y-35099523D02*
X44144742Y-35051904D01*
X44144742Y-35051904D02*
X44049504Y-35051904D01*
X44049504Y-35051904D02*
X43954266Y-35099523D01*
X43954266Y-35099523D02*
X43906647Y-35147142D01*
X43906647Y-35147142D02*
X43859028Y-35242380D01*
X43859028Y-35242380D02*
X43811409Y-35432856D01*
X43811409Y-35432856D02*
X43763790Y-35528094D01*
X43763790Y-35528094D02*
X43716171Y-35575713D01*
X43716171Y-35575713D02*
X43620933Y-35623332D01*
X43620933Y-35623332D02*
X43525695Y-35623332D01*
X43525695Y-35623332D02*
X43430457Y-35575713D01*
X43430457Y-35575713D02*
X43382838Y-35528094D01*
X43382838Y-35528094D02*
X43335219Y-35432856D01*
X43335219Y-35432856D02*
X43335219Y-35194761D01*
X43335219Y-35194761D02*
X43382838Y-35051904D01*
X43335219Y-34718570D02*
X44335219Y-34480475D01*
X44335219Y-34480475D02*
X43620933Y-34289999D01*
X43620933Y-34289999D02*
X44335219Y-34099523D01*
X44335219Y-34099523D02*
X43335219Y-33861428D01*
X43335219Y-33575713D02*
X43335219Y-32909047D01*
X43335219Y-32909047D02*
X44335219Y-33337618D01*
X40835219Y-36791899D02*
X41073314Y-36791899D01*
X40978076Y-37029994D02*
X41073314Y-36791899D01*
X41073314Y-36791899D02*
X40978076Y-36553804D01*
X41263790Y-36934756D02*
X41073314Y-36791899D01*
X41073314Y-36791899D02*
X41263790Y-36649042D01*
X40835219Y-36791899D02*
X41073314Y-36791899D01*
X40978076Y-37029994D02*
X41073314Y-36791899D01*
X41073314Y-36791899D02*
X40978076Y-36553804D01*
X41263790Y-36934756D02*
X41073314Y-36791899D01*
X41073314Y-36791899D02*
X41263790Y-36649042D01*
X79540267Y-96702800D02*
X79683124Y-96750419D01*
X79683124Y-96750419D02*
X79921219Y-96750419D01*
X79921219Y-96750419D02*
X80016457Y-96702800D01*
X80016457Y-96702800D02*
X80064076Y-96655180D01*
X80064076Y-96655180D02*
X80111695Y-96559942D01*
X80111695Y-96559942D02*
X80111695Y-96464704D01*
X80111695Y-96464704D02*
X80064076Y-96369466D01*
X80064076Y-96369466D02*
X80016457Y-96321847D01*
X80016457Y-96321847D02*
X79921219Y-96274228D01*
X79921219Y-96274228D02*
X79730743Y-96226609D01*
X79730743Y-96226609D02*
X79635505Y-96178990D01*
X79635505Y-96178990D02*
X79587886Y-96131371D01*
X79587886Y-96131371D02*
X79540267Y-96036133D01*
X79540267Y-96036133D02*
X79540267Y-95940895D01*
X79540267Y-95940895D02*
X79587886Y-95845657D01*
X79587886Y-95845657D02*
X79635505Y-95798038D01*
X79635505Y-95798038D02*
X79730743Y-95750419D01*
X79730743Y-95750419D02*
X79968838Y-95750419D01*
X79968838Y-95750419D02*
X80111695Y-95798038D01*
X80445029Y-95750419D02*
X80683124Y-96750419D01*
X80683124Y-96750419D02*
X80873600Y-96036133D01*
X80873600Y-96036133D02*
X81064076Y-96750419D01*
X81064076Y-96750419D02*
X81302172Y-95750419D01*
X82111695Y-96083752D02*
X82111695Y-96750419D01*
X81873600Y-95702800D02*
X81635505Y-96417085D01*
X81635505Y-96417085D02*
X82254552Y-96417085D01*
X79628904Y-59803380D02*
X79628904Y-58993857D01*
X79628904Y-58993857D02*
X79581285Y-58898619D01*
X79581285Y-58898619D02*
X79533666Y-58851000D01*
X79533666Y-58851000D02*
X79438428Y-58803380D01*
X79438428Y-58803380D02*
X79247952Y-58803380D01*
X79247952Y-58803380D02*
X79152714Y-58851000D01*
X79152714Y-58851000D02*
X79105095Y-58898619D01*
X79105095Y-58898619D02*
X79057476Y-58993857D01*
X79057476Y-58993857D02*
X79057476Y-59803380D01*
X78676523Y-59803380D02*
X78057476Y-59803380D01*
X78057476Y-59803380D02*
X78390809Y-59422428D01*
X78390809Y-59422428D02*
X78247952Y-59422428D01*
X78247952Y-59422428D02*
X78152714Y-59374809D01*
X78152714Y-59374809D02*
X78105095Y-59327190D01*
X78105095Y-59327190D02*
X78057476Y-59231952D01*
X78057476Y-59231952D02*
X78057476Y-58993857D01*
X78057476Y-58993857D02*
X78105095Y-58898619D01*
X78105095Y-58898619D02*
X78152714Y-58851000D01*
X78152714Y-58851000D02*
X78247952Y-58803380D01*
X78247952Y-58803380D02*
X78533666Y-58803380D01*
X78533666Y-58803380D02*
X78628904Y-58851000D01*
X78628904Y-58851000D02*
X78676523Y-58898619D01*
X80492599Y-61950380D02*
X80492599Y-61712285D01*
X80730694Y-61807523D02*
X80492599Y-61712285D01*
X80492599Y-61712285D02*
X80254504Y-61807523D01*
X80635456Y-61521809D02*
X80492599Y-61712285D01*
X80492599Y-61712285D02*
X80349742Y-61521809D01*
X80492600Y-60860019D02*
X80492600Y-61098114D01*
X80254505Y-61002876D02*
X80492600Y-61098114D01*
X80492600Y-61098114D02*
X80730695Y-61002876D01*
X80349743Y-61288590D02*
X80492600Y-61098114D01*
X80492600Y-61098114D02*
X80635457Y-61288590D01*
X73318019Y-61561409D02*
X74318019Y-60894743D01*
X73318019Y-60894743D02*
X74318019Y-61561409D01*
X73318019Y-60656647D02*
X73318019Y-60085219D01*
X74318019Y-60370933D02*
X73318019Y-60370933D01*
X74032304Y-59799504D02*
X74032304Y-59323314D01*
X74318019Y-59894742D02*
X73318019Y-59561409D01*
X73318019Y-59561409D02*
X74318019Y-59228076D01*
X74318019Y-58418552D02*
X74318019Y-58894742D01*
X74318019Y-58894742D02*
X73318019Y-58894742D01*
X74318019Y-57561409D02*
X74318019Y-58132837D01*
X74318019Y-57847123D02*
X73318019Y-57847123D01*
X73318019Y-57847123D02*
X73460876Y-57942361D01*
X73460876Y-57942361D02*
X73556114Y-58037599D01*
X73556114Y-58037599D02*
X73603733Y-58132837D01*
X60216894Y-53466080D02*
X60216894Y-52656557D01*
X60216894Y-52656557D02*
X60169275Y-52561319D01*
X60169275Y-52561319D02*
X60121656Y-52513700D01*
X60121656Y-52513700D02*
X60026418Y-52466080D01*
X60026418Y-52466080D02*
X59835942Y-52466080D01*
X59835942Y-52466080D02*
X59740704Y-52513700D01*
X59740704Y-52513700D02*
X59693085Y-52561319D01*
X59693085Y-52561319D02*
X59645466Y-52656557D01*
X59645466Y-52656557D02*
X59645466Y-53466080D01*
X58645466Y-52466080D02*
X59216894Y-52466080D01*
X58931180Y-52466080D02*
X58931180Y-53466080D01*
X58931180Y-53466080D02*
X59026418Y-53323223D01*
X59026418Y-53323223D02*
X59121656Y-53227985D01*
X59121656Y-53227985D02*
X59216894Y-53180366D01*
X58264513Y-53370842D02*
X58216894Y-53418461D01*
X58216894Y-53418461D02*
X58121656Y-53466080D01*
X58121656Y-53466080D02*
X57883561Y-53466080D01*
X57883561Y-53466080D02*
X57788323Y-53418461D01*
X57788323Y-53418461D02*
X57740704Y-53370842D01*
X57740704Y-53370842D02*
X57693085Y-53275604D01*
X57693085Y-53275604D02*
X57693085Y-53180366D01*
X57693085Y-53180366D02*
X57740704Y-53037509D01*
X57740704Y-53037509D02*
X58312132Y-52466080D01*
X58312132Y-52466080D02*
X57693085Y-52466080D01*
X40310219Y-69111294D02*
X41119742Y-69111294D01*
X41119742Y-69111294D02*
X41214980Y-69063675D01*
X41214980Y-69063675D02*
X41262600Y-69016056D01*
X41262600Y-69016056D02*
X41310219Y-68920818D01*
X41310219Y-68920818D02*
X41310219Y-68730342D01*
X41310219Y-68730342D02*
X41262600Y-68635104D01*
X41262600Y-68635104D02*
X41214980Y-68587485D01*
X41214980Y-68587485D02*
X41119742Y-68539866D01*
X41119742Y-68539866D02*
X40310219Y-68539866D01*
X41310219Y-67539866D02*
X41310219Y-68111294D01*
X41310219Y-67825580D02*
X40310219Y-67825580D01*
X40310219Y-67825580D02*
X40453076Y-67920818D01*
X40453076Y-67920818D02*
X40548314Y-68016056D01*
X40548314Y-68016056D02*
X40595933Y-68111294D01*
X41310219Y-66587485D02*
X41310219Y-67158913D01*
X41310219Y-66873199D02*
X40310219Y-66873199D01*
X40310219Y-66873199D02*
X40453076Y-66968437D01*
X40453076Y-66968437D02*
X40548314Y-67063675D01*
X40548314Y-67063675D02*
X40595933Y-67158913D01*
X55647219Y-72443933D02*
X56361504Y-72443933D01*
X56361504Y-72443933D02*
X56504361Y-72491552D01*
X56504361Y-72491552D02*
X56599600Y-72586790D01*
X56599600Y-72586790D02*
X56647219Y-72729647D01*
X56647219Y-72729647D02*
X56647219Y-72824885D01*
X55647219Y-71539171D02*
X55647219Y-71729647D01*
X55647219Y-71729647D02*
X55694838Y-71824885D01*
X55694838Y-71824885D02*
X55742457Y-71872504D01*
X55742457Y-71872504D02*
X55885314Y-71967742D01*
X55885314Y-71967742D02*
X56075790Y-72015361D01*
X56075790Y-72015361D02*
X56456742Y-72015361D01*
X56456742Y-72015361D02*
X56551980Y-71967742D01*
X56551980Y-71967742D02*
X56599600Y-71920123D01*
X56599600Y-71920123D02*
X56647219Y-71824885D01*
X56647219Y-71824885D02*
X56647219Y-71634409D01*
X56647219Y-71634409D02*
X56599600Y-71539171D01*
X56599600Y-71539171D02*
X56551980Y-71491552D01*
X56551980Y-71491552D02*
X56456742Y-71443933D01*
X56456742Y-71443933D02*
X56218647Y-71443933D01*
X56218647Y-71443933D02*
X56123409Y-71491552D01*
X56123409Y-71491552D02*
X56075790Y-71539171D01*
X56075790Y-71539171D02*
X56028171Y-71634409D01*
X56028171Y-71634409D02*
X56028171Y-71824885D01*
X56028171Y-71824885D02*
X56075790Y-71920123D01*
X56075790Y-71920123D02*
X56123409Y-71967742D01*
X56123409Y-71967742D02*
X56218647Y-72015361D01*
X58888333Y-52995219D02*
X58412143Y-52995219D01*
X58412143Y-52995219D02*
X58412143Y-51995219D01*
X59650238Y-51995219D02*
X59459762Y-51995219D01*
X59459762Y-51995219D02*
X59364524Y-52042838D01*
X59364524Y-52042838D02*
X59316905Y-52090457D01*
X59316905Y-52090457D02*
X59221667Y-52233314D01*
X59221667Y-52233314D02*
X59174048Y-52423790D01*
X59174048Y-52423790D02*
X59174048Y-52804742D01*
X59174048Y-52804742D02*
X59221667Y-52899980D01*
X59221667Y-52899980D02*
X59269286Y-52947600D01*
X59269286Y-52947600D02*
X59364524Y-52995219D01*
X59364524Y-52995219D02*
X59555000Y-52995219D01*
X59555000Y-52995219D02*
X59650238Y-52947600D01*
X59650238Y-52947600D02*
X59697857Y-52899980D01*
X59697857Y-52899980D02*
X59745476Y-52804742D01*
X59745476Y-52804742D02*
X59745476Y-52566647D01*
X59745476Y-52566647D02*
X59697857Y-52471409D01*
X59697857Y-52471409D02*
X59650238Y-52423790D01*
X59650238Y-52423790D02*
X59555000Y-52376171D01*
X59555000Y-52376171D02*
X59364524Y-52376171D01*
X59364524Y-52376171D02*
X59269286Y-52423790D01*
X59269286Y-52423790D02*
X59221667Y-52471409D01*
X59221667Y-52471409D02*
X59174048Y-52566647D01*
X69903495Y-52159619D02*
X70474923Y-52159619D01*
X70189209Y-53159619D02*
X70189209Y-52159619D01*
X70808257Y-53159619D02*
X70808257Y-52159619D01*
X70808257Y-52159619D02*
X71189209Y-52159619D01*
X71189209Y-52159619D02*
X71284447Y-52207238D01*
X71284447Y-52207238D02*
X71332066Y-52254857D01*
X71332066Y-52254857D02*
X71379685Y-52350095D01*
X71379685Y-52350095D02*
X71379685Y-52492952D01*
X71379685Y-52492952D02*
X71332066Y-52588190D01*
X71332066Y-52588190D02*
X71284447Y-52635809D01*
X71284447Y-52635809D02*
X71189209Y-52683428D01*
X71189209Y-52683428D02*
X70808257Y-52683428D01*
X72236828Y-52492952D02*
X72236828Y-53159619D01*
X71998733Y-52112000D02*
X71760638Y-52826285D01*
X71760638Y-52826285D02*
X72379685Y-52826285D01*
X46998095Y-25946819D02*
X47569523Y-25946819D01*
X47283809Y-26946819D02*
X47283809Y-25946819D01*
X47902857Y-26946819D02*
X47902857Y-25946819D01*
X47902857Y-25946819D02*
X48283809Y-25946819D01*
X48283809Y-25946819D02*
X48379047Y-25994438D01*
X48379047Y-25994438D02*
X48426666Y-26042057D01*
X48426666Y-26042057D02*
X48474285Y-26137295D01*
X48474285Y-26137295D02*
X48474285Y-26280152D01*
X48474285Y-26280152D02*
X48426666Y-26375390D01*
X48426666Y-26375390D02*
X48379047Y-26423009D01*
X48379047Y-26423009D02*
X48283809Y-26470628D01*
X48283809Y-26470628D02*
X47902857Y-26470628D01*
X48855238Y-26042057D02*
X48902857Y-25994438D01*
X48902857Y-25994438D02*
X48998095Y-25946819D01*
X48998095Y-25946819D02*
X49236190Y-25946819D01*
X49236190Y-25946819D02*
X49331428Y-25994438D01*
X49331428Y-25994438D02*
X49379047Y-26042057D01*
X49379047Y-26042057D02*
X49426666Y-26137295D01*
X49426666Y-26137295D02*
X49426666Y-26232533D01*
X49426666Y-26232533D02*
X49379047Y-26375390D01*
X49379047Y-26375390D02*
X48807619Y-26946819D01*
X48807619Y-26946819D02*
X49426666Y-26946819D01*
X72443495Y-52159619D02*
X73014923Y-52159619D01*
X72729209Y-53159619D02*
X72729209Y-52159619D01*
X73348257Y-53159619D02*
X73348257Y-52159619D01*
X73348257Y-52159619D02*
X73729209Y-52159619D01*
X73729209Y-52159619D02*
X73824447Y-52207238D01*
X73824447Y-52207238D02*
X73872066Y-52254857D01*
X73872066Y-52254857D02*
X73919685Y-52350095D01*
X73919685Y-52350095D02*
X73919685Y-52492952D01*
X73919685Y-52492952D02*
X73872066Y-52588190D01*
X73872066Y-52588190D02*
X73824447Y-52635809D01*
X73824447Y-52635809D02*
X73729209Y-52683428D01*
X73729209Y-52683428D02*
X73348257Y-52683428D01*
X74824447Y-52159619D02*
X74348257Y-52159619D01*
X74348257Y-52159619D02*
X74300638Y-52635809D01*
X74300638Y-52635809D02*
X74348257Y-52588190D01*
X74348257Y-52588190D02*
X74443495Y-52540571D01*
X74443495Y-52540571D02*
X74681590Y-52540571D01*
X74681590Y-52540571D02*
X74776828Y-52588190D01*
X74776828Y-52588190D02*
X74824447Y-52635809D01*
X74824447Y-52635809D02*
X74872066Y-52731047D01*
X74872066Y-52731047D02*
X74872066Y-52969142D01*
X74872066Y-52969142D02*
X74824447Y-53064380D01*
X74824447Y-53064380D02*
X74776828Y-53112000D01*
X74776828Y-53112000D02*
X74681590Y-53159619D01*
X74681590Y-53159619D02*
X74443495Y-53159619D01*
X74443495Y-53159619D02*
X74348257Y-53112000D01*
X74348257Y-53112000D02*
X74300638Y-53064380D01*
X72302905Y-88380419D02*
X72874333Y-88380419D01*
X72588619Y-89380419D02*
X72588619Y-88380419D01*
X73207667Y-89380419D02*
X73207667Y-88380419D01*
X73207667Y-88380419D02*
X73588619Y-88380419D01*
X73588619Y-88380419D02*
X73683857Y-88428038D01*
X73683857Y-88428038D02*
X73731476Y-88475657D01*
X73731476Y-88475657D02*
X73779095Y-88570895D01*
X73779095Y-88570895D02*
X73779095Y-88713752D01*
X73779095Y-88713752D02*
X73731476Y-88808990D01*
X73731476Y-88808990D02*
X73683857Y-88856609D01*
X73683857Y-88856609D02*
X73588619Y-88904228D01*
X73588619Y-88904228D02*
X73207667Y-88904228D01*
X74731476Y-89380419D02*
X74160048Y-89380419D01*
X74445762Y-89380419D02*
X74445762Y-88380419D01*
X74445762Y-88380419D02*
X74350524Y-88523276D01*
X74350524Y-88523276D02*
X74255286Y-88618514D01*
X74255286Y-88618514D02*
X74160048Y-88666133D01*
X75207667Y-89380419D02*
X75398143Y-89380419D01*
X75398143Y-89380419D02*
X75493381Y-89332800D01*
X75493381Y-89332800D02*
X75541000Y-89285180D01*
X75541000Y-89285180D02*
X75636238Y-89142323D01*
X75636238Y-89142323D02*
X75683857Y-88951847D01*
X75683857Y-88951847D02*
X75683857Y-88570895D01*
X75683857Y-88570895D02*
X75636238Y-88475657D01*
X75636238Y-88475657D02*
X75588619Y-88428038D01*
X75588619Y-88428038D02*
X75493381Y-88380419D01*
X75493381Y-88380419D02*
X75302905Y-88380419D01*
X75302905Y-88380419D02*
X75207667Y-88428038D01*
X75207667Y-88428038D02*
X75160048Y-88475657D01*
X75160048Y-88475657D02*
X75112429Y-88570895D01*
X75112429Y-88570895D02*
X75112429Y-88808990D01*
X75112429Y-88808990D02*
X75160048Y-88904228D01*
X75160048Y-88904228D02*
X75207667Y-88951847D01*
X75207667Y-88951847D02*
X75302905Y-88999466D01*
X75302905Y-88999466D02*
X75493381Y-88999466D01*
X75493381Y-88999466D02*
X75588619Y-88951847D01*
X75588619Y-88951847D02*
X75636238Y-88904228D01*
X75636238Y-88904228D02*
X75683857Y-88808990D01*
X70780505Y-89421420D02*
X70780505Y-88421420D01*
X70780505Y-88421420D02*
X71018600Y-88421420D01*
X71018600Y-88421420D02*
X71161457Y-88469039D01*
X71161457Y-88469039D02*
X71256695Y-88564277D01*
X71256695Y-88564277D02*
X71304314Y-88659515D01*
X71304314Y-88659515D02*
X71351933Y-88849991D01*
X71351933Y-88849991D02*
X71351933Y-88992848D01*
X71351933Y-88992848D02*
X71304314Y-89183324D01*
X71304314Y-89183324D02*
X71256695Y-89278562D01*
X71256695Y-89278562D02*
X71161457Y-89373801D01*
X71161457Y-89373801D02*
X71018600Y-89421420D01*
X71018600Y-89421420D02*
X70780505Y-89421420D01*
X72209076Y-88421420D02*
X72018600Y-88421420D01*
X72018600Y-88421420D02*
X71923362Y-88469039D01*
X71923362Y-88469039D02*
X71875743Y-88516658D01*
X71875743Y-88516658D02*
X71780505Y-88659515D01*
X71780505Y-88659515D02*
X71732886Y-88849991D01*
X71732886Y-88849991D02*
X71732886Y-89230943D01*
X71732886Y-89230943D02*
X71780505Y-89326181D01*
X71780505Y-89326181D02*
X71828124Y-89373801D01*
X71828124Y-89373801D02*
X71923362Y-89421420D01*
X71923362Y-89421420D02*
X72113838Y-89421420D01*
X72113838Y-89421420D02*
X72209076Y-89373801D01*
X72209076Y-89373801D02*
X72256695Y-89326181D01*
X72256695Y-89326181D02*
X72304314Y-89230943D01*
X72304314Y-89230943D02*
X72304314Y-88992848D01*
X72304314Y-88992848D02*
X72256695Y-88897610D01*
X72256695Y-88897610D02*
X72209076Y-88849991D01*
X72209076Y-88849991D02*
X72113838Y-88802372D01*
X72113838Y-88802372D02*
X71923362Y-88802372D01*
X71923362Y-88802372D02*
X71828124Y-88849991D01*
X71828124Y-88849991D02*
X71780505Y-88897610D01*
X71780505Y-88897610D02*
X71732886Y-88992848D01*
X72257504Y-38939779D02*
X72257504Y-38130256D01*
X72257504Y-38130256D02*
X72209885Y-38035018D01*
X72209885Y-38035018D02*
X72162266Y-37987399D01*
X72162266Y-37987399D02*
X72067028Y-37939779D01*
X72067028Y-37939779D02*
X71876552Y-37939779D01*
X71876552Y-37939779D02*
X71781314Y-37987399D01*
X71781314Y-37987399D02*
X71733695Y-38035018D01*
X71733695Y-38035018D02*
X71686076Y-38130256D01*
X71686076Y-38130256D02*
X71686076Y-38939779D01*
X70781314Y-38939779D02*
X70971790Y-38939779D01*
X70971790Y-38939779D02*
X71067028Y-38892160D01*
X71067028Y-38892160D02*
X71114647Y-38844541D01*
X71114647Y-38844541D02*
X71209885Y-38701684D01*
X71209885Y-38701684D02*
X71257504Y-38511208D01*
X71257504Y-38511208D02*
X71257504Y-38130256D01*
X71257504Y-38130256D02*
X71209885Y-38035018D01*
X71209885Y-38035018D02*
X71162266Y-37987399D01*
X71162266Y-37987399D02*
X71067028Y-37939779D01*
X71067028Y-37939779D02*
X70876552Y-37939779D01*
X70876552Y-37939779D02*
X70781314Y-37987399D01*
X70781314Y-37987399D02*
X70733695Y-38035018D01*
X70733695Y-38035018D02*
X70686076Y-38130256D01*
X70686076Y-38130256D02*
X70686076Y-38368351D01*
X70686076Y-38368351D02*
X70733695Y-38463589D01*
X70733695Y-38463589D02*
X70781314Y-38511208D01*
X70781314Y-38511208D02*
X70876552Y-38558827D01*
X70876552Y-38558827D02*
X71067028Y-38558827D01*
X71067028Y-38558827D02*
X71162266Y-38511208D01*
X71162266Y-38511208D02*
X71209885Y-38463589D01*
X71209885Y-38463589D02*
X71257504Y-38368351D01*
X73045000Y-40501218D02*
X73045000Y-40739313D01*
X72806905Y-40644075D02*
X73045000Y-40739313D01*
X73045000Y-40739313D02*
X73283095Y-40644075D01*
X72902143Y-40929789D02*
X73045000Y-40739313D01*
X73045000Y-40739313D02*
X73187857Y-40929789D01*
X73044999Y-41591579D02*
X73044999Y-41353484D01*
X73283094Y-41448722D02*
X73044999Y-41353484D01*
X73044999Y-41353484D02*
X72806904Y-41448722D01*
X73187856Y-41163008D02*
X73044999Y-41353484D01*
X73044999Y-41353484D02*
X72902142Y-41163008D01*
X70812819Y-95571695D02*
X69812819Y-95571695D01*
X69812819Y-95571695D02*
X69812819Y-95333600D01*
X69812819Y-95333600D02*
X69860438Y-95190743D01*
X69860438Y-95190743D02*
X69955676Y-95095505D01*
X69955676Y-95095505D02*
X70050914Y-95047886D01*
X70050914Y-95047886D02*
X70241390Y-95000267D01*
X70241390Y-95000267D02*
X70384247Y-95000267D01*
X70384247Y-95000267D02*
X70574723Y-95047886D01*
X70574723Y-95047886D02*
X70669961Y-95095505D01*
X70669961Y-95095505D02*
X70765200Y-95190743D01*
X70765200Y-95190743D02*
X70812819Y-95333600D01*
X70812819Y-95333600D02*
X70812819Y-95571695D01*
X69812819Y-94095505D02*
X69812819Y-94571695D01*
X69812819Y-94571695D02*
X70289009Y-94619314D01*
X70289009Y-94619314D02*
X70241390Y-94571695D01*
X70241390Y-94571695D02*
X70193771Y-94476457D01*
X70193771Y-94476457D02*
X70193771Y-94238362D01*
X70193771Y-94238362D02*
X70241390Y-94143124D01*
X70241390Y-94143124D02*
X70289009Y-94095505D01*
X70289009Y-94095505D02*
X70384247Y-94047886D01*
X70384247Y-94047886D02*
X70622342Y-94047886D01*
X70622342Y-94047886D02*
X70717580Y-94095505D01*
X70717580Y-94095505D02*
X70765200Y-94143124D01*
X70765200Y-94143124D02*
X70812819Y-94238362D01*
X70812819Y-94238362D02*
X70812819Y-94476457D01*
X70812819Y-94476457D02*
X70765200Y-94571695D01*
X70765200Y-94571695D02*
X70717580Y-94619314D01*
X82451095Y-43498219D02*
X83022523Y-43498219D01*
X82736809Y-44498219D02*
X82736809Y-43498219D01*
X83355857Y-44498219D02*
X83355857Y-43498219D01*
X83355857Y-43498219D02*
X83736809Y-43498219D01*
X83736809Y-43498219D02*
X83832047Y-43545838D01*
X83832047Y-43545838D02*
X83879666Y-43593457D01*
X83879666Y-43593457D02*
X83927285Y-43688695D01*
X83927285Y-43688695D02*
X83927285Y-43831552D01*
X83927285Y-43831552D02*
X83879666Y-43926790D01*
X83879666Y-43926790D02*
X83832047Y-43974409D01*
X83832047Y-43974409D02*
X83736809Y-44022028D01*
X83736809Y-44022028D02*
X83355857Y-44022028D01*
X84403476Y-44498219D02*
X84593952Y-44498219D01*
X84593952Y-44498219D02*
X84689190Y-44450600D01*
X84689190Y-44450600D02*
X84736809Y-44402980D01*
X84736809Y-44402980D02*
X84832047Y-44260123D01*
X84832047Y-44260123D02*
X84879666Y-44069647D01*
X84879666Y-44069647D02*
X84879666Y-43688695D01*
X84879666Y-43688695D02*
X84832047Y-43593457D01*
X84832047Y-43593457D02*
X84784428Y-43545838D01*
X84784428Y-43545838D02*
X84689190Y-43498219D01*
X84689190Y-43498219D02*
X84498714Y-43498219D01*
X84498714Y-43498219D02*
X84403476Y-43545838D01*
X84403476Y-43545838D02*
X84355857Y-43593457D01*
X84355857Y-43593457D02*
X84308238Y-43688695D01*
X84308238Y-43688695D02*
X84308238Y-43926790D01*
X84308238Y-43926790D02*
X84355857Y-44022028D01*
X84355857Y-44022028D02*
X84403476Y-44069647D01*
X84403476Y-44069647D02*
X84498714Y-44117266D01*
X84498714Y-44117266D02*
X84689190Y-44117266D01*
X84689190Y-44117266D02*
X84784428Y-44069647D01*
X84784428Y-44069647D02*
X84832047Y-44022028D01*
X84832047Y-44022028D02*
X84879666Y-43926790D01*
X74983495Y-52159619D02*
X75554923Y-52159619D01*
X75269209Y-53159619D02*
X75269209Y-52159619D01*
X75888257Y-53159619D02*
X75888257Y-52159619D01*
X75888257Y-52159619D02*
X76269209Y-52159619D01*
X76269209Y-52159619D02*
X76364447Y-52207238D01*
X76364447Y-52207238D02*
X76412066Y-52254857D01*
X76412066Y-52254857D02*
X76459685Y-52350095D01*
X76459685Y-52350095D02*
X76459685Y-52492952D01*
X76459685Y-52492952D02*
X76412066Y-52588190D01*
X76412066Y-52588190D02*
X76364447Y-52635809D01*
X76364447Y-52635809D02*
X76269209Y-52683428D01*
X76269209Y-52683428D02*
X75888257Y-52683428D01*
X77316828Y-52159619D02*
X77126352Y-52159619D01*
X77126352Y-52159619D02*
X77031114Y-52207238D01*
X77031114Y-52207238D02*
X76983495Y-52254857D01*
X76983495Y-52254857D02*
X76888257Y-52397714D01*
X76888257Y-52397714D02*
X76840638Y-52588190D01*
X76840638Y-52588190D02*
X76840638Y-52969142D01*
X76840638Y-52969142D02*
X76888257Y-53064380D01*
X76888257Y-53064380D02*
X76935876Y-53112000D01*
X76935876Y-53112000D02*
X77031114Y-53159619D01*
X77031114Y-53159619D02*
X77221590Y-53159619D01*
X77221590Y-53159619D02*
X77316828Y-53112000D01*
X77316828Y-53112000D02*
X77364447Y-53064380D01*
X77364447Y-53064380D02*
X77412066Y-52969142D01*
X77412066Y-52969142D02*
X77412066Y-52731047D01*
X77412066Y-52731047D02*
X77364447Y-52635809D01*
X77364447Y-52635809D02*
X77316828Y-52588190D01*
X77316828Y-52588190D02*
X77221590Y-52540571D01*
X77221590Y-52540571D02*
X77031114Y-52540571D01*
X77031114Y-52540571D02*
X76935876Y-52588190D01*
X76935876Y-52588190D02*
X76888257Y-52635809D01*
X76888257Y-52635809D02*
X76840638Y-52731047D01*
X63561905Y-95885220D02*
X63561905Y-94885220D01*
X63561905Y-94885220D02*
X63800000Y-94885220D01*
X63800000Y-94885220D02*
X63942857Y-94932839D01*
X63942857Y-94932839D02*
X64038095Y-95028077D01*
X64038095Y-95028077D02*
X64085714Y-95123315D01*
X64085714Y-95123315D02*
X64133333Y-95313791D01*
X64133333Y-95313791D02*
X64133333Y-95456648D01*
X64133333Y-95456648D02*
X64085714Y-95647124D01*
X64085714Y-95647124D02*
X64038095Y-95742362D01*
X64038095Y-95742362D02*
X63942857Y-95837601D01*
X63942857Y-95837601D02*
X63800000Y-95885220D01*
X63800000Y-95885220D02*
X63561905Y-95885220D01*
X65085714Y-95885220D02*
X64514286Y-95885220D01*
X64800000Y-95885220D02*
X64800000Y-94885220D01*
X64800000Y-94885220D02*
X64704762Y-95028077D01*
X64704762Y-95028077D02*
X64609524Y-95123315D01*
X64609524Y-95123315D02*
X64514286Y-95170934D01*
X79434905Y-47308219D02*
X80006333Y-47308219D01*
X79720619Y-48308219D02*
X79720619Y-47308219D01*
X80339667Y-48308219D02*
X80339667Y-47308219D01*
X80339667Y-47308219D02*
X80720619Y-47308219D01*
X80720619Y-47308219D02*
X80815857Y-47355838D01*
X80815857Y-47355838D02*
X80863476Y-47403457D01*
X80863476Y-47403457D02*
X80911095Y-47498695D01*
X80911095Y-47498695D02*
X80911095Y-47641552D01*
X80911095Y-47641552D02*
X80863476Y-47736790D01*
X80863476Y-47736790D02*
X80815857Y-47784409D01*
X80815857Y-47784409D02*
X80720619Y-47832028D01*
X80720619Y-47832028D02*
X80339667Y-47832028D01*
X81863476Y-48308219D02*
X81292048Y-48308219D01*
X81577762Y-48308219D02*
X81577762Y-47308219D01*
X81577762Y-47308219D02*
X81482524Y-47451076D01*
X81482524Y-47451076D02*
X81387286Y-47546314D01*
X81387286Y-47546314D02*
X81292048Y-47593933D01*
X82196810Y-47308219D02*
X82815857Y-47308219D01*
X82815857Y-47308219D02*
X82482524Y-47689171D01*
X82482524Y-47689171D02*
X82625381Y-47689171D01*
X82625381Y-47689171D02*
X82720619Y-47736790D01*
X82720619Y-47736790D02*
X82768238Y-47784409D01*
X82768238Y-47784409D02*
X82815857Y-47879647D01*
X82815857Y-47879647D02*
X82815857Y-48117742D01*
X82815857Y-48117742D02*
X82768238Y-48212980D01*
X82768238Y-48212980D02*
X82720619Y-48260600D01*
X82720619Y-48260600D02*
X82625381Y-48308219D01*
X82625381Y-48308219D02*
X82339667Y-48308219D01*
X82339667Y-48308219D02*
X82244429Y-48260600D01*
X82244429Y-48260600D02*
X82196810Y-48212980D01*
X38108095Y-27216819D02*
X38679523Y-27216819D01*
X38393809Y-28216819D02*
X38393809Y-27216819D01*
X39012857Y-28216819D02*
X39012857Y-27216819D01*
X39012857Y-27216819D02*
X39393809Y-27216819D01*
X39393809Y-27216819D02*
X39489047Y-27264438D01*
X39489047Y-27264438D02*
X39536666Y-27312057D01*
X39536666Y-27312057D02*
X39584285Y-27407295D01*
X39584285Y-27407295D02*
X39584285Y-27550152D01*
X39584285Y-27550152D02*
X39536666Y-27645390D01*
X39536666Y-27645390D02*
X39489047Y-27693009D01*
X39489047Y-27693009D02*
X39393809Y-27740628D01*
X39393809Y-27740628D02*
X39012857Y-27740628D01*
X40536666Y-28216819D02*
X39965238Y-28216819D01*
X40250952Y-28216819D02*
X40250952Y-27216819D01*
X40250952Y-27216819D02*
X40155714Y-27359676D01*
X40155714Y-27359676D02*
X40060476Y-27454914D01*
X40060476Y-27454914D02*
X39965238Y-27502533D01*
X90630476Y-47874819D02*
X90630476Y-48589104D01*
X90630476Y-48589104D02*
X90582857Y-48731961D01*
X90582857Y-48731961D02*
X90487619Y-48827200D01*
X90487619Y-48827200D02*
X90344762Y-48874819D01*
X90344762Y-48874819D02*
X90249524Y-48874819D01*
X91630476Y-48874819D02*
X91059048Y-48874819D01*
X91344762Y-48874819D02*
X91344762Y-47874819D01*
X91344762Y-47874819D02*
X91249524Y-48017676D01*
X91249524Y-48017676D02*
X91154286Y-48112914D01*
X91154286Y-48112914D02*
X91059048Y-48160533D01*
X92582857Y-48874819D02*
X92011429Y-48874819D01*
X92297143Y-48874819D02*
X92297143Y-47874819D01*
X92297143Y-47874819D02*
X92201905Y-48017676D01*
X92201905Y-48017676D02*
X92106667Y-48112914D01*
X92106667Y-48112914D02*
X92011429Y-48160533D01*
X79434905Y-44768219D02*
X80006333Y-44768219D01*
X79720619Y-45768219D02*
X79720619Y-44768219D01*
X80339667Y-45768219D02*
X80339667Y-44768219D01*
X80339667Y-44768219D02*
X80720619Y-44768219D01*
X80720619Y-44768219D02*
X80815857Y-44815838D01*
X80815857Y-44815838D02*
X80863476Y-44863457D01*
X80863476Y-44863457D02*
X80911095Y-44958695D01*
X80911095Y-44958695D02*
X80911095Y-45101552D01*
X80911095Y-45101552D02*
X80863476Y-45196790D01*
X80863476Y-45196790D02*
X80815857Y-45244409D01*
X80815857Y-45244409D02*
X80720619Y-45292028D01*
X80720619Y-45292028D02*
X80339667Y-45292028D01*
X81863476Y-45768219D02*
X81292048Y-45768219D01*
X81577762Y-45768219D02*
X81577762Y-44768219D01*
X81577762Y-44768219D02*
X81482524Y-44911076D01*
X81482524Y-44911076D02*
X81387286Y-45006314D01*
X81387286Y-45006314D02*
X81292048Y-45053933D01*
X82482524Y-44768219D02*
X82577762Y-44768219D01*
X82577762Y-44768219D02*
X82673000Y-44815838D01*
X82673000Y-44815838D02*
X82720619Y-44863457D01*
X82720619Y-44863457D02*
X82768238Y-44958695D01*
X82768238Y-44958695D02*
X82815857Y-45149171D01*
X82815857Y-45149171D02*
X82815857Y-45387266D01*
X82815857Y-45387266D02*
X82768238Y-45577742D01*
X82768238Y-45577742D02*
X82720619Y-45672980D01*
X82720619Y-45672980D02*
X82673000Y-45720600D01*
X82673000Y-45720600D02*
X82577762Y-45768219D01*
X82577762Y-45768219D02*
X82482524Y-45768219D01*
X82482524Y-45768219D02*
X82387286Y-45720600D01*
X82387286Y-45720600D02*
X82339667Y-45672980D01*
X82339667Y-45672980D02*
X82292048Y-45577742D01*
X82292048Y-45577742D02*
X82244429Y-45387266D01*
X82244429Y-45387266D02*
X82244429Y-45149171D01*
X82244429Y-45149171D02*
X82292048Y-44958695D01*
X82292048Y-44958695D02*
X82339667Y-44863457D01*
X82339667Y-44863457D02*
X82387286Y-44815838D01*
X82387286Y-44815838D02*
X82482524Y-44768219D01*
X83565819Y-67970304D02*
X84375342Y-67970304D01*
X84375342Y-67970304D02*
X84470580Y-67922685D01*
X84470580Y-67922685D02*
X84518200Y-67875066D01*
X84518200Y-67875066D02*
X84565819Y-67779828D01*
X84565819Y-67779828D02*
X84565819Y-67589352D01*
X84565819Y-67589352D02*
X84518200Y-67494114D01*
X84518200Y-67494114D02*
X84470580Y-67446495D01*
X84470580Y-67446495D02*
X84375342Y-67398876D01*
X84375342Y-67398876D02*
X83565819Y-67398876D01*
X83994390Y-66779828D02*
X83946771Y-66875066D01*
X83946771Y-66875066D02*
X83899152Y-66922685D01*
X83899152Y-66922685D02*
X83803914Y-66970304D01*
X83803914Y-66970304D02*
X83756295Y-66970304D01*
X83756295Y-66970304D02*
X83661057Y-66922685D01*
X83661057Y-66922685D02*
X83613438Y-66875066D01*
X83613438Y-66875066D02*
X83565819Y-66779828D01*
X83565819Y-66779828D02*
X83565819Y-66589352D01*
X83565819Y-66589352D02*
X83613438Y-66494114D01*
X83613438Y-66494114D02*
X83661057Y-66446495D01*
X83661057Y-66446495D02*
X83756295Y-66398876D01*
X83756295Y-66398876D02*
X83803914Y-66398876D01*
X83803914Y-66398876D02*
X83899152Y-66446495D01*
X83899152Y-66446495D02*
X83946771Y-66494114D01*
X83946771Y-66494114D02*
X83994390Y-66589352D01*
X83994390Y-66589352D02*
X83994390Y-66779828D01*
X83994390Y-66779828D02*
X84042009Y-66875066D01*
X84042009Y-66875066D02*
X84089628Y-66922685D01*
X84089628Y-66922685D02*
X84184866Y-66970304D01*
X84184866Y-66970304D02*
X84375342Y-66970304D01*
X84375342Y-66970304D02*
X84470580Y-66922685D01*
X84470580Y-66922685D02*
X84518200Y-66875066D01*
X84518200Y-66875066D02*
X84565819Y-66779828D01*
X84565819Y-66779828D02*
X84565819Y-66589352D01*
X84565819Y-66589352D02*
X84518200Y-66494114D01*
X84518200Y-66494114D02*
X84470580Y-66446495D01*
X84470580Y-66446495D02*
X84375342Y-66398876D01*
X84375342Y-66398876D02*
X84184866Y-66398876D01*
X84184866Y-66398876D02*
X84089628Y-66446495D01*
X84089628Y-66446495D02*
X84042009Y-66494114D01*
X84042009Y-66494114D02*
X83994390Y-66589352D01*
X76585866Y-75459219D02*
X76585866Y-76173504D01*
X76585866Y-76173504D02*
X76538247Y-76316361D01*
X76538247Y-76316361D02*
X76443009Y-76411600D01*
X76443009Y-76411600D02*
X76300152Y-76459219D01*
X76300152Y-76459219D02*
X76204914Y-76459219D01*
X77062057Y-76459219D02*
X77062057Y-75459219D01*
X77062057Y-75459219D02*
X77443009Y-75459219D01*
X77443009Y-75459219D02*
X77538247Y-75506838D01*
X77538247Y-75506838D02*
X77585866Y-75554457D01*
X77585866Y-75554457D02*
X77633485Y-75649695D01*
X77633485Y-75649695D02*
X77633485Y-75792552D01*
X77633485Y-75792552D02*
X77585866Y-75887790D01*
X77585866Y-75887790D02*
X77538247Y-75935409D01*
X77538247Y-75935409D02*
X77443009Y-75983028D01*
X77443009Y-75983028D02*
X77062057Y-75983028D01*
X78585866Y-76459219D02*
X78014438Y-76459219D01*
X78300152Y-76459219D02*
X78300152Y-75459219D01*
X78300152Y-75459219D02*
X78204914Y-75602076D01*
X78204914Y-75602076D02*
X78109676Y-75697314D01*
X78109676Y-75697314D02*
X78014438Y-75744933D01*
X43253066Y-84476219D02*
X43253066Y-85190504D01*
X43253066Y-85190504D02*
X43205447Y-85333361D01*
X43205447Y-85333361D02*
X43110209Y-85428600D01*
X43110209Y-85428600D02*
X42967352Y-85476219D01*
X42967352Y-85476219D02*
X42872114Y-85476219D01*
X44157828Y-84809552D02*
X44157828Y-85476219D01*
X43919733Y-84428600D02*
X43681638Y-85142885D01*
X43681638Y-85142885D02*
X44300685Y-85142885D01*
X54878067Y-94943401D02*
X55020924Y-94991020D01*
X55020924Y-94991020D02*
X55259019Y-94991020D01*
X55259019Y-94991020D02*
X55354257Y-94943401D01*
X55354257Y-94943401D02*
X55401876Y-94895781D01*
X55401876Y-94895781D02*
X55449495Y-94800543D01*
X55449495Y-94800543D02*
X55449495Y-94705305D01*
X55449495Y-94705305D02*
X55401876Y-94610067D01*
X55401876Y-94610067D02*
X55354257Y-94562448D01*
X55354257Y-94562448D02*
X55259019Y-94514829D01*
X55259019Y-94514829D02*
X55068543Y-94467210D01*
X55068543Y-94467210D02*
X54973305Y-94419591D01*
X54973305Y-94419591D02*
X54925686Y-94371972D01*
X54925686Y-94371972D02*
X54878067Y-94276734D01*
X54878067Y-94276734D02*
X54878067Y-94181496D01*
X54878067Y-94181496D02*
X54925686Y-94086258D01*
X54925686Y-94086258D02*
X54973305Y-94038639D01*
X54973305Y-94038639D02*
X55068543Y-93991020D01*
X55068543Y-93991020D02*
X55306638Y-93991020D01*
X55306638Y-93991020D02*
X55449495Y-94038639D01*
X55782829Y-93991020D02*
X56020924Y-94991020D01*
X56020924Y-94991020D02*
X56211400Y-94276734D01*
X56211400Y-94276734D02*
X56401876Y-94991020D01*
X56401876Y-94991020D02*
X56639972Y-93991020D01*
X56925686Y-93991020D02*
X57544733Y-93991020D01*
X57544733Y-93991020D02*
X57211400Y-94371972D01*
X57211400Y-94371972D02*
X57354257Y-94371972D01*
X57354257Y-94371972D02*
X57449495Y-94419591D01*
X57449495Y-94419591D02*
X57497114Y-94467210D01*
X57497114Y-94467210D02*
X57544733Y-94562448D01*
X57544733Y-94562448D02*
X57544733Y-94800543D01*
X57544733Y-94800543D02*
X57497114Y-94895781D01*
X57497114Y-94895781D02*
X57449495Y-94943401D01*
X57449495Y-94943401D02*
X57354257Y-94991020D01*
X57354257Y-94991020D02*
X57068543Y-94991020D01*
X57068543Y-94991020D02*
X56973305Y-94943401D01*
X56973305Y-94943401D02*
X56925686Y-94895781D01*
X49950905Y-35675019D02*
X50522333Y-35675019D01*
X50236619Y-36675019D02*
X50236619Y-35675019D01*
X50855667Y-36675019D02*
X50855667Y-35675019D01*
X50855667Y-35675019D02*
X51236619Y-35675019D01*
X51236619Y-35675019D02*
X51331857Y-35722638D01*
X51331857Y-35722638D02*
X51379476Y-35770257D01*
X51379476Y-35770257D02*
X51427095Y-35865495D01*
X51427095Y-35865495D02*
X51427095Y-36008352D01*
X51427095Y-36008352D02*
X51379476Y-36103590D01*
X51379476Y-36103590D02*
X51331857Y-36151209D01*
X51331857Y-36151209D02*
X51236619Y-36198828D01*
X51236619Y-36198828D02*
X50855667Y-36198828D01*
X52379476Y-36675019D02*
X51808048Y-36675019D01*
X52093762Y-36675019D02*
X52093762Y-35675019D01*
X52093762Y-35675019D02*
X51998524Y-35817876D01*
X51998524Y-35817876D02*
X51903286Y-35913114D01*
X51903286Y-35913114D02*
X51808048Y-35960733D01*
X53236619Y-35675019D02*
X53046143Y-35675019D01*
X53046143Y-35675019D02*
X52950905Y-35722638D01*
X52950905Y-35722638D02*
X52903286Y-35770257D01*
X52903286Y-35770257D02*
X52808048Y-35913114D01*
X52808048Y-35913114D02*
X52760429Y-36103590D01*
X52760429Y-36103590D02*
X52760429Y-36484542D01*
X52760429Y-36484542D02*
X52808048Y-36579780D01*
X52808048Y-36579780D02*
X52855667Y-36627400D01*
X52855667Y-36627400D02*
X52950905Y-36675019D01*
X52950905Y-36675019D02*
X53141381Y-36675019D01*
X53141381Y-36675019D02*
X53236619Y-36627400D01*
X53236619Y-36627400D02*
X53284238Y-36579780D01*
X53284238Y-36579780D02*
X53331857Y-36484542D01*
X53331857Y-36484542D02*
X53331857Y-36246447D01*
X53331857Y-36246447D02*
X53284238Y-36151209D01*
X53284238Y-36151209D02*
X53236619Y-36103590D01*
X53236619Y-36103590D02*
X53141381Y-36055971D01*
X53141381Y-36055971D02*
X52950905Y-36055971D01*
X52950905Y-36055971D02*
X52855667Y-36103590D01*
X52855667Y-36103590D02*
X52808048Y-36151209D01*
X52808048Y-36151209D02*
X52760429Y-36246447D01*
X92514344Y-26331666D02*
X91514344Y-26331666D01*
X91514344Y-26331666D02*
X91514344Y-25950714D01*
X91514344Y-25950714D02*
X91561963Y-25855476D01*
X91561963Y-25855476D02*
X91609582Y-25807857D01*
X91609582Y-25807857D02*
X91704820Y-25760238D01*
X91704820Y-25760238D02*
X91847677Y-25760238D01*
X91847677Y-25760238D02*
X91942915Y-25807857D01*
X91942915Y-25807857D02*
X91990534Y-25855476D01*
X91990534Y-25855476D02*
X92038153Y-25950714D01*
X92038153Y-25950714D02*
X92038153Y-26331666D01*
X92514344Y-25331666D02*
X91514344Y-25331666D01*
X91514344Y-25331666D02*
X92228629Y-24998333D01*
X92228629Y-24998333D02*
X91514344Y-24665000D01*
X91514344Y-24665000D02*
X92514344Y-24665000D01*
X91514344Y-23998333D02*
X91514344Y-23807857D01*
X91514344Y-23807857D02*
X91561963Y-23712619D01*
X91561963Y-23712619D02*
X91657201Y-23617381D01*
X91657201Y-23617381D02*
X91847677Y-23569762D01*
X91847677Y-23569762D02*
X92181010Y-23569762D01*
X92181010Y-23569762D02*
X92371486Y-23617381D01*
X92371486Y-23617381D02*
X92466725Y-23712619D01*
X92466725Y-23712619D02*
X92514344Y-23807857D01*
X92514344Y-23807857D02*
X92514344Y-23998333D01*
X92514344Y-23998333D02*
X92466725Y-24093571D01*
X92466725Y-24093571D02*
X92371486Y-24188809D01*
X92371486Y-24188809D02*
X92181010Y-24236428D01*
X92181010Y-24236428D02*
X91847677Y-24236428D01*
X91847677Y-24236428D02*
X91657201Y-24188809D01*
X91657201Y-24188809D02*
X91561963Y-24093571D01*
X91561963Y-24093571D02*
X91514344Y-23998333D01*
X92514344Y-23141190D02*
X91514344Y-23141190D01*
X91514344Y-23141190D02*
X91514344Y-22903095D01*
X91514344Y-22903095D02*
X91561963Y-22760238D01*
X91561963Y-22760238D02*
X91657201Y-22665000D01*
X91657201Y-22665000D02*
X91752439Y-22617381D01*
X91752439Y-22617381D02*
X91942915Y-22569762D01*
X91942915Y-22569762D02*
X92085772Y-22569762D01*
X92085772Y-22569762D02*
X92276248Y-22617381D01*
X92276248Y-22617381D02*
X92371486Y-22665000D01*
X92371486Y-22665000D02*
X92466725Y-22760238D01*
X92466725Y-22760238D02*
X92514344Y-22903095D01*
X92514344Y-22903095D02*
X92514344Y-23141190D01*
X92609582Y-22379286D02*
X92609582Y-21617381D01*
X91514344Y-21522142D02*
X91514344Y-20950714D01*
X92514344Y-21236428D02*
X91514344Y-21236428D01*
X92514344Y-20617380D02*
X91514344Y-20617380D01*
X91514344Y-20617380D02*
X92228629Y-20284047D01*
X92228629Y-20284047D02*
X91514344Y-19950714D01*
X91514344Y-19950714D02*
X92514344Y-19950714D01*
X92514344Y-19474523D02*
X91514344Y-19474523D01*
X91514344Y-19474523D02*
X91514344Y-19093571D01*
X91514344Y-19093571D02*
X91561963Y-18998333D01*
X91561963Y-18998333D02*
X91609582Y-18950714D01*
X91609582Y-18950714D02*
X91704820Y-18903095D01*
X91704820Y-18903095D02*
X91847677Y-18903095D01*
X91847677Y-18903095D02*
X91942915Y-18950714D01*
X91942915Y-18950714D02*
X91990534Y-18998333D01*
X91990534Y-18998333D02*
X92038153Y-19093571D01*
X92038153Y-19093571D02*
X92038153Y-19474523D01*
X91609582Y-18522142D02*
X91561963Y-18474523D01*
X91561963Y-18474523D02*
X91514344Y-18379285D01*
X91514344Y-18379285D02*
X91514344Y-18141190D01*
X91514344Y-18141190D02*
X91561963Y-18045952D01*
X91561963Y-18045952D02*
X91609582Y-17998333D01*
X91609582Y-17998333D02*
X91704820Y-17950714D01*
X91704820Y-17950714D02*
X91800058Y-17950714D01*
X91800058Y-17950714D02*
X91942915Y-17998333D01*
X91942915Y-17998333D02*
X92514344Y-18569761D01*
X92514344Y-18569761D02*
X92514344Y-17950714D01*
X42298256Y-39184226D02*
X42298256Y-37914226D01*
X42298256Y-37914226D02*
X42600637Y-37914226D01*
X42600637Y-37914226D02*
X42782066Y-37974702D01*
X42782066Y-37974702D02*
X42903018Y-38095654D01*
X42903018Y-38095654D02*
X42963495Y-38216607D01*
X42963495Y-38216607D02*
X43023971Y-38458511D01*
X43023971Y-38458511D02*
X43023971Y-38639940D01*
X43023971Y-38639940D02*
X42963495Y-38881845D01*
X42963495Y-38881845D02*
X42903018Y-39002797D01*
X42903018Y-39002797D02*
X42782066Y-39123750D01*
X42782066Y-39123750D02*
X42600637Y-39184226D01*
X42600637Y-39184226D02*
X42298256Y-39184226D01*
X44233495Y-39184226D02*
X43507780Y-39184226D01*
X43870637Y-39184226D02*
X43870637Y-37914226D01*
X43870637Y-37914226D02*
X43749685Y-38095654D01*
X43749685Y-38095654D02*
X43628733Y-38216607D01*
X43628733Y-38216607D02*
X43507780Y-38277083D01*
X44656828Y-37914226D02*
X45443019Y-37914226D01*
X45443019Y-37914226D02*
X45019685Y-38398035D01*
X45019685Y-38398035D02*
X45201114Y-38398035D01*
X45201114Y-38398035D02*
X45322066Y-38458511D01*
X45322066Y-38458511D02*
X45382542Y-38518988D01*
X45382542Y-38518988D02*
X45443019Y-38639940D01*
X45443019Y-38639940D02*
X45443019Y-38942321D01*
X45443019Y-38942321D02*
X45382542Y-39063273D01*
X45382542Y-39063273D02*
X45322066Y-39123750D01*
X45322066Y-39123750D02*
X45201114Y-39184226D01*
X45201114Y-39184226D02*
X44838257Y-39184226D01*
X44838257Y-39184226D02*
X44717304Y-39123750D01*
X44717304Y-39123750D02*
X44656828Y-39063273D01*
X53760905Y-54877419D02*
X54332333Y-54877419D01*
X54046619Y-55877419D02*
X54046619Y-54877419D01*
X54665667Y-55877419D02*
X54665667Y-54877419D01*
X54665667Y-54877419D02*
X55046619Y-54877419D01*
X55046619Y-54877419D02*
X55141857Y-54925038D01*
X55141857Y-54925038D02*
X55189476Y-54972657D01*
X55189476Y-54972657D02*
X55237095Y-55067895D01*
X55237095Y-55067895D02*
X55237095Y-55210752D01*
X55237095Y-55210752D02*
X55189476Y-55305990D01*
X55189476Y-55305990D02*
X55141857Y-55353609D01*
X55141857Y-55353609D02*
X55046619Y-55401228D01*
X55046619Y-55401228D02*
X54665667Y-55401228D01*
X56189476Y-55877419D02*
X55618048Y-55877419D01*
X55903762Y-55877419D02*
X55903762Y-54877419D01*
X55903762Y-54877419D02*
X55808524Y-55020276D01*
X55808524Y-55020276D02*
X55713286Y-55115514D01*
X55713286Y-55115514D02*
X55618048Y-55163133D01*
X56522810Y-54877419D02*
X57189476Y-54877419D01*
X57189476Y-54877419D02*
X56760905Y-55877419D01*
X35175866Y-48687619D02*
X35175866Y-49401904D01*
X35175866Y-49401904D02*
X35128247Y-49544761D01*
X35128247Y-49544761D02*
X35033009Y-49640000D01*
X35033009Y-49640000D02*
X34890152Y-49687619D01*
X34890152Y-49687619D02*
X34794914Y-49687619D01*
X35556819Y-48687619D02*
X36175866Y-48687619D01*
X36175866Y-48687619D02*
X35842533Y-49068571D01*
X35842533Y-49068571D02*
X35985390Y-49068571D01*
X35985390Y-49068571D02*
X36080628Y-49116190D01*
X36080628Y-49116190D02*
X36128247Y-49163809D01*
X36128247Y-49163809D02*
X36175866Y-49259047D01*
X36175866Y-49259047D02*
X36175866Y-49497142D01*
X36175866Y-49497142D02*
X36128247Y-49592380D01*
X36128247Y-49592380D02*
X36080628Y-49640000D01*
X36080628Y-49640000D02*
X35985390Y-49687619D01*
X35985390Y-49687619D02*
X35699676Y-49687619D01*
X35699676Y-49687619D02*
X35604438Y-49640000D01*
X35604438Y-49640000D02*
X35556819Y-49592380D01*
X55233719Y-66389094D02*
X56043242Y-66389094D01*
X56043242Y-66389094D02*
X56138480Y-66341475D01*
X56138480Y-66341475D02*
X56186100Y-66293856D01*
X56186100Y-66293856D02*
X56233719Y-66198618D01*
X56233719Y-66198618D02*
X56233719Y-66008142D01*
X56233719Y-66008142D02*
X56186100Y-65912904D01*
X56186100Y-65912904D02*
X56138480Y-65865285D01*
X56138480Y-65865285D02*
X56043242Y-65817666D01*
X56043242Y-65817666D02*
X55233719Y-65817666D01*
X56233719Y-64817666D02*
X56233719Y-65389094D01*
X56233719Y-65103380D02*
X55233719Y-65103380D01*
X55233719Y-65103380D02*
X55376576Y-65198618D01*
X55376576Y-65198618D02*
X55471814Y-65293856D01*
X55471814Y-65293856D02*
X55519433Y-65389094D01*
X55233719Y-64198618D02*
X55233719Y-64103380D01*
X55233719Y-64103380D02*
X55281338Y-64008142D01*
X55281338Y-64008142D02*
X55328957Y-63960523D01*
X55328957Y-63960523D02*
X55424195Y-63912904D01*
X55424195Y-63912904D02*
X55614671Y-63865285D01*
X55614671Y-63865285D02*
X55852766Y-63865285D01*
X55852766Y-63865285D02*
X56043242Y-63912904D01*
X56043242Y-63912904D02*
X56138480Y-63960523D01*
X56138480Y-63960523D02*
X56186100Y-64008142D01*
X56186100Y-64008142D02*
X56233719Y-64103380D01*
X56233719Y-64103380D02*
X56233719Y-64198618D01*
X56233719Y-64198618D02*
X56186100Y-64293856D01*
X56186100Y-64293856D02*
X56138480Y-64341475D01*
X56138480Y-64341475D02*
X56043242Y-64389094D01*
X56043242Y-64389094D02*
X55852766Y-64436713D01*
X55852766Y-64436713D02*
X55614671Y-64436713D01*
X55614671Y-64436713D02*
X55424195Y-64389094D01*
X55424195Y-64389094D02*
X55328957Y-64341475D01*
X55328957Y-64341475D02*
X55281338Y-64293856D01*
X55281338Y-64293856D02*
X55233719Y-64198618D01*
X44157804Y-65467580D02*
X44157804Y-64658057D01*
X44157804Y-64658057D02*
X44110185Y-64562819D01*
X44110185Y-64562819D02*
X44062566Y-64515200D01*
X44062566Y-64515200D02*
X43967328Y-64467580D01*
X43967328Y-64467580D02*
X43776852Y-64467580D01*
X43776852Y-64467580D02*
X43681614Y-64515200D01*
X43681614Y-64515200D02*
X43633995Y-64562819D01*
X43633995Y-64562819D02*
X43586376Y-64658057D01*
X43586376Y-64658057D02*
X43586376Y-65467580D01*
X42633995Y-65467580D02*
X43110185Y-65467580D01*
X43110185Y-65467580D02*
X43157804Y-64991390D01*
X43157804Y-64991390D02*
X43110185Y-65039009D01*
X43110185Y-65039009D02*
X43014947Y-65086628D01*
X43014947Y-65086628D02*
X42776852Y-65086628D01*
X42776852Y-65086628D02*
X42681614Y-65039009D01*
X42681614Y-65039009D02*
X42633995Y-64991390D01*
X42633995Y-64991390D02*
X42586376Y-64896152D01*
X42586376Y-64896152D02*
X42586376Y-64658057D01*
X42586376Y-64658057D02*
X42633995Y-64562819D01*
X42633995Y-64562819D02*
X42681614Y-64515200D01*
X42681614Y-64515200D02*
X42776852Y-64467580D01*
X42776852Y-64467580D02*
X43014947Y-64467580D01*
X43014947Y-64467580D02*
X43110185Y-64515200D01*
X43110185Y-64515200D02*
X43157804Y-64562819D01*
X45745400Y-66799619D02*
X45745400Y-67037714D01*
X45507305Y-66942476D02*
X45745400Y-67037714D01*
X45745400Y-67037714D02*
X45983495Y-66942476D01*
X45602543Y-67228190D02*
X45745400Y-67037714D01*
X45745400Y-67037714D02*
X45888257Y-67228190D01*
X45745399Y-67889980D02*
X45745399Y-67651885D01*
X45983494Y-67747123D02*
X45745399Y-67651885D01*
X45745399Y-67651885D02*
X45507304Y-67747123D01*
X45888256Y-67461409D02*
X45745399Y-67651885D01*
X45745399Y-67651885D02*
X45602542Y-67461409D01*
X79434905Y-39688219D02*
X80006333Y-39688219D01*
X79720619Y-40688219D02*
X79720619Y-39688219D01*
X80339667Y-40688219D02*
X80339667Y-39688219D01*
X80339667Y-39688219D02*
X80720619Y-39688219D01*
X80720619Y-39688219D02*
X80815857Y-39735838D01*
X80815857Y-39735838D02*
X80863476Y-39783457D01*
X80863476Y-39783457D02*
X80911095Y-39878695D01*
X80911095Y-39878695D02*
X80911095Y-40021552D01*
X80911095Y-40021552D02*
X80863476Y-40116790D01*
X80863476Y-40116790D02*
X80815857Y-40164409D01*
X80815857Y-40164409D02*
X80720619Y-40212028D01*
X80720619Y-40212028D02*
X80339667Y-40212028D01*
X81863476Y-40688219D02*
X81292048Y-40688219D01*
X81577762Y-40688219D02*
X81577762Y-39688219D01*
X81577762Y-39688219D02*
X81482524Y-39831076D01*
X81482524Y-39831076D02*
X81387286Y-39926314D01*
X81387286Y-39926314D02*
X81292048Y-39973933D01*
X82244429Y-39783457D02*
X82292048Y-39735838D01*
X82292048Y-39735838D02*
X82387286Y-39688219D01*
X82387286Y-39688219D02*
X82625381Y-39688219D01*
X82625381Y-39688219D02*
X82720619Y-39735838D01*
X82720619Y-39735838D02*
X82768238Y-39783457D01*
X82768238Y-39783457D02*
X82815857Y-39878695D01*
X82815857Y-39878695D02*
X82815857Y-39973933D01*
X82815857Y-39973933D02*
X82768238Y-40116790D01*
X82768238Y-40116790D02*
X82196810Y-40688219D01*
X82196810Y-40688219D02*
X82815857Y-40688219D01*
X37844505Y-34199219D02*
X37844505Y-33199219D01*
X37844505Y-33199219D02*
X38082600Y-33199219D01*
X38082600Y-33199219D02*
X38225457Y-33246838D01*
X38225457Y-33246838D02*
X38320695Y-33342076D01*
X38320695Y-33342076D02*
X38368314Y-33437314D01*
X38368314Y-33437314D02*
X38415933Y-33627790D01*
X38415933Y-33627790D02*
X38415933Y-33770647D01*
X38415933Y-33770647D02*
X38368314Y-33961123D01*
X38368314Y-33961123D02*
X38320695Y-34056361D01*
X38320695Y-34056361D02*
X38225457Y-34151600D01*
X38225457Y-34151600D02*
X38082600Y-34199219D01*
X38082600Y-34199219D02*
X37844505Y-34199219D01*
X38796886Y-33294457D02*
X38844505Y-33246838D01*
X38844505Y-33246838D02*
X38939743Y-33199219D01*
X38939743Y-33199219D02*
X39177838Y-33199219D01*
X39177838Y-33199219D02*
X39273076Y-33246838D01*
X39273076Y-33246838D02*
X39320695Y-33294457D01*
X39320695Y-33294457D02*
X39368314Y-33389695D01*
X39368314Y-33389695D02*
X39368314Y-33484933D01*
X39368314Y-33484933D02*
X39320695Y-33627790D01*
X39320695Y-33627790D02*
X38749267Y-34199219D01*
X38749267Y-34199219D02*
X39368314Y-34199219D01*
X60760180Y-84884210D02*
X60807800Y-84931829D01*
X60807800Y-84931829D02*
X60855419Y-85074686D01*
X60855419Y-85074686D02*
X60855419Y-85169924D01*
X60855419Y-85169924D02*
X60807800Y-85312781D01*
X60807800Y-85312781D02*
X60712561Y-85408019D01*
X60712561Y-85408019D02*
X60617323Y-85455638D01*
X60617323Y-85455638D02*
X60426847Y-85503257D01*
X60426847Y-85503257D02*
X60283990Y-85503257D01*
X60283990Y-85503257D02*
X60093514Y-85455638D01*
X60093514Y-85455638D02*
X59998276Y-85408019D01*
X59998276Y-85408019D02*
X59903038Y-85312781D01*
X59903038Y-85312781D02*
X59855419Y-85169924D01*
X59855419Y-85169924D02*
X59855419Y-85074686D01*
X59855419Y-85074686D02*
X59903038Y-84931829D01*
X59903038Y-84931829D02*
X59950657Y-84884210D01*
X59855419Y-83979448D02*
X59855419Y-84455638D01*
X59855419Y-84455638D02*
X60331609Y-84503257D01*
X60331609Y-84503257D02*
X60283990Y-84455638D01*
X60283990Y-84455638D02*
X60236371Y-84360400D01*
X60236371Y-84360400D02*
X60236371Y-84122305D01*
X60236371Y-84122305D02*
X60283990Y-84027067D01*
X60283990Y-84027067D02*
X60331609Y-83979448D01*
X60331609Y-83979448D02*
X60426847Y-83931829D01*
X60426847Y-83931829D02*
X60664942Y-83931829D01*
X60664942Y-83931829D02*
X60760180Y-83979448D01*
X60760180Y-83979448D02*
X60807800Y-84027067D01*
X60807800Y-84027067D02*
X60855419Y-84122305D01*
X60855419Y-84122305D02*
X60855419Y-84360400D01*
X60855419Y-84360400D02*
X60807800Y-84455638D01*
X60807800Y-84455638D02*
X60760180Y-84503257D01*
X59855419Y-83598495D02*
X59855419Y-82979448D01*
X59855419Y-82979448D02*
X60236371Y-83312781D01*
X60236371Y-83312781D02*
X60236371Y-83169924D01*
X60236371Y-83169924D02*
X60283990Y-83074686D01*
X60283990Y-83074686D02*
X60331609Y-83027067D01*
X60331609Y-83027067D02*
X60426847Y-82979448D01*
X60426847Y-82979448D02*
X60664942Y-82979448D01*
X60664942Y-82979448D02*
X60760180Y-83027067D01*
X60760180Y-83027067D02*
X60807800Y-83074686D01*
X60807800Y-83074686D02*
X60855419Y-83169924D01*
X60855419Y-83169924D02*
X60855419Y-83455638D01*
X60855419Y-83455638D02*
X60807800Y-83550876D01*
X60807800Y-83550876D02*
X60760180Y-83598495D01*
X60855419Y-82503257D02*
X60855419Y-82312781D01*
X60855419Y-82312781D02*
X60807800Y-82217543D01*
X60807800Y-82217543D02*
X60760180Y-82169924D01*
X60760180Y-82169924D02*
X60617323Y-82074686D01*
X60617323Y-82074686D02*
X60426847Y-82027067D01*
X60426847Y-82027067D02*
X60045895Y-82027067D01*
X60045895Y-82027067D02*
X59950657Y-82074686D01*
X59950657Y-82074686D02*
X59903038Y-82122305D01*
X59903038Y-82122305D02*
X59855419Y-82217543D01*
X59855419Y-82217543D02*
X59855419Y-82408019D01*
X59855419Y-82408019D02*
X59903038Y-82503257D01*
X59903038Y-82503257D02*
X59950657Y-82550876D01*
X59950657Y-82550876D02*
X60045895Y-82598495D01*
X60045895Y-82598495D02*
X60283990Y-82598495D01*
X60283990Y-82598495D02*
X60379228Y-82550876D01*
X60379228Y-82550876D02*
X60426847Y-82503257D01*
X60426847Y-82503257D02*
X60474466Y-82408019D01*
X60474466Y-82408019D02*
X60474466Y-82217543D01*
X60474466Y-82217543D02*
X60426847Y-82122305D01*
X60426847Y-82122305D02*
X60379228Y-82074686D01*
X60379228Y-82074686D02*
X60283990Y-82027067D01*
X59855419Y-81693733D02*
X59855419Y-81074686D01*
X59855419Y-81074686D02*
X60236371Y-81408019D01*
X60236371Y-81408019D02*
X60236371Y-81265162D01*
X60236371Y-81265162D02*
X60283990Y-81169924D01*
X60283990Y-81169924D02*
X60331609Y-81122305D01*
X60331609Y-81122305D02*
X60426847Y-81074686D01*
X60426847Y-81074686D02*
X60664942Y-81074686D01*
X60664942Y-81074686D02*
X60760180Y-81122305D01*
X60760180Y-81122305D02*
X60807800Y-81169924D01*
X60807800Y-81169924D02*
X60855419Y-81265162D01*
X60855419Y-81265162D02*
X60855419Y-81550876D01*
X60855419Y-81550876D02*
X60807800Y-81646114D01*
X60807800Y-81646114D02*
X60760180Y-81693733D01*
X59855419Y-80169924D02*
X59855419Y-80646114D01*
X59855419Y-80646114D02*
X60331609Y-80693733D01*
X60331609Y-80693733D02*
X60283990Y-80646114D01*
X60283990Y-80646114D02*
X60236371Y-80550876D01*
X60236371Y-80550876D02*
X60236371Y-80312781D01*
X60236371Y-80312781D02*
X60283990Y-80217543D01*
X60283990Y-80217543D02*
X60331609Y-80169924D01*
X60331609Y-80169924D02*
X60426847Y-80122305D01*
X60426847Y-80122305D02*
X60664942Y-80122305D01*
X60664942Y-80122305D02*
X60760180Y-80169924D01*
X60760180Y-80169924D02*
X60807800Y-80217543D01*
X60807800Y-80217543D02*
X60855419Y-80312781D01*
X60855419Y-80312781D02*
X60855419Y-80550876D01*
X60855419Y-80550876D02*
X60807800Y-80646114D01*
X60807800Y-80646114D02*
X60760180Y-80693733D01*
X59855419Y-79217543D02*
X59855419Y-79693733D01*
X59855419Y-79693733D02*
X60331609Y-79741352D01*
X60331609Y-79741352D02*
X60283990Y-79693733D01*
X60283990Y-79693733D02*
X60236371Y-79598495D01*
X60236371Y-79598495D02*
X60236371Y-79360400D01*
X60236371Y-79360400D02*
X60283990Y-79265162D01*
X60283990Y-79265162D02*
X60331609Y-79217543D01*
X60331609Y-79217543D02*
X60426847Y-79169924D01*
X60426847Y-79169924D02*
X60664942Y-79169924D01*
X60664942Y-79169924D02*
X60760180Y-79217543D01*
X60760180Y-79217543D02*
X60807800Y-79265162D01*
X60807800Y-79265162D02*
X60855419Y-79360400D01*
X60855419Y-79360400D02*
X60855419Y-79598495D01*
X60855419Y-79598495D02*
X60807800Y-79693733D01*
X60807800Y-79693733D02*
X60760180Y-79741352D01*
X60188752Y-78312781D02*
X60855419Y-78312781D01*
X59807800Y-78550876D02*
X60522085Y-78788971D01*
X60522085Y-78788971D02*
X60522085Y-78169924D01*
X53883400Y-40576667D02*
X53835780Y-40719524D01*
X53835780Y-40719524D02*
X53835780Y-40957619D01*
X53835780Y-40957619D02*
X53883400Y-41052857D01*
X53883400Y-41052857D02*
X53931019Y-41100476D01*
X53931019Y-41100476D02*
X54026257Y-41148095D01*
X54026257Y-41148095D02*
X54121495Y-41148095D01*
X54121495Y-41148095D02*
X54216733Y-41100476D01*
X54216733Y-41100476D02*
X54264352Y-41052857D01*
X54264352Y-41052857D02*
X54311971Y-40957619D01*
X54311971Y-40957619D02*
X54359590Y-40767143D01*
X54359590Y-40767143D02*
X54407209Y-40671905D01*
X54407209Y-40671905D02*
X54454828Y-40624286D01*
X54454828Y-40624286D02*
X54550066Y-40576667D01*
X54550066Y-40576667D02*
X54645304Y-40576667D01*
X54645304Y-40576667D02*
X54740542Y-40624286D01*
X54740542Y-40624286D02*
X54788161Y-40671905D01*
X54788161Y-40671905D02*
X54835780Y-40767143D01*
X54835780Y-40767143D02*
X54835780Y-41005238D01*
X54835780Y-41005238D02*
X54788161Y-41148095D01*
X54835780Y-41481429D02*
X53835780Y-41719524D01*
X53835780Y-41719524D02*
X54550066Y-41910000D01*
X54550066Y-41910000D02*
X53835780Y-42100476D01*
X53835780Y-42100476D02*
X54835780Y-42338572D01*
X54835780Y-43148095D02*
X54835780Y-42957619D01*
X54835780Y-42957619D02*
X54788161Y-42862381D01*
X54788161Y-42862381D02*
X54740542Y-42814762D01*
X54740542Y-42814762D02*
X54597685Y-42719524D01*
X54597685Y-42719524D02*
X54407209Y-42671905D01*
X54407209Y-42671905D02*
X54026257Y-42671905D01*
X54026257Y-42671905D02*
X53931019Y-42719524D01*
X53931019Y-42719524D02*
X53883400Y-42767143D01*
X53883400Y-42767143D02*
X53835780Y-42862381D01*
X53835780Y-42862381D02*
X53835780Y-43052857D01*
X53835780Y-43052857D02*
X53883400Y-43148095D01*
X53883400Y-43148095D02*
X53931019Y-43195714D01*
X53931019Y-43195714D02*
X54026257Y-43243333D01*
X54026257Y-43243333D02*
X54264352Y-43243333D01*
X54264352Y-43243333D02*
X54359590Y-43195714D01*
X54359590Y-43195714D02*
X54407209Y-43148095D01*
X54407209Y-43148095D02*
X54454828Y-43052857D01*
X54454828Y-43052857D02*
X54454828Y-42862381D01*
X54454828Y-42862381D02*
X54407209Y-42767143D01*
X54407209Y-42767143D02*
X54359590Y-42719524D01*
X54359590Y-42719524D02*
X54264352Y-42671905D01*
X57335780Y-39408100D02*
X57097685Y-39408100D01*
X57192923Y-39170005D02*
X57097685Y-39408100D01*
X57097685Y-39408100D02*
X57192923Y-39646195D01*
X56907209Y-39265243D02*
X57097685Y-39408100D01*
X57097685Y-39408100D02*
X56907209Y-39550957D01*
X56245419Y-39408099D02*
X56483514Y-39408099D01*
X56388276Y-39646194D02*
X56483514Y-39408099D01*
X56483514Y-39408099D02*
X56388276Y-39170004D01*
X56673990Y-39550956D02*
X56483514Y-39408099D01*
X56483514Y-39408099D02*
X56673990Y-39265242D01*
X81974905Y-46038219D02*
X82546333Y-46038219D01*
X82260619Y-47038219D02*
X82260619Y-46038219D01*
X82879667Y-47038219D02*
X82879667Y-46038219D01*
X82879667Y-46038219D02*
X83260619Y-46038219D01*
X83260619Y-46038219D02*
X83355857Y-46085838D01*
X83355857Y-46085838D02*
X83403476Y-46133457D01*
X83403476Y-46133457D02*
X83451095Y-46228695D01*
X83451095Y-46228695D02*
X83451095Y-46371552D01*
X83451095Y-46371552D02*
X83403476Y-46466790D01*
X83403476Y-46466790D02*
X83355857Y-46514409D01*
X83355857Y-46514409D02*
X83260619Y-46562028D01*
X83260619Y-46562028D02*
X82879667Y-46562028D01*
X84403476Y-47038219D02*
X83832048Y-47038219D01*
X84117762Y-47038219D02*
X84117762Y-46038219D01*
X84117762Y-46038219D02*
X84022524Y-46181076D01*
X84022524Y-46181076D02*
X83927286Y-46276314D01*
X83927286Y-46276314D02*
X83832048Y-46323933D01*
X85355857Y-47038219D02*
X84784429Y-47038219D01*
X85070143Y-47038219D02*
X85070143Y-46038219D01*
X85070143Y-46038219D02*
X84974905Y-46181076D01*
X84974905Y-46181076D02*
X84879667Y-46276314D01*
X84879667Y-46276314D02*
X84784429Y-46323933D01*
X68263419Y-83797105D02*
X69072942Y-83797105D01*
X69072942Y-83797105D02*
X69168180Y-83749486D01*
X69168180Y-83749486D02*
X69215800Y-83701867D01*
X69215800Y-83701867D02*
X69263419Y-83606629D01*
X69263419Y-83606629D02*
X69263419Y-83416153D01*
X69263419Y-83416153D02*
X69215800Y-83320915D01*
X69215800Y-83320915D02*
X69168180Y-83273296D01*
X69168180Y-83273296D02*
X69072942Y-83225677D01*
X69072942Y-83225677D02*
X68263419Y-83225677D01*
X68263419Y-82844724D02*
X68263419Y-82178058D01*
X68263419Y-82178058D02*
X69263419Y-82606629D01*
X64552219Y-87418800D02*
X64790314Y-87418800D01*
X64695076Y-87656895D02*
X64790314Y-87418800D01*
X64790314Y-87418800D02*
X64695076Y-87180705D01*
X64980790Y-87561657D02*
X64790314Y-87418800D01*
X64790314Y-87418800D02*
X64980790Y-87275943D01*
X64552219Y-87418800D02*
X64790314Y-87418800D01*
X64695076Y-87656895D02*
X64790314Y-87418800D01*
X64790314Y-87418800D02*
X64695076Y-87180705D01*
X64980790Y-87561657D02*
X64790314Y-87418800D01*
X64790314Y-87418800D02*
X64980790Y-87275943D01*
X39333333Y-27075480D02*
X39333333Y-26361195D01*
X39333333Y-26361195D02*
X39380952Y-26218338D01*
X39380952Y-26218338D02*
X39476190Y-26123100D01*
X39476190Y-26123100D02*
X39619047Y-26075480D01*
X39619047Y-26075480D02*
X39714285Y-26075480D01*
X38333333Y-26075480D02*
X38904761Y-26075480D01*
X38619047Y-26075480D02*
X38619047Y-27075480D01*
X38619047Y-27075480D02*
X38714285Y-26932623D01*
X38714285Y-26932623D02*
X38809523Y-26837385D01*
X38809523Y-26837385D02*
X38904761Y-26789766D01*
X29218095Y-25946819D02*
X29789523Y-25946819D01*
X29503809Y-26946819D02*
X29503809Y-25946819D01*
X30122857Y-26946819D02*
X30122857Y-25946819D01*
X30122857Y-25946819D02*
X30503809Y-25946819D01*
X30503809Y-25946819D02*
X30599047Y-25994438D01*
X30599047Y-25994438D02*
X30646666Y-26042057D01*
X30646666Y-26042057D02*
X30694285Y-26137295D01*
X30694285Y-26137295D02*
X30694285Y-26280152D01*
X30694285Y-26280152D02*
X30646666Y-26375390D01*
X30646666Y-26375390D02*
X30599047Y-26423009D01*
X30599047Y-26423009D02*
X30503809Y-26470628D01*
X30503809Y-26470628D02*
X30122857Y-26470628D01*
X31027619Y-25946819D02*
X31646666Y-25946819D01*
X31646666Y-25946819D02*
X31313333Y-26327771D01*
X31313333Y-26327771D02*
X31456190Y-26327771D01*
X31456190Y-26327771D02*
X31551428Y-26375390D01*
X31551428Y-26375390D02*
X31599047Y-26423009D01*
X31599047Y-26423009D02*
X31646666Y-26518247D01*
X31646666Y-26518247D02*
X31646666Y-26756342D01*
X31646666Y-26756342D02*
X31599047Y-26851580D01*
X31599047Y-26851580D02*
X31551428Y-26899200D01*
X31551428Y-26899200D02*
X31456190Y-26946819D01*
X31456190Y-26946819D02*
X31170476Y-26946819D01*
X31170476Y-26946819D02*
X31075238Y-26899200D01*
X31075238Y-26899200D02*
X31027619Y-26851580D01*
D11*
%TO.C,TP14*%
X83013000Y-49871400D02*
X84413000Y-49871400D01*
X83013000Y-51271400D02*
X83013000Y-49871400D01*
X84413000Y-49871400D02*
X84413000Y-51271400D01*
X84413000Y-51271400D02*
X83013000Y-51271400D01*
D12*
%TO.C,SW2*%
X68196200Y-101556200D02*
X68196200Y-99256200D01*
X68796200Y-97406200D02*
X73596200Y-97406200D01*
X73596200Y-103406200D02*
X68796200Y-103406200D01*
X74196200Y-99256200D02*
X74196200Y-101556200D01*
D13*
X67526200Y-97406200D02*
G75*
G02*
X67466200Y-97406200I-30000J0D01*
G01*
X67466200Y-97406200D02*
G75*
G02*
X67526200Y-97406200I30000J0D01*
G01*
D12*
X69846200Y-98606200D02*
G75*
G02*
X68946200Y-98606200I-450000J0D01*
G01*
X68946200Y-98606200D02*
G75*
G02*
X69846200Y-98606200I450000J0D01*
G01*
X69846200Y-102206200D02*
G75*
G02*
X68946200Y-102206200I-450000J0D01*
G01*
X68946200Y-102206200D02*
G75*
G02*
X69846200Y-102206200I450000J0D01*
G01*
X72996200Y-100406200D02*
G75*
G02*
X69396200Y-100406200I-1800000J0D01*
G01*
X69396200Y-100406200D02*
G75*
G02*
X72996200Y-100406200I1800000J0D01*
G01*
X73446200Y-98606200D02*
G75*
G02*
X72546200Y-98606200I-450000J0D01*
G01*
X72546200Y-98606200D02*
G75*
G02*
X73446200Y-98606200I450000J0D01*
G01*
X73446200Y-102206200D02*
G75*
G02*
X72546200Y-102206200I-450000J0D01*
G01*
X72546200Y-102206200D02*
G75*
G02*
X73446200Y-102206200I450000J0D01*
G01*
D11*
%TO.C,TP15*%
X80473000Y-51141400D02*
X81873000Y-51141400D01*
X80473000Y-52541400D02*
X80473000Y-51141400D01*
X81873000Y-51141400D02*
X81873000Y-52541400D01*
X81873000Y-52541400D02*
X80473000Y-52541400D01*
%TO.C,J7*%
X82592400Y-58487800D02*
X83972400Y-58487800D01*
X82592400Y-59867800D02*
X82592400Y-58487800D01*
X82592400Y-61137800D02*
X82592400Y-63787800D01*
X82592400Y-61137800D02*
X85352400Y-61137800D01*
X82592400Y-63787800D02*
X85352400Y-63787800D01*
X85352400Y-61137800D02*
X85352400Y-63787800D01*
D10*
%TO.C,D7*%
X44058400Y-54434800D02*
X44058400Y-54554800D01*
X44058400Y-55274800D02*
X44058400Y-55394800D01*
X44058400Y-55394800D02*
X44288400Y-55394800D01*
X44288400Y-54434800D02*
X44058400Y-54434800D01*
X44288400Y-54434800D02*
X45648400Y-54434800D01*
X44288400Y-55394800D02*
X45648400Y-55394800D01*
D13*
X44198400Y-55314800D02*
G75*
G02*
X44138400Y-55314800I-30000J0D01*
G01*
X44138400Y-55314800D02*
G75*
G02*
X44198400Y-55314800I30000J0D01*
G01*
D14*
%TO.C,U1*%
X69900800Y-43129200D02*
X69900800Y-43538960D01*
X69900800Y-49983840D02*
X69900800Y-50393600D01*
X69900800Y-50393600D02*
X70310560Y-50393600D01*
X70310560Y-43129200D02*
X69900800Y-43129200D01*
X76755440Y-50393600D02*
X77165200Y-50393600D01*
X77165200Y-43129200D02*
X76755440Y-43129200D01*
X77165200Y-43538960D02*
X77165200Y-43129200D01*
X77165200Y-50393600D02*
X77165200Y-49983840D01*
D15*
G36*
X68427600Y-48701899D02*
G01*
X68173600Y-48701899D01*
X68173600Y-48320899D01*
X68427600Y-48320899D01*
X68427600Y-48701899D01*
G37*
G36*
X74473501Y-52120800D02*
G01*
X74092501Y-52120800D01*
X74092501Y-51866800D01*
X74473501Y-51866800D01*
X74473501Y-52120800D01*
G37*
G36*
X74973500Y-41656000D02*
G01*
X74592500Y-41656000D01*
X74592500Y-41402000D01*
X74973500Y-41402000D01*
X74973500Y-41656000D01*
G37*
G36*
X78892400Y-47201900D02*
G01*
X78638400Y-47201900D01*
X78638400Y-46820899D01*
X78892400Y-46820899D01*
X78892400Y-47201900D01*
G37*
D11*
%TO.C,J9*%
X29100000Y-51960000D02*
X30480000Y-51960000D01*
X29100000Y-53340000D02*
X29100000Y-51960000D01*
X29100000Y-54610000D02*
X29100000Y-102980000D01*
X29100000Y-54610000D02*
X31860000Y-54610000D01*
X29100000Y-102980000D02*
X31860000Y-102980000D01*
X31860000Y-54610000D02*
X31860000Y-102980000D01*
%TO.C,TP20*%
X56881800Y-92924400D02*
X58281800Y-92924400D01*
X56881800Y-94324400D02*
X56881800Y-92924400D01*
X58281800Y-92924400D02*
X58281800Y-94324400D01*
X58281800Y-94324400D02*
X56881800Y-94324400D01*
%TO.C,TP8*%
X80473000Y-43521400D02*
X81873000Y-43521400D01*
X80473000Y-44921400D02*
X80473000Y-43521400D01*
X81873000Y-43521400D02*
X81873000Y-44921400D01*
X81873000Y-44921400D02*
X80473000Y-44921400D01*
D14*
%TO.C,U4*%
X51777900Y-66319400D02*
X54876700Y-66319400D01*
X54876700Y-63220600D02*
X51777900Y-63220600D01*
X53632100Y-63220600D02*
G75*
G02*
X53022500Y-63220600I-304800J0D01*
G01*
D15*
G36*
X56718200Y-63960499D02*
G01*
X56464200Y-63960499D01*
X56464200Y-63579499D01*
X56718200Y-63579499D01*
X56718200Y-63960499D01*
G37*
D10*
%TO.C,D3*%
X70122400Y-90881200D02*
X69782400Y-90881200D01*
X70172400Y-90481200D02*
X70322400Y-90331200D01*
X70172400Y-90581200D02*
X70172400Y-90481200D01*
X70172400Y-91231200D02*
X70172400Y-90581200D01*
X70322400Y-90581200D02*
X70322400Y-91131200D01*
X70372400Y-91431200D02*
X70172400Y-91231200D01*
X71172400Y-90331200D02*
X70322400Y-90331200D01*
X71172400Y-91431200D02*
X70372400Y-91431200D01*
X72222400Y-90331200D02*
X71372400Y-90331200D01*
X72222400Y-91431200D02*
X71372400Y-91431200D01*
X72222400Y-91431200D02*
X72222400Y-90331200D01*
X72422400Y-90881200D02*
X72772400Y-90881200D01*
X72602400Y-91051200D02*
X72602400Y-90701200D01*
D13*
X70802400Y-91131200D02*
G75*
G02*
X70742400Y-91131200I-30000J0D01*
G01*
X70742400Y-91131200D02*
G75*
G02*
X70802400Y-91131200I30000J0D01*
G01*
D14*
%TO.C,U2*%
X48869001Y-47091001D02*
X48869001Y-47422259D01*
X48869001Y-50367741D02*
X48869001Y-50698999D01*
X48869001Y-50698999D02*
X52476999Y-50698999D01*
X52476999Y-47091001D02*
X48869001Y-47091001D01*
X52476999Y-47422259D02*
X52476999Y-47091001D01*
X52476999Y-50698999D02*
X52476999Y-50367741D01*
X48440259Y-47968829D02*
G75*
G02*
X48440259Y-47821171I-18859J73829D01*
G01*
D11*
%TO.C,L1*%
X47715400Y-51677800D02*
X53935400Y-51677800D01*
X53935400Y-57897800D02*
X47715400Y-57897800D01*
%TO.C,PMOD_OLED1*%
X54550000Y-17850000D02*
X54550000Y-26480000D01*
X55520000Y-26480000D02*
X55520000Y-26890000D01*
X55520000Y-28990000D02*
X55520000Y-29430000D01*
X56240000Y-26480000D02*
X56240000Y-26890000D01*
X56240000Y-28990000D02*
X56240000Y-29430000D01*
X57150000Y-17850000D02*
X57150000Y-26480000D01*
X58060000Y-26480000D02*
X58060000Y-26890000D01*
X58060000Y-28990000D02*
X58060000Y-29430000D01*
X58780000Y-26480000D02*
X58780000Y-26890000D01*
X58780000Y-28990000D02*
X58780000Y-29430000D01*
X59690000Y-17850000D02*
X59690000Y-26480000D01*
X60600000Y-26480000D02*
X60600000Y-26890000D01*
X60600000Y-28990000D02*
X60600000Y-29430000D01*
X61320000Y-26480000D02*
X61320000Y-26890000D01*
X61320000Y-28990000D02*
X61320000Y-29430000D01*
X62230000Y-17850000D02*
X62230000Y-26480000D01*
X63140000Y-26480000D02*
X63140000Y-26890000D01*
X63140000Y-28990000D02*
X63140000Y-29430000D01*
X63860000Y-26480000D02*
X63860000Y-26890000D01*
X63860000Y-28990000D02*
X63860000Y-29430000D01*
X64770000Y-17850000D02*
X64770000Y-26480000D01*
X65680000Y-26480000D02*
X65680000Y-26890000D01*
X65680000Y-28990000D02*
X65680000Y-29430000D01*
X66400000Y-26480000D02*
X66400000Y-26890000D01*
X66400000Y-28990000D02*
X66400000Y-29430000D01*
X67310000Y-17850000D02*
X67310000Y-26480000D01*
X67428100Y-17850000D02*
X67428100Y-26480000D01*
X67546195Y-17850000D02*
X67546195Y-26480000D01*
X67664290Y-17850000D02*
X67664290Y-26480000D01*
X67782385Y-17850000D02*
X67782385Y-26480000D01*
X67900480Y-17850000D02*
X67900480Y-26480000D01*
X68018575Y-17850000D02*
X68018575Y-26480000D01*
X68136670Y-17850000D02*
X68136670Y-26480000D01*
X68220000Y-26480000D02*
X68220000Y-26890000D01*
X68220000Y-28990000D02*
X68220000Y-29370000D01*
X68254765Y-17850000D02*
X68254765Y-26480000D01*
X68372860Y-17850000D02*
X68372860Y-26480000D01*
X68490955Y-17850000D02*
X68490955Y-26480000D01*
X68609050Y-17850000D02*
X68609050Y-26480000D01*
X68727145Y-17850000D02*
X68727145Y-26480000D01*
X68845240Y-17850000D02*
X68845240Y-26480000D01*
X68940000Y-26480000D02*
X68940000Y-26890000D01*
X68940000Y-28990000D02*
X68940000Y-29370000D01*
X68963335Y-17850000D02*
X68963335Y-26480000D01*
X69081430Y-17850000D02*
X69081430Y-26480000D01*
X69199525Y-17850000D02*
X69199525Y-26480000D01*
X69317620Y-17850000D02*
X69317620Y-26480000D01*
X69435715Y-17850000D02*
X69435715Y-26480000D01*
X69553810Y-17850000D02*
X69553810Y-26480000D01*
X69671905Y-17850000D02*
X69671905Y-26480000D01*
X69790000Y-17850000D02*
X69790000Y-26480000D01*
X69910000Y-17850000D02*
X54550000Y-17850000D01*
X69910000Y-17850000D02*
X69910000Y-26480000D01*
X69910000Y-26480000D02*
X54550000Y-26480000D01*
X69910000Y-30480000D02*
X69910000Y-31590000D01*
X69910000Y-31590000D02*
X68580000Y-31590000D01*
D12*
%TO.C,SW1*%
X59001400Y-101632400D02*
X59001400Y-99332400D01*
X59601400Y-97482400D02*
X64401400Y-97482400D01*
X64401400Y-103482400D02*
X59601400Y-103482400D01*
X65001400Y-99332400D02*
X65001400Y-101632400D01*
D13*
X58331400Y-97482400D02*
G75*
G02*
X58271400Y-97482400I-30000J0D01*
G01*
X58271400Y-97482400D02*
G75*
G02*
X58331400Y-97482400I30000J0D01*
G01*
D12*
X60651400Y-98682400D02*
G75*
G02*
X59751400Y-98682400I-450000J0D01*
G01*
X59751400Y-98682400D02*
G75*
G02*
X60651400Y-98682400I450000J0D01*
G01*
X60651400Y-102282400D02*
G75*
G02*
X59751400Y-102282400I-450000J0D01*
G01*
X59751400Y-102282400D02*
G75*
G02*
X60651400Y-102282400I450000J0D01*
G01*
X63801400Y-100482400D02*
G75*
G02*
X60201400Y-100482400I-1800000J0D01*
G01*
X60201400Y-100482400D02*
G75*
G02*
X63801400Y-100482400I1800000J0D01*
G01*
X64251400Y-98682400D02*
G75*
G02*
X63351400Y-98682400I-450000J0D01*
G01*
X63351400Y-98682400D02*
G75*
G02*
X64251400Y-98682400I450000J0D01*
G01*
X64251400Y-102282400D02*
G75*
G02*
X63351400Y-102282400I-450000J0D01*
G01*
X63351400Y-102282400D02*
G75*
G02*
X64251400Y-102282400I450000J0D01*
G01*
D11*
%TO.C,TP7*%
X83013000Y-42251400D02*
X84413000Y-42251400D01*
X83013000Y-43651400D02*
X83013000Y-42251400D01*
X84413000Y-42251400D02*
X84413000Y-43651400D01*
X84413000Y-43651400D02*
X83013000Y-43651400D01*
%TO.C,TP18*%
X41525200Y-54316400D02*
X42925200Y-54316400D01*
X41525200Y-55716400D02*
X41525200Y-54316400D01*
X42925200Y-54316400D02*
X42925200Y-55716400D01*
X42925200Y-55716400D02*
X41525200Y-55716400D01*
%TO.C,J5*%
X34053000Y-39691800D02*
X35433000Y-39691800D01*
X34053000Y-41071800D02*
X34053000Y-39691800D01*
X34053000Y-42341800D02*
X34053000Y-44991800D01*
X34053000Y-42341800D02*
X36813000Y-42341800D01*
X34053000Y-44991800D02*
X36813000Y-44991800D01*
X36813000Y-42341800D02*
X36813000Y-44991800D01*
%TO.C,J2*%
X48353200Y-61959000D02*
X48353200Y-60579000D01*
X49733200Y-61959000D02*
X48353200Y-61959000D01*
X51003200Y-59199000D02*
X53653200Y-59199000D01*
X51003200Y-61959000D02*
X51003200Y-59199000D01*
X51003200Y-61959000D02*
X53653200Y-61959000D01*
X53653200Y-61959000D02*
X53653200Y-59199000D01*
D14*
%TO.C,SW7*%
X37949500Y-32169100D02*
X37949500Y-36410900D01*
X37949500Y-36410900D02*
X49811300Y-36410900D01*
X49811300Y-32169100D02*
X37949500Y-32169100D01*
X49811300Y-36410900D02*
X49811300Y-32169100D01*
D12*
%TO.C,SW4*%
X77467200Y-101429200D02*
X77467200Y-99129200D01*
X78067200Y-97279200D02*
X82867200Y-97279200D01*
X82867200Y-103279200D02*
X78067200Y-103279200D01*
X83467200Y-99129200D02*
X83467200Y-101429200D01*
D13*
X76797200Y-97279200D02*
G75*
G02*
X76737200Y-97279200I-30000J0D01*
G01*
X76737200Y-97279200D02*
G75*
G02*
X76797200Y-97279200I30000J0D01*
G01*
D12*
X79117200Y-98479200D02*
G75*
G02*
X78217200Y-98479200I-450000J0D01*
G01*
X78217200Y-98479200D02*
G75*
G02*
X79117200Y-98479200I450000J0D01*
G01*
X79117200Y-102079200D02*
G75*
G02*
X78217200Y-102079200I-450000J0D01*
G01*
X78217200Y-102079200D02*
G75*
G02*
X79117200Y-102079200I450000J0D01*
G01*
X82267200Y-100279200D02*
G75*
G02*
X78667200Y-100279200I-1800000J0D01*
G01*
X78667200Y-100279200D02*
G75*
G02*
X82267200Y-100279200I1800000J0D01*
G01*
X82717200Y-98479200D02*
G75*
G02*
X81817200Y-98479200I-450000J0D01*
G01*
X81817200Y-98479200D02*
G75*
G02*
X82717200Y-98479200I450000J0D01*
G01*
X82717200Y-102079200D02*
G75*
G02*
X81817200Y-102079200I-450000J0D01*
G01*
X81817200Y-102079200D02*
G75*
G02*
X82717200Y-102079200I450000J0D01*
G01*
D14*
%TO.C,U3*%
X78361295Y-60312300D02*
X79372705Y-60312300D01*
X79372705Y-58204100D02*
X78361295Y-58204100D01*
X78562200Y-60312300D02*
G75*
G02*
X79171800Y-60312300I304800J0D01*
G01*
%TO.C,XTAL1*%
X72254400Y-58166000D02*
X72254400Y-61112400D01*
X73785040Y-61112400D02*
X74381360Y-61112400D01*
X74381360Y-58166000D02*
X73785040Y-58166000D01*
X75912000Y-61112400D02*
X75912000Y-58166000D01*
X73134800Y-63441000D02*
G75*
G02*
X72931600Y-63441000I-101600J0D01*
G01*
X72931600Y-63441000D02*
G75*
G02*
X73134800Y-63441000I101600J0D01*
G01*
D10*
%TO.C,L4*%
X62939200Y-42543000D02*
X63259200Y-42543000D01*
X62939200Y-43563000D02*
X63259200Y-43563000D01*
D14*
%TO.C,U12*%
X57670700Y-54229000D02*
X60286900Y-54229000D01*
X60286900Y-51612800D02*
X57670700Y-51612800D01*
D12*
%TO.C,U11*%
X34065400Y-63813200D02*
X34065400Y-66093200D01*
X34065400Y-69783200D02*
X34065400Y-71943200D01*
X34065400Y-71943200D02*
X39645400Y-71943200D01*
X39645400Y-63813200D02*
X34065400Y-63813200D01*
X39645400Y-65973200D02*
X39645400Y-63813200D01*
X39645400Y-71943200D02*
X39645400Y-69653200D01*
D13*
X34585400Y-64323200D02*
G75*
G02*
X34525400Y-64323200I-30000J0D01*
G01*
X34525400Y-64323200D02*
G75*
G02*
X34585400Y-64323200I30000J0D01*
G01*
D11*
%TO.C,J6*%
X57192400Y-73490600D02*
X57192400Y-72110600D01*
X58572400Y-73490600D02*
X57192400Y-73490600D01*
X59842400Y-70730600D02*
X62492400Y-70730600D01*
X59842400Y-73490600D02*
X59842400Y-70730600D01*
X59842400Y-73490600D02*
X62492400Y-73490600D01*
X62492400Y-73490600D02*
X62492400Y-70730600D01*
D10*
%TO.C,L6*%
X56875000Y-54840400D02*
X57025000Y-54690400D01*
X56875000Y-58240400D02*
X56875000Y-54840400D01*
X57025000Y-54690400D02*
X58115000Y-54690400D01*
X57025000Y-58390400D02*
X56875000Y-58240400D01*
X58305000Y-58380400D02*
X57025000Y-58390400D01*
X59805000Y-54700400D02*
X61085000Y-54690400D01*
X61085000Y-54690400D02*
X61235000Y-54840400D01*
X61085000Y-58390400D02*
X59995000Y-58390400D01*
X61235000Y-54840400D02*
X61235000Y-58240400D01*
X61235000Y-58240400D02*
X61085000Y-58390400D01*
D13*
X57585000Y-58040400D02*
G75*
G02*
X57525000Y-58040400I-30000J0D01*
G01*
X57525000Y-58040400D02*
G75*
G02*
X57585000Y-58040400I30000J0D01*
G01*
D10*
%TO.C,L2*%
X63083200Y-47242000D02*
X63403200Y-47242000D01*
X63083200Y-48262000D02*
X63403200Y-48262000D01*
D11*
%TO.C,TP4*%
X70465400Y-53452800D02*
X71865400Y-53452800D01*
X70465400Y-54852800D02*
X70465400Y-53452800D01*
X71865400Y-53452800D02*
X71865400Y-54852800D01*
X71865400Y-54852800D02*
X70465400Y-54852800D01*
%TO.C,TP2*%
X47560000Y-27240000D02*
X48960000Y-27240000D01*
X47560000Y-28640000D02*
X47560000Y-27240000D01*
X48960000Y-27240000D02*
X48960000Y-28640000D01*
X48960000Y-28640000D02*
X47560000Y-28640000D01*
%TO.C,TP5*%
X73005400Y-53452800D02*
X74405400Y-53452800D01*
X73005400Y-54852800D02*
X73005400Y-53452800D01*
X74405400Y-53452800D02*
X74405400Y-54852800D01*
X74405400Y-54852800D02*
X73005400Y-54852800D01*
%TO.C,TP19*%
X73341000Y-86777600D02*
X74741000Y-86777600D01*
X73341000Y-88177600D02*
X73341000Y-86777600D01*
X74741000Y-86777600D02*
X74741000Y-88177600D01*
X74741000Y-88177600D02*
X73341000Y-88177600D01*
D10*
%TO.C,D6*%
X71861600Y-93167401D02*
X70921600Y-93167401D01*
X70657978Y-92368768D02*
G75*
G02*
X72131600Y-92377401I733622J-548633D01*
G01*
D13*
X70321600Y-93167401D02*
G75*
G02*
X70261600Y-93167401I-30000J0D01*
G01*
X70261600Y-93167401D02*
G75*
G02*
X70321600Y-93167401I30000J0D01*
G01*
D14*
%TO.C,U6*%
X70466900Y-40070999D02*
X72524300Y-40070999D01*
X72524300Y-36718199D02*
X70466900Y-36718199D01*
D10*
%TO.C,D5*%
X68715800Y-93971601D02*
X68915800Y-93771601D01*
X68715800Y-94771601D02*
X68715800Y-93971601D01*
X68715800Y-95821601D02*
X68715800Y-94971601D01*
X68715800Y-95821601D02*
X69815800Y-95821601D01*
X68915800Y-93771601D02*
X69565800Y-93771601D01*
X69095800Y-96201601D02*
X69445800Y-96201601D01*
X69265800Y-93721601D02*
X69265800Y-93381601D01*
X69265800Y-96021601D02*
X69265800Y-96371601D01*
X69565800Y-93771601D02*
X69665800Y-93771601D01*
X69565800Y-93921601D02*
X69015800Y-93921601D01*
X69665800Y-93771601D02*
X69815800Y-93921601D01*
X69815800Y-94771601D02*
X69815800Y-93921601D01*
X69815800Y-95821601D02*
X69815800Y-94971601D01*
D13*
X69045800Y-94371601D02*
G75*
G02*
X68985800Y-94371601I-30000J0D01*
G01*
X68985800Y-94371601D02*
G75*
G02*
X69045800Y-94371601I30000J0D01*
G01*
D11*
%TO.C,TP9*%
X83013000Y-44791400D02*
X84413000Y-44791400D01*
X83013000Y-46191400D02*
X83013000Y-44791400D01*
X84413000Y-44791400D02*
X84413000Y-46191400D01*
X84413000Y-46191400D02*
X83013000Y-46191400D01*
%TO.C,TP6*%
X75545400Y-53452800D02*
X76945400Y-53452800D01*
X75545400Y-54852800D02*
X75545400Y-53452800D01*
X76945400Y-53452800D02*
X76945400Y-54852800D01*
X76945400Y-54852800D02*
X75545400Y-54852800D01*
D10*
%TO.C,D1*%
X63008200Y-93990401D02*
X63008200Y-94340401D01*
X63188200Y-94160401D02*
X62838200Y-94160401D01*
X63388200Y-93610401D02*
X63388200Y-94710401D01*
X63388200Y-93610401D02*
X64238200Y-93610401D01*
X63388200Y-94710401D02*
X64238200Y-94710401D01*
X64438200Y-93610401D02*
X65238200Y-93610401D01*
X64438200Y-94710401D02*
X65288200Y-94710401D01*
X65238200Y-93610401D02*
X65438200Y-93810401D01*
X65288200Y-94460401D02*
X65288200Y-93910401D01*
X65438200Y-93810401D02*
X65438200Y-94460401D01*
X65438200Y-94460401D02*
X65438200Y-94560401D01*
X65438200Y-94560401D02*
X65288200Y-94710401D01*
X65488200Y-94160401D02*
X65828200Y-94160401D01*
D13*
X64868200Y-93910401D02*
G75*
G02*
X64808200Y-93910401I-30000J0D01*
G01*
X64808200Y-93910401D02*
G75*
G02*
X64868200Y-93910401I30000J0D01*
G01*
D11*
%TO.C,TP13*%
X80473000Y-48601400D02*
X81873000Y-48601400D01*
X80473000Y-50001400D02*
X80473000Y-48601400D01*
X81873000Y-48601400D02*
X81873000Y-50001400D01*
X81873000Y-50001400D02*
X80473000Y-50001400D01*
%TO.C,TP1*%
X38670000Y-28510000D02*
X40070000Y-28510000D01*
X38670000Y-29910000D02*
X38670000Y-28510000D01*
X40070000Y-28510000D02*
X40070000Y-29910000D01*
X40070000Y-29910000D02*
X38670000Y-29910000D01*
%TO.C,J11*%
X90060000Y-49420000D02*
X91440000Y-49420000D01*
X90060000Y-50800000D02*
X90060000Y-49420000D01*
X90060000Y-52070000D02*
X90060000Y-100440000D01*
X90060000Y-52070000D02*
X92820000Y-52070000D01*
X90060000Y-100440000D02*
X92820000Y-100440000D01*
X92820000Y-52070000D02*
X92820000Y-100440000D01*
%TO.C,TP10*%
X80473000Y-46061400D02*
X81873000Y-46061400D01*
X80473000Y-47461400D02*
X80473000Y-46061400D01*
X81873000Y-46061400D02*
X81873000Y-47461400D01*
X81873000Y-47461400D02*
X80473000Y-47461400D01*
D10*
%TO.C,U8*%
X72648400Y-66549600D02*
X77008400Y-66549600D01*
X72648400Y-71829600D02*
X72648400Y-66549600D01*
X77008400Y-66549600D02*
X77008400Y-71829600D01*
X77008400Y-71829600D02*
X72648400Y-71829600D01*
D13*
X70938400Y-66599600D02*
G75*
G02*
X70878400Y-66599600I-30000J0D01*
G01*
X70878400Y-66599600D02*
G75*
G02*
X70938400Y-66599600I30000J0D01*
G01*
D16*
X71448400Y-66519600D02*
G75*
G02*
X71148400Y-66519600I-150000J0D01*
G01*
X71148400Y-66519600D02*
G75*
G02*
X71448400Y-66519600I150000J0D01*
G01*
X73558400Y-67279600D02*
G75*
G02*
X73258400Y-67279600I-150000J0D01*
G01*
X73258400Y-67279600D02*
G75*
G02*
X73558400Y-67279600I150000J0D01*
G01*
D11*
%TO.C,JP1*%
X76259200Y-76939400D02*
X77419200Y-76939400D01*
X76259200Y-77749400D02*
X76259200Y-76939400D01*
X76259200Y-78559400D02*
X76259200Y-81034400D01*
X76259200Y-78559400D02*
X76752492Y-78559400D01*
X76259200Y-81034400D02*
X77101277Y-81034400D01*
X77737123Y-81034400D02*
X78579200Y-81034400D01*
X78085908Y-78559400D02*
X78579200Y-78559400D01*
X78579200Y-78559400D02*
X78579200Y-81034400D01*
%TO.C,J4*%
X42206400Y-86021400D02*
X43586400Y-86021400D01*
X42206400Y-87401400D02*
X42206400Y-86021400D01*
X42206400Y-88671400D02*
X42206400Y-101481400D01*
X42206400Y-88671400D02*
X44966400Y-88671400D01*
X42206400Y-101481400D02*
X44966400Y-101481400D01*
X44966400Y-88671400D02*
X44966400Y-101481400D01*
D10*
%TO.C,D4*%
X66299200Y-93511801D02*
X66299200Y-96201801D01*
X68219200Y-93511801D02*
X66299200Y-93511801D01*
X68219200Y-96201801D02*
X68219200Y-93511801D01*
D12*
%TO.C,SW3*%
X53211400Y-90186201D02*
X53211400Y-87886201D01*
X53811400Y-86036201D02*
X58611400Y-86036201D01*
X58611400Y-92036201D02*
X53811400Y-92036201D01*
X59211400Y-87886201D02*
X59211400Y-90186201D01*
X54861400Y-87236201D02*
G75*
G02*
X53961400Y-87236201I-450000J0D01*
G01*
X53961400Y-87236201D02*
G75*
G02*
X54861400Y-87236201I450000J0D01*
G01*
X54861400Y-90836201D02*
G75*
G02*
X53961400Y-90836201I-450000J0D01*
G01*
X53961400Y-90836201D02*
G75*
G02*
X54861400Y-90836201I450000J0D01*
G01*
X58011400Y-89036201D02*
G75*
G02*
X54411400Y-89036201I-1800000J0D01*
G01*
X54411400Y-89036201D02*
G75*
G02*
X58011400Y-89036201I1800000J0D01*
G01*
X58461400Y-87236201D02*
G75*
G02*
X57561400Y-87236201I-450000J0D01*
G01*
X57561400Y-87236201D02*
G75*
G02*
X58461400Y-87236201I450000J0D01*
G01*
X58461400Y-90836201D02*
G75*
G02*
X57561400Y-90836201I-450000J0D01*
G01*
X57561400Y-90836201D02*
G75*
G02*
X58461400Y-90836201I450000J0D01*
G01*
D13*
X59941400Y-92036201D02*
G75*
G02*
X59881400Y-92036201I-30000J0D01*
G01*
X59881400Y-92036201D02*
G75*
G02*
X59941400Y-92036201I30000J0D01*
G01*
D11*
%TO.C,TP16*%
X50989000Y-36968200D02*
X52389000Y-36968200D01*
X50989000Y-38368200D02*
X50989000Y-36968200D01*
X52389000Y-36968200D02*
X52389000Y-38368200D01*
X52389000Y-38368200D02*
X50989000Y-38368200D01*
%TO.C,PMOD_TMP2*%
X82490000Y-17850000D02*
X82490000Y-26480000D01*
X83460000Y-26480000D02*
X83460000Y-26890000D01*
X83460000Y-28990000D02*
X83460000Y-29430000D01*
X84180000Y-26480000D02*
X84180000Y-26890000D01*
X84180000Y-28990000D02*
X84180000Y-29430000D01*
X85090000Y-17850000D02*
X85090000Y-26480000D01*
X86000000Y-26480000D02*
X86000000Y-26890000D01*
X86000000Y-28990000D02*
X86000000Y-29430000D01*
X86720000Y-26480000D02*
X86720000Y-26890000D01*
X86720000Y-28990000D02*
X86720000Y-29430000D01*
X87630000Y-17850000D02*
X87630000Y-26480000D01*
X88540000Y-26480000D02*
X88540000Y-26890000D01*
X88540000Y-28990000D02*
X88540000Y-29430000D01*
X89260000Y-26480000D02*
X89260000Y-26890000D01*
X89260000Y-28990000D02*
X89260000Y-29430000D01*
X90170000Y-17850000D02*
X90170000Y-26480000D01*
X90288100Y-17850000D02*
X90288100Y-26480000D01*
X90406195Y-17850000D02*
X90406195Y-26480000D01*
X90524290Y-17850000D02*
X90524290Y-26480000D01*
X90642385Y-17850000D02*
X90642385Y-26480000D01*
X90760480Y-17850000D02*
X90760480Y-26480000D01*
X90878575Y-17850000D02*
X90878575Y-26480000D01*
X90996670Y-17850000D02*
X90996670Y-26480000D01*
X91080000Y-26480000D02*
X91080000Y-26890000D01*
X91080000Y-28990000D02*
X91080000Y-29370000D01*
X91114765Y-17850000D02*
X91114765Y-26480000D01*
X91232860Y-17850000D02*
X91232860Y-26480000D01*
X91350955Y-17850000D02*
X91350955Y-26480000D01*
X91469050Y-17850000D02*
X91469050Y-26480000D01*
X91587145Y-17850000D02*
X91587145Y-26480000D01*
X91705240Y-17850000D02*
X91705240Y-26480000D01*
X91800000Y-26480000D02*
X91800000Y-26890000D01*
X91800000Y-28990000D02*
X91800000Y-29370000D01*
X91823335Y-17850000D02*
X91823335Y-26480000D01*
X91941430Y-17850000D02*
X91941430Y-26480000D01*
X92059525Y-17850000D02*
X92059525Y-26480000D01*
X92177620Y-17850000D02*
X92177620Y-26480000D01*
X92295715Y-17850000D02*
X92295715Y-26480000D01*
X92413810Y-17850000D02*
X92413810Y-26480000D01*
X92531905Y-17850000D02*
X92531905Y-26480000D01*
X92650000Y-17850000D02*
X92650000Y-26480000D01*
X92770000Y-17850000D02*
X82490000Y-17850000D01*
X92770000Y-17850000D02*
X92770000Y-26480000D01*
X92770000Y-26480000D02*
X82490000Y-26480000D01*
X92770000Y-30480000D02*
X92770000Y-31590000D01*
X92770000Y-31590000D02*
X91440000Y-31590000D01*
D17*
%TO.C,D13*%
X41320400Y-42395200D02*
X46360400Y-42395200D01*
X46360400Y-39799200D02*
X41015400Y-39799200D01*
D11*
%TO.C,TP17*%
X54799000Y-56170600D02*
X56199000Y-56170600D01*
X54799000Y-57570600D02*
X54799000Y-56170600D01*
X56199000Y-56170600D02*
X56199000Y-57570600D01*
X56199000Y-57570600D02*
X54799000Y-57570600D01*
%TO.C,J3*%
X34129200Y-50232800D02*
X35509200Y-50232800D01*
X34129200Y-51612800D02*
X34129200Y-50232800D01*
X34129200Y-52882800D02*
X34129200Y-55532800D01*
X34129200Y-52882800D02*
X36889200Y-52882800D01*
X34129200Y-55532800D02*
X36889200Y-55532800D01*
X36889200Y-52882800D02*
X36889200Y-55532800D01*
D12*
%TO.C,U10*%
X56988900Y-61081000D02*
X56988900Y-63371000D01*
X56988900Y-67051000D02*
X56988900Y-69211000D01*
X56988900Y-69211000D02*
X62568900Y-69211000D01*
X62568900Y-61081000D02*
X56988900Y-61081000D01*
X62568900Y-63241000D02*
X62568900Y-61081000D01*
X62568900Y-69211000D02*
X62568900Y-66931000D01*
D13*
X62108900Y-68701000D02*
G75*
G02*
X62048900Y-68701000I-30000J0D01*
G01*
X62048900Y-68701000D02*
G75*
G02*
X62108900Y-68701000I30000J0D01*
G01*
D14*
%TO.C,U5*%
X41846500Y-66471800D02*
X44945300Y-66471800D01*
X44945300Y-63373000D02*
X41846500Y-63373000D01*
X43091100Y-66471800D02*
G75*
G02*
X43700700Y-66471800I304800J0D01*
G01*
D15*
G36*
X40259000Y-66112901D02*
G01*
X40005000Y-66112901D01*
X40005000Y-65731901D01*
X40259000Y-65731901D01*
X40259000Y-66112901D01*
G37*
D11*
%TO.C,TP12*%
X80473000Y-40981400D02*
X81873000Y-40981400D01*
X80473000Y-42381400D02*
X80473000Y-40981400D01*
X81873000Y-40981400D02*
X81873000Y-42381400D01*
X81873000Y-42381400D02*
X80473000Y-42381400D01*
D10*
%TO.C,D2*%
X37432600Y-37744400D02*
X37092600Y-37744400D01*
X37482600Y-37344400D02*
X37632600Y-37194400D01*
X37482600Y-37444400D02*
X37482600Y-37344400D01*
X37482600Y-38094400D02*
X37482600Y-37444400D01*
X37632600Y-37444400D02*
X37632600Y-37994400D01*
X37682600Y-38294400D02*
X37482600Y-38094400D01*
X38482600Y-37194400D02*
X37632600Y-37194400D01*
X38482600Y-38294400D02*
X37682600Y-38294400D01*
X39532600Y-37194400D02*
X38682600Y-37194400D01*
X39532600Y-38294400D02*
X38682600Y-38294400D01*
X39532600Y-38294400D02*
X39532600Y-37194400D01*
X39732600Y-37744400D02*
X40082600Y-37744400D01*
X39912600Y-37914400D02*
X39912600Y-37564400D01*
D13*
X38112600Y-37994400D02*
G75*
G02*
X38052600Y-37994400I-30000J0D01*
G01*
X38052600Y-37994400D02*
G75*
G02*
X38112600Y-37994400I30000J0D01*
G01*
D12*
%TO.C,C5393554*%
X59747800Y-80448601D02*
G75*
G02*
X59745931Y-82408981I-200000J-980000D01*
G01*
D10*
%TO.C,L3*%
X35550000Y-32510000D02*
X35870000Y-32510000D01*
X35550000Y-33530000D02*
X35870000Y-33530000D01*
D14*
%TO.C,SW6*%
X48359700Y-39789100D02*
X48359700Y-44030900D01*
X48359700Y-44030900D02*
X60221500Y-44030900D01*
X60221500Y-39789100D02*
X48359700Y-39789100D01*
X60221500Y-44030900D02*
X60221500Y-39789100D01*
D11*
%TO.C,TP11*%
X83013000Y-47331400D02*
X84413000Y-47331400D01*
X83013000Y-48731400D02*
X83013000Y-47331400D01*
X84413000Y-47331400D02*
X84413000Y-48731400D01*
X84413000Y-48731400D02*
X83013000Y-48731400D01*
D14*
%TO.C,U7*%
X65176400Y-79403001D02*
X65176400Y-79825461D01*
X65176400Y-86244941D02*
X65176400Y-86667401D01*
X65176400Y-86667401D02*
X65598860Y-86667401D01*
X65598860Y-79403001D02*
X65176400Y-79403001D01*
X72018340Y-86667401D02*
X72440800Y-86667401D01*
X72440800Y-79403001D02*
X72018340Y-79403001D01*
X72440800Y-79825461D02*
X72440800Y-79403001D01*
X72440800Y-86667401D02*
X72440800Y-86244941D01*
D15*
G36*
X64744600Y-81975701D02*
G01*
X64490600Y-81975701D01*
X64490600Y-81594701D01*
X64744600Y-81594701D01*
X64744600Y-81975701D01*
G37*
G36*
X69249100Y-78971201D02*
G01*
X68868099Y-78971201D01*
X68868099Y-78717201D01*
X69249100Y-78717201D01*
X69249100Y-78971201D01*
G37*
G36*
X70749099Y-87353201D02*
G01*
X70368099Y-87353201D01*
X70368099Y-87099201D01*
X70749099Y-87099201D01*
X70749099Y-87353201D01*
G37*
G36*
X73126600Y-82475700D02*
G01*
X72872600Y-82475700D01*
X72872600Y-82094700D01*
X73126600Y-82094700D01*
X73126600Y-82475700D01*
G37*
D14*
%TO.C,J1*%
X34402600Y-19062700D02*
X34402600Y-20548304D01*
X34402600Y-19062700D02*
X43597400Y-19062700D01*
X34402600Y-20548304D02*
X34402600Y-19062700D01*
X34402600Y-23030296D02*
X34402600Y-24545914D01*
X34402600Y-24545914D02*
X34402600Y-23030296D01*
X35205814Y-19062700D02*
X34402600Y-19062700D01*
X40985813Y-19062700D02*
X37014187Y-19062700D01*
X43597400Y-19062700D02*
X42794186Y-19062700D01*
X43597400Y-19062700D02*
X43597400Y-20548304D01*
X43597400Y-20548304D02*
X43597400Y-19062700D01*
X43597400Y-23030296D02*
X43597400Y-24545914D01*
X43597400Y-24545914D02*
X43597400Y-23030296D01*
D18*
X45606001Y-26276300D02*
G75*
G02*
X45954203Y-25896713I381001J0D01*
G01*
X45954204Y-26655886D02*
G75*
G02*
X45606002Y-26276300I32798J379586D01*
G01*
D11*
%TO.C,TP3*%
X29780000Y-27240000D02*
X31180000Y-27240000D01*
X29780000Y-28640000D02*
X29780000Y-27240000D01*
X31180000Y-27240000D02*
X31180000Y-28640000D01*
X31180000Y-28640000D02*
X29780000Y-28640000D01*
%TD*%
M02*
